<svg width="716" height="78" viewBox="0 0 716 78" fill="none" xmlns="http://www.w3.org/2000/svg">
<path d="M695.348 -35.4108C702.03 -38.4212 709.246 -40.4281 714.325 -46.4488C716.463 -48.7901 716.998 -54.1419 713.256 -54.8108C704.97 -56.4832 696.417 -50.1281 689.2 -46.4488C676.103 -39.7591 662.739 -34.4074 649.909 -27.7177C635.743 -20.3591 622.112 -11.3281 608.213 -2.96599C593.512 5.39609 578.544 9.40987 562.507 12.7547C533.64 18.4409 505.576 22.7892 475.907 21.1168C460.405 20.4478 444.635 18.7754 429.132 16.434C421.648 15.4306 414.164 14.4271 406.413 14.0926C403.206 13.7582 399.998 13.7582 396.524 14.0926C393.316 14.0926 391.712 13.0892 390.911 11.0823C395.989 3.0547 401.602 -4.6384 407.215 -11.997C424.054 -35.0763 445.169 -65.8488 470.829 -72.8729C495.152 -79.2281 522.147 -74.2108 547.005 -68.5246C548.074 -68.1901 549.143 -68.1901 549.945 -67.8557C533.908 -79.5626 516.534 -88.9281 498.359 -95.9522C490.608 -95.6177 482.856 -95.2833 475.105 -95.6177C471.096 -95.9522 466.819 -94.6143 463.077 -94.2798C449.179 -92.6074 459.603 -100.969 465.483 -105.652C457.732 -107.325 449.98 -108.663 441.962 -109.666C426.459 -96.2867 411.492 -81.9039 396.256 -67.5212C380.487 -52.8039 367.657 -33.7384 351.887 -18.6867C333.979 -1.29357 312.596 6.73402 290.144 11.0823C282.126 12.7547 274.107 13.7581 265.822 14.7616C257.803 16.0995 249.517 17.103 241.499 18.1064C234.816 18.7754 228.134 20.4478 221.452 21.1168C215.037 21.7857 208.355 22.4547 201.941 22.7892C188.576 23.4582 174.945 23.4581 161.313 23.1237C156.235 23.1237 151.156 22.7892 146.078 22.7892C127.903 23.7926 109.46 24.4616 91.552 23.7926C89.681 23.7926 87.5428 23.7926 85.6718 23.7926C83.8008 24.1271 81.9298 24.1271 80.3261 24.4616C29.0075 31.1513 -22.5784 31.4858 -74.1643 28.4754C-102.496 25.7996 -131.363 23.1237 -160.23 19.1099C-160.497 19.4444 -160.497 19.4444 -160.764 19.4444C-166.912 26.4685 -172.258 38.5099 -171.99 48.8789C-171.723 59.2478 -166.912 66.6065 -161.834 73.9651C-137.778 74.9685 -113.455 75.972 -89.3995 76.3064C-55.989 76.9754 -22.3111 74.2996 11.0994 72.6271C45.0446 70.9547 78.7224 71.2892 112.668 72.6271C146.88 73.9651 181.092 75.303 215.305 74.2996C248.983 73.2961 282.66 69.2823 316.338 65.9375C373.804 59.9168 431.538 58.5789 489.004 50.2168C515.198 46.5375 541.125 39.8478 567.586 36.8375C599.927 33.1582 632.803 36.1685 665.679 37.8409C677.974 38.5099 690.804 37.5064 702.831 35.834C708.712 34.8306 710.048 27.1375 710.583 21.1168C710.583 19.1099 709.514 16.7685 707.91 16.0995C703.099 14.0926 698.288 13.4237 693.477 13.7582C682.518 14.4271 671.827 12.0857 660.868 11.4168C652.849 11.0823 645.098 10.4133 637.08 10.7478C635.209 10.7478 627.19 12.4202 621.844 12.4202C634.407 0.0443649 650.444 -8.98668 664.343 -17.6832C674.232 -24.0384 684.389 -30.3936 695.348 -35.4108Z" fill="#AA5D3F"/>
<path d="M588.167 21.1172C586.296 14.0931 589.77 9.07583 592.978 4.05859C584.157 7.40342 575.07 9.74481 565.715 11.7517C566.784 13.0896 567.586 14.0931 568.12 15.7655C569.189 18.1069 568.388 21.7862 567.586 24.1276C566.517 28.1413 564.111 32.8241 562.775 37.5069C564.111 37.1724 565.715 37.1724 567.051 36.8379C576.139 35.8345 585.494 35.1655 594.581 35.1655C592.176 30.8172 589.503 26.4689 588.167 21.1172Z" fill="#995336"/>
<path d="M352.956 -19.3556C335.048 -1.96245 313.665 6.06514 291.214 10.4134C283.195 12.0858 275.176 13.0893 266.891 14.0927C258.872 15.4307 250.586 16.4341 242.568 17.4376C235.886 18.1065 229.204 19.7789 222.521 20.4479C216.107 21.1169 209.424 21.7858 203.01 22.1203C189.645 22.7893 176.014 22.7893 162.382 22.4548C157.304 22.4548 152.226 22.1203 147.147 22.1203C128.972 23.1238 110.529 23.7927 92.6212 23.1238C90.7502 23.1238 88.6119 23.1238 86.7409 23.1238C84.8699 23.4582 82.9989 23.4582 81.3952 23.7927C30.0766 30.4824 -21.5093 30.8169 -73.0952 27.8065C-102.496 25.7996 -131.363 23.1238 -160.23 19.11C-160.497 19.4445 -160.497 19.4445 -160.764 19.4445C-163.437 22.4548 -165.843 26.1341 -167.714 30.4824C-164.506 30.8169 -161.299 31.1514 -158.359 31.4858C-119.603 35.4996 -80.5791 35.4996 -41.5556 38.1755C-30.597 37.5065 -19.6383 37.5065 -8.67963 37.5065C10.8321 37.5065 30.6112 38.1755 50.123 37.5065C69.902 36.8376 89.4138 36.1686 109.193 35.4996C148.751 34.1617 188.309 32.4893 227.6 28.81C247.646 26.8031 267.158 23.1238 287.204 19.11C303.509 15.7651 321.417 15.7651 336.117 5.0617C352.154 -6.6452 364.182 -25.0418 375.141 -43.1038C376.477 -45.1107 377.546 -47.1176 378.883 -48.79C370.597 -38.7556 362.044 -28.3866 352.956 -19.3556Z" fill="#995336"/>
<path d="M476.174 20.7824C460.672 20.1134 444.902 18.441 429.4 16.0996C421.916 15.0962 414.432 14.0927 406.68 13.7582C403.473 13.4237 400.266 13.4237 396.791 13.7582C393.851 13.7582 392.247 12.7548 391.178 11.0824C387.169 12.0858 383.159 12.4203 378.883 12.4203C369.261 12.4203 359.638 10.0789 350.283 11.4168C340.661 12.7548 332.108 17.4375 323.02 20.7824C315.804 23.1237 308.32 24.4617 301.37 27.472C310.993 28.141 320.348 24.1272 329.702 22.1203C339.859 20.1134 350.818 19.7789 360.975 19.4444C371.666 19.11 382.358 19.7789 393.049 21.7858C403.473 23.7927 413.897 26.803 424.321 29.1444C433.409 31.1513 442.497 32.4893 451.852 31.8203C460.405 31.1513 468.958 29.4789 477.778 28.4755C494.617 26.4686 511.723 24.4617 528.562 21.7858C542.194 19.4444 555.825 16.0996 568.922 11.4168C566.784 11.7513 564.646 12.4203 562.507 12.7548C533.908 18.1065 505.576 22.1203 476.174 20.7824Z" fill="#995336"/>
<path opacity="0.4" d="M538.452 -76.5522C532.839 -77.5557 526.958 -78.5591 521.345 -79.2281C505.843 -81.235 488.469 -86.2522 473.234 -83.9108C440.893 -79.2281 419.243 -48.4557 402.404 -24.0384C395.722 -14.3384 390.109 -2.63152 380.219 4.05813C376.745 6.39951 372.735 7.40297 368.726 7.73745C376.477 9.74435 384.229 10.4133 391.713 10.4133C396.791 2.72021 402.137 -4.63841 407.482 -12.3315C424.321 -35.4108 445.437 -66.1833 471.096 -73.2074C495.419 -79.5626 522.415 -74.5453 547.272 -68.8591C548.341 -68.5246 549.41 -68.5246 550.212 -68.1901C546.47 -71.2005 542.728 -74.2108 538.452 -76.5522Z" fill="#5F4323"/>
<path opacity="0.4" d="M655.522 -21.6963C636.011 -11.3274 618.904 3.0554 599.393 13.7589C608.748 13.7589 617.301 11.083 625.854 8.07264C637.614 -2.29633 651.78 -10.3239 664.075 -18.017C674.232 -24.3722 684.656 -30.7274 695.348 -35.7446C702.03 -38.7549 709.246 -40.7618 714.325 -46.7825C715.661 -48.4549 716.463 -51.1308 715.661 -53.1377C707.643 -49.4584 700.426 -44.1067 692.942 -40.4274C680.38 -33.7377 667.817 -28.0515 655.522 -21.6963Z" fill="#5F4323"/>
<path opacity="0.4" d="M534.175 21.1172C521.078 21.1172 509.852 26.4689 496.488 25.131C483.124 23.793 470.829 23.1241 457.464 22.7896C445.169 22.7896 433.142 22.1206 420.847 21.7862C409.353 21.4517 398.662 28.1413 387.436 29.1448C386.901 29.1448 384.496 31.1517 385.832 31.4862C393.584 33.1586 401.869 32.4896 409.353 31.1516C420.312 29.4792 433.676 32.4896 444.902 32.8241C475.907 33.493 503.437 24.7965 533.373 22.1206C533.908 22.4551 535.244 21.1172 534.175 21.1172Z" fill="#5F4323"/>
<g opacity="0.4">
<path opacity="0.4" d="M337.454 7.06919C354.025 7.40368 370.864 11.083 387.436 12.0864C371.399 7.73816 355.362 3.72436 338.523 3.0554C328.099 2.72091 317.675 5.73126 308.052 8.07264C300.034 10.0795 290.412 15.0968 281.324 16.7692C300.568 17.4382 317.675 7.06919 337.454 7.06919Z" fill="#68361D"/>
</g>
<path opacity="0.5" d="M345.205 7.06895C350.551 7.06895 355.896 6.73447 361.242 7.06895C364.717 7.40343 368.191 8.40688 371.666 9.07584C376.21 9.7448 380.754 10.0793 385.298 10.0793C387.436 10.0793 389.574 10.0793 391.98 10.0793C397.058 2.3862 402.404 -4.97242 407.75 -12.331C424.589 -35.4104 445.704 -66.1828 471.363 -73.2069C495.686 -79.5621 522.682 -74.5448 547.539 -68.8586C548.609 -68.5241 549.678 -68.5241 550.479 -68.1897C534.442 -79.8966 517.069 -89.2621 498.894 -96.2862C491.142 -95.9517 483.391 -95.6172 475.64 -95.9517C471.631 -96.2862 467.354 -94.9483 463.612 -94.6138C449.713 -92.9414 460.137 -101.303 466.018 -105.986C458.266 -107.659 450.515 -108.997 442.497 -110C428.865 -97.9586 415.501 -85.5828 402.137 -72.8724C402.404 -72.8724 402.404 -73.2069 402.671 -73.2069C409.353 -76.2172 417.906 -80.5655 424.856 -76.2173C425.123 -76.2173 425.123 -75.5483 425.123 -75.2138C423.787 -70.531 421.916 -66.1828 419.51 -62.169C410.957 -47.4517 399.197 -36.0793 389.574 -22.3655C384.763 -15.3414 379.952 -8.31725 373.537 -3.6345C367.122 1.04826 359.638 2.72067 352.422 4.0586C346.809 5.06205 341.196 5.73102 335.583 6.39998C339.325 7.06895 342.799 7.06895 345.205 7.06895Z" fill="#995336"/>
<path opacity="0.5" d="M695.348 -35.4106C702.03 -38.4209 709.247 -40.4278 714.325 -46.4485C716.463 -48.7899 716.998 -54.1416 713.256 -54.8106C704.97 -56.483 696.417 -50.1278 689.2 -46.4485C676.103 -39.7588 662.739 -34.4071 649.909 -27.7175C640.287 -22.7002 630.932 -16.6795 621.577 -10.9933C621.845 -10.6588 622.112 -10.3243 621.577 -9.98986C606.342 5.06187 587.365 14.0929 568.655 19.7791C547.807 26.4688 526.424 30.1481 505.041 32.4895C482.322 35.1653 459.603 36.8378 436.884 40.1826C408.017 44.5309 379.15 49.5481 350.016 52.5584C313.398 56.2377 276.513 55.5688 239.628 56.2377C202.475 56.5722 165.323 56.9067 128.17 57.2412C54.9342 57.5757 -18.3018 57.2412 -91.5377 60.2515C-116.93 61.255 -142.856 63.2619 -168.516 63.2619C-166.645 67.2757 -164.239 70.6205 -161.834 74.2998C-137.778 75.3033 -113.455 76.3067 -89.3994 76.6412C-55.9889 77.3102 -22.311 74.6343 11.0995 72.9619C45.0446 71.2895 78.7225 71.624 112.668 72.9619C146.88 74.2998 181.092 75.6377 215.305 74.6343C248.983 73.6308 282.661 69.6171 316.338 66.2722C373.805 60.2515 431.538 58.9136 489.004 50.5515C515.198 46.8722 541.125 40.1826 567.586 37.1722C599.927 33.4929 632.803 36.5033 665.679 38.1757C677.974 38.8447 690.804 37.8412 702.832 36.1688C708.712 35.1653 710.048 27.4722 710.583 21.4515C710.583 19.4446 709.514 17.1033 707.91 16.4343C703.099 14.4274 698.288 13.7584 693.477 14.0929C682.518 14.7619 671.827 12.4205 660.868 11.7515C652.85 11.4171 645.098 10.7481 637.08 11.0826C635.209 11.0826 627.19 12.755 621.845 12.755C634.407 0.379116 650.444 -8.65193 664.343 -17.3485C674.232 -24.0381 684.389 -30.3933 695.348 -35.4106Z" fill="#995336"/>
<path opacity="0.4" d="M7.71291 60.7684C-3.20867 58.9759 -14.3093 56.9594 -25.2309 55.167C-25.2309 55.6151 -25.4099 56.2873 -25.4099 56.7354C-14.4883 58.5278 -3.56675 60.3203 7.35482 61.4406C7.53387 61.4406 7.89195 60.7684 7.71291 60.7684Z" fill="#5F4323"/>
<path opacity="0.4" d="M108.156 71.747C102.784 70.4027 97.4131 70.6267 91.8628 70.1786C85.9544 69.9546 80.046 69.2824 73.9585 68.6102C68.0502 68.1621 61.9627 69.0583 55.8753 69.2824C50.1459 69.5064 44.2375 69.7305 38.5082 69.5064C32.5998 69.2824 26.8704 69.5064 20.962 69.7305C14.8746 70.1786 8.96621 69.2824 3.05781 68.8343C-5.53622 68.1621 -14.3093 68.8343 -22.9033 68.1621C-22.7243 68.6102 -22.5452 68.8343 -22.3662 69.2824C-14.8464 69.9546 -7.1476 69.7305 0.55122 70.6267C6.45961 71.2989 12.368 72.4192 18.2764 72.1951C24.1848 71.9711 29.9142 71.5229 35.8225 71.747C47.6393 72.1951 59.2771 71.2989 71.0939 70.8508C77.0023 70.6267 83.2687 70.8508 89.1771 71.747C95.2646 72.6432 101.352 71.0748 107.618 72.1951C107.977 72.4192 108.514 71.747 108.156 71.747Z" fill="#5F4323"/>
<path opacity="0.4" d="M229.188 66.1455C218.087 64.129 206.808 63.0087 195.528 61.4404C183.89 59.872 172.074 60.7682 160.436 60.5441C154.348 60.3201 148.082 60.7682 141.995 60.5441C135.191 60.3201 128.566 59.1998 121.763 58.5276C108.872 57.1833 96.1597 55.6149 83.2686 54.4946C70.9147 53.3743 58.5608 52.4781 46.2069 51.8059C40.2985 51.5819 34.3901 51.1338 28.4817 51.1338C22.2152 51.1338 15.9487 50.4616 9.68225 50.2376C-1.23933 49.7894 -12.3399 48.8932 -23.2615 47.7729C-23.6196 48.6692 -23.7987 49.5654 -24.1567 50.2376C-11.9819 51.3578 0.372053 52.03 12.5469 53.1503C24.7218 54.2706 37.0757 54.0465 49.2506 54.7187C61.6045 55.3908 74.1375 56.2871 86.4914 57.4073C99.3824 58.5276 112.273 60.096 125.165 61.2163C131.431 61.8885 137.518 62.5606 143.785 62.7847C150.409 63.0087 156.855 62.1125 163.48 62.7847C168.314 63.2328 173.148 62.5606 178.161 62.3366C184.248 62.3366 190.157 62.3366 196.065 63.2328C206.987 64.8012 217.729 65.4734 228.651 66.8177C229.009 67.0417 229.546 66.1455 229.188 66.1455Z" fill="#5F4323"/>
<path opacity="0.4" d="M335.539 63.2329C326.05 63.457 316.382 65.4735 306.892 65.2494C297.224 65.0253 287.377 66.8178 277.709 67.9381C272.337 68.3862 267.145 70.6267 261.595 70.8508C256.582 71.0749 251.747 71.523 246.734 71.523C237.424 71.523 227.04 72.8673 218.087 69.7305C217.908 69.7305 217.729 69.9546 217.908 70.1786C226.502 73.7635 236.708 73.0914 245.839 73.5395C255.507 73.7635 264.459 72.8673 273.949 70.6268C278.604 69.5065 283.617 69.5065 288.272 68.8343C294.18 68.1621 300.089 67.0419 305.997 67.0419C315.845 66.8178 325.513 64.5772 335.36 63.457C335.539 63.681 335.718 63.2329 335.539 63.2329Z" fill="#5F4323"/>
<path opacity="0.4" d="M356.129 48.4448C352.369 46.8765 348.251 46.4284 344.312 45.7562C338.941 44.86 333.57 43.7397 328.198 43.5156C323.543 43.2916 318.888 43.2916 314.233 43.0675C310.115 42.8435 305.281 44.1878 301.163 44.86C291.495 46.6524 282.005 44.86 272.337 47.5486C267.503 48.893 262.311 49.117 257.477 50.0132C255.865 50.4614 254.075 50.9095 252.642 51.5816C250.852 52.4779 248.704 52.7019 247.092 53.8222C246.734 54.0462 246.197 54.7184 246.376 55.3906C246.913 56.959 248.883 57.183 250.136 57.6311C253.359 59.1995 256.76 60.3198 259.983 61.216C267.324 63.0085 275.202 63.4566 282.722 63.0085C276.992 64.3528 271.263 65.249 265.354 65.025C254.433 64.5769 242.974 63.2325 232.411 59.6476C230.262 58.9755 228.114 58.3033 226.144 57.4071C221.847 55.6146 229.546 52.926 230.978 52.7019C236.171 51.5816 241.363 49.5651 246.555 49.3411C251.21 49.117 256.223 47.9967 261.057 47.3246C266.429 46.4283 271.621 45.7562 276.992 44.4119C282.543 42.8435 287.914 41.4991 293.643 41.051C298.477 40.827 303.132 40.827 307.967 39.9307C313.159 39.0345 318.172 37.9142 323.364 38.5864C325.871 38.8105 328.556 39.0345 331.063 39.4826C333.032 39.7067 334.465 40.3789 336.434 39.4826C336.613 39.4826 336.792 38.8105 336.613 39.0345C334.286 39.9307 332.316 39.0345 330.168 38.5864C327.661 38.1383 325.155 37.9142 322.648 37.4661C317.993 36.794 313.159 37.6902 308.504 38.5864C302.953 39.7067 297.224 38.8105 291.674 39.2586C286.123 39.7067 280.573 41.2751 275.202 42.8435C263.922 45.7562 251.747 44.4118 240.647 48.4448C235.633 50.2373 225.07 49.117 223.28 57.4071C223.28 57.6311 223.28 57.8552 223.459 57.8552C234.917 62.5604 247.271 64.3528 259.088 66.1452C271.8 67.9377 283.617 65.9212 296.15 62.3363C308.325 58.9755 320.858 57.8552 333.212 56.2868C338.046 55.6146 343.954 56.7349 348.609 54.4944C350.758 53.3741 355.592 51.8057 357.024 49.117C356.308 49.3411 356.487 48.6689 356.129 48.4448ZM342.88 53.8222C338.046 53.8222 333.391 54.4944 328.735 54.9425C318.172 56.2868 307.788 57.8552 297.403 59.8717C296.687 60.0958 295.792 60.0957 295.076 60.3198C297.403 59.4236 299.731 58.3033 302.058 57.4071C304.207 56.5108 309.22 56.2868 309.399 52.2538C309.399 52.0297 309.399 52.0298 309.22 52.0298C306.176 50.2373 302.595 50.4614 299.193 50.0132C295.076 49.3411 290.779 49.5651 286.661 49.117C278.783 48.2208 270.905 49.5651 263.922 53.8222C263.743 54.0462 262.848 55.1665 263.385 55.3906C268.04 57.4071 272.516 58.5273 277.35 58.5273C281.289 58.5273 284.512 59.1995 288.093 57.183C288.451 56.959 289.346 55.6146 288.988 55.1665C287.198 53.5981 284.87 53.5981 282.901 53.5981C282.184 53.5981 281.289 55.6146 281.826 55.6146C283.259 55.6146 284.87 55.6146 286.302 56.2868C283.259 57.183 280.036 56.7349 276.992 56.7349C273.053 56.7349 269.293 55.8387 265.534 54.2703C268.935 52.4779 272.337 51.8057 276.097 51.1335C280.752 50.4614 285.049 51.3576 289.704 51.3576C294.18 51.3576 298.298 52.0297 302.774 52.2538C303.491 52.2538 304.207 52.2538 304.923 52.4779C304.923 52.4779 307.967 53.5981 307.429 53.8222C306.355 54.2703 304.923 54.4944 303.849 54.9425C294.18 59.8717 284.691 61.6641 274.128 61.4401C269.114 61.216 264.28 60.5439 259.446 59.4236C257.298 58.7514 254.97 58.0792 252.822 57.183C252.284 56.959 249.778 56.0627 248.345 55.1665C249.42 54.9425 250.315 54.9425 251.389 54.2703C253.538 52.926 256.223 52.4779 258.372 52.0298C262.848 51.1335 267.503 50.9095 271.979 49.5651C276.813 48.2208 281.647 47.3246 286.661 47.3246C290.958 47.3246 295.255 47.7727 299.373 46.8765C303.849 45.9802 309.041 44.6359 313.517 44.86C318.172 45.084 322.648 45.3081 327.303 45.5321C332.137 45.7562 337.15 46.6524 341.985 47.5486C345.924 48.2208 350.221 48.6689 354.159 50.2373C353.443 50.4614 352.369 50.9095 352.011 51.1335C348.967 52.926 346.103 53.8222 342.88 53.8222Z" fill="#5F4323"/>
<path opacity="0.4" d="M226.681 45.5324C222.743 46.6527 218.446 46.4287 214.507 47.3249C209.314 48.2211 204.122 48.4452 198.93 49.3414C187.65 51.3579 176.192 54.9428 164.733 52.9263C159.362 52.03 153.811 52.4782 148.44 52.2541C142.532 52.03 136.623 51.806 130.894 51.806C119.077 51.806 107.439 51.806 95.8015 50.4617C95.6225 50.4617 95.4435 50.9098 95.6225 50.9098C107.081 52.4782 118.719 53.1503 130.178 53.5984C135.907 53.8225 141.636 54.2706 147.366 54.7187C153.274 55.1668 159.183 55.1668 164.912 56.2871C175.475 58.3036 186.218 54.2706 196.602 52.2541C201.974 51.3579 207.345 50.4617 212.716 49.7895C215.76 49.3414 218.625 48.2211 221.489 47.997C223.28 47.997 224.891 47.5489 226.681 46.6527C226.681 46.2046 227.04 45.3084 226.681 45.5324Z" fill="#5F4323"/>
<path opacity="0.4" d="M35.8225 48.2209C32.0626 47.3247 28.1237 46.4285 24.3638 45.9804C20.4249 45.3082 16.486 43.5158 12.368 43.7398C4.66916 43.9639 -2.85062 43.0677 -10.5494 43.0677C-13.9512 43.0677 -17.353 42.8436 -20.7548 42.3955C-21.1129 43.0677 -21.471 43.5158 -21.8291 44.188C-18.4273 44.6361 -15.0255 45.0842 -11.6237 45.0842C-4.462 45.3082 2.87873 45.9804 10.0404 45.7563C18.4554 45.5323 26.8704 48.2209 35.2854 48.8931C35.6435 48.6691 36.0016 48.2209 35.8225 48.2209Z" fill="#5F4323"/>
<path opacity="0.4" d="M480.564 47.5489C465.882 46.8767 451.559 47.7729 437.056 50.4616C433.834 51.1337 430.432 51.5819 427.209 52.254C423.449 52.9262 420.047 54.7186 416.288 55.1667C408.947 56.5111 401.427 59.4238 394.086 59.8719L393.907 60.096C399.995 59.8719 405.903 57.8554 411.991 57.1832C419.331 56.287 426.493 54.0465 433.834 52.9262C441.353 51.8059 448.873 50.6856 456.393 49.3413C464.45 47.997 472.507 47.997 480.564 47.7729C480.385 47.997 480.743 47.5489 480.564 47.5489Z" fill="#5F4323"/>
<path opacity="0.4" d="M523.355 43.292C514.761 42.6198 505.988 41.4995 497.394 41.4995C489.695 41.4995 482.175 43.0679 474.476 43.0679C474.297 43.0679 473.939 43.7401 474.118 43.7401C481.638 44.6363 488.8 43.9641 496.14 43.9641C500.437 43.9641 505.092 42.8438 509.389 43.7401C513.687 44.6363 518.342 44.4122 522.639 44.4122C523.176 44.1882 523.534 43.292 523.355 43.292Z" fill="#5F4323"/>
<path d="M-35.3015 29.0001C-15.2808 29.3056 7.03659 30.1429 34.2468 28.0001C51.5821 26.6349 74.2171 25.4999 86.2082 23.0001C91.5933 21.8775 101.812 22.9828 112.589 23.0002C125.809 23.0214 150.56 22.5001 150.56 22.5001C162.59 22.6628 180.954 23.2343 197.725 22.5001C215.317 21.7301 231.156 19.6234 236.097 18.5C242.723 16.9932 263.335 15.7852 282.862 12.5C302.588 9.18131 321.215 3.77157 324.831 -0.5" stroke="#6B2D1F" stroke-width="4"/>
<path d="M399.176 0L391.182 11C391.848 12 393.9 14 396.777 14C400.375 14 426.641 14.643 430.353 16.5C432.351 17.5 453.977 20.0178 474.32 20.5C492.24 20.9248 508.932 20 509.494 20C510.693 20 539.604 19.1938 562.654 12.5C585.038 6 597.428 4 606.622 -1.5" stroke="#6B2D1F" stroke-width="4"/>
<path d="M-34.9023 75.9998C-12.3857 73.9998 34.7259 70.3998 43.0398 71.9998C47.3715 72.8334 60.5921 71.8103 80.2122 71.9998C107.663 72.2649 147.641 73.625 193.328 74.4997C225.865 75.1227 247.221 73.2481 261.677 72C282.028 70.243 288.705 68.7325 293.654 68.4997C298.967 68.2498 324.406 65.1954 356.007 62.5C383.985 60.1137 416.793 58.2362 444.741 55.5C465.318 53.4855 483.262 50.6867 494.704 49.4998C513.35 47.5658 529.239 42.9183 543.068 40.5C565.261 36.6192 581.922 35.6161 591.033 35C605.822 34 665.777 38.4998 671.773 38.4998C675.018 38.4998 683.976 38.3363 692.158 37.5C697.423 36.9618 703.4 36.4578 705.748 34.5C710.544 30.5001 710.677 23.8332 710.544 20.9999C710.677 18.4999 708.146 13.5999 696.954 13.9999C685.762 14.3999 665.378 12.3333 656.584 11C645.659 11.1667 623.489 11.3 622.21 12.5C620.611 14 636.199 -0.999973 637.798 -0.499973" stroke="#6B2D1F" stroke-width="4"/>
</svg>
