<svg width="172" height="47" viewBox="0 0 172 47" fill="none" xmlns="http://www.w3.org/2000/svg">
<g clip-path="url(#clip0)">
<path d="M93.4639 27.4186C86.7684 25.5138 78.2738 25.5017 70.8276 26.2054C67.2304 26.6705 63.5773 26.3605 60.1052 25.2955C58.9138 24.9436 58.8066 24.3855 56.531 24.3855C54.8512 24.3855 53.1833 25.5988 51.5987 25.3197C48.1675 24.7131 46.7379 20.4669 43.9024 19.4842C40.3282 18.2709 39.0177 21.9106 35.9439 23.0389C33.9203 23.5892 31.9917 24.4525 30.2253 25.5988C28.8109 26.5334 27.2639 27.2413 25.6385 27.6976L26.3771 27.6248C28.0637 27.2592 29.7896 27.1165 31.512 27.2002C33.5969 27.552 35.1934 29.105 37.8263 29.5539C39.8395 29.7424 41.8654 29.7424 43.8786 29.5539C47 29.4083 50.0618 29.3719 53.2309 29.5539C64.3346 30.1362 76.7012 28.5226 87.8763 29.105C90.8071 29.2505 93.7816 29.38 96.7998 29.4932L96.7998 27.9039C95.6715 27.8956 94.5494 27.7324 93.4639 27.4186Z" fill="#EDEDDD"/>
<path d="M170.082 29.6268C168.497 26.6908 164.613 27.9041 162.207 26.6908C161.23 22.9663 156.107 23.7185 153.283 24.8467C152.402 24.7497 151.901 23.9368 151.389 23.3545C149.542 22.7964 148.899 25.4534 147.124 25.1137C146.609 24.6013 146.281 23.925 146.195 23.1968C146.589 21.947 147.34 20.8449 148.351 20.0303C149.09 17.5068 146.85 16.1844 145.265 14.9105C145.265 14.401 145.706 13.8793 145.42 13.3333C144.706 12.9369 144.031 12.4696 143.407 11.9381C142.499 12.4239 141.479 12.6531 140.455 12.6019C139.43 12.5507 138.438 12.2209 137.581 11.6469C137.367 10.2275 139.189 10.4337 139.654 9.45103C137.807 5.43528 132.506 3.05737 128.395 5.70219C127.923 6.57259 127.234 7.30102 126.397 7.81426C125.561 8.3275 124.606 8.60747 123.63 8.62604C122.605 7.78892 121.021 6.87901 119.722 7.5948C119.138 9.07493 117.625 10.1062 117.006 11.6106C117.161 12.29 117.84 12.8238 117.673 13.5881C117.22 14.8013 115.755 14.3039 114.873 14.7285C114.504 18.1862 110.298 19.7755 107.058 18.7443C106.105 17.7252 106.569 16.1965 104.949 15.6748C104.723 15.2138 104.878 14.6193 104.472 14.2432C102.9 13.673 100.779 12.666 99.135 13.4425C98.6704 14.0006 99.2899 14.6557 99.2304 15.2017C97.0382 16.0631 95.2631 19.6056 92.4037 17.434C91.9748 16.7425 92.6182 15.8083 92.0344 15.0925C91.1409 13.6851 89.4134 14.862 88.2339 14.0976C87.3404 13.1635 86.84 11.6712 85.458 11.3315C83.1079 12.0312 80.6377 12.2091 78.2144 11.8532C77.1898 12.4962 76.4034 13.6124 75.1406 13.7943C74.1398 13.0057 72.6149 12.3021 71.4354 13.1635C69.9581 14.777 72.6268 18.0163 69.6126 18.5501C68.6356 16.8031 66.515 16.6939 65.1449 15.1653C64.9781 14.4009 65.2164 13.309 64.3228 12.9208C63.3825 12.8057 62.4296 12.9743 61.5824 13.4056C60.7353 13.837 60.0311 14.5121 59.5573 15.3473C59.4143 17.2277 62.8217 18.6593 61.0108 20.4792C60.2006 20.6733 59.8194 19.7148 59.2475 19.3994C55.5066 19.727 51.9563 18.259 48.6085 16.8274C48.1319 15.5171 49.1089 14.2311 49.2637 12.9208C48.6681 11.6105 46.9525 10.9069 47.8103 9.28117C46.6441 9.06772 45.5332 8.61356 44.5459 7.94663C43.9621 6.80621 45.4275 6.24813 45.3679 5.36248C44.3314 4.84079 43.6642 3.70037 42.5682 3.36067C40.6739 3.28788 38.2792 4.57389 36.7661 2.81472C36.4206 1.86841 36.1228 0.740121 35.0982 0.315495C31.524 0.242702 28.6766 3.95515 27.9499 7.13377C29.6536 8.2742 31.2381 9.56021 31.0713 11.9866C31.5836 12.5447 32.4295 12.4234 32.9775 12.8966C33.1959 13.3314 33.2698 13.8267 33.1882 14.308C33.1065 14.7892 32.8738 15.2306 32.5248 15.5656C31.0475 16.1965 28.8792 16.4391 28.069 17.9921C28.1405 18.7928 29.0817 19.4115 28.9864 20.2365C27.9499 20.5277 26.6036 19.7027 25.7339 20.7097C25.6029 21.2556 25.4718 21.8016 25.3408 22.3718C22.3385 28.1588 12.9742 23.6699 7.85127 25.3806C7.13644 25.6232 5.92123 25.8173 5.79017 26.9699C11.0799 26.9699 18.6571 28.268 25.5195 27.6978C27.1863 27.2532 28.7743 26.545 30.2254 25.5989C32.0256 24.4243 33.9955 23.5442 36.0632 22.9905C39.137 21.8744 40.4118 18.1376 44.0217 19.4358C46.8572 20.4064 48.2868 24.6648 51.718 25.2714C53.3025 25.5504 54.9705 24.3251 56.6503 24.3372C58.902 24.3372 59.0331 24.8953 60.2245 25.2471C63.6965 26.3121 67.3496 26.6221 70.9469 26.157C78.3454 25.5019 86.84 25.514 93.5832 27.3702C94.6911 27.6947 95.8377 27.8621 96.9906 27.8677C98.9444 27.8677 100.624 27.3702 102.947 27.1155C106.522 26.7272 109.703 28.5228 112.645 25.6475C112.645 25.15 112.3 25.2592 112.3 24.8346C114.429 24.1507 116.656 23.835 118.888 23.9004C118.698 30.5246 127.228 28.4257 130.218 26.0964C125.679 23.4637 130.218 23.0633 132.053 23.2574C134.428 23.7816 136.732 24.5963 138.915 25.6839C138.475 26.1934 138.117 27.2004 137.795 27.5401C140.107 29.275 142.728 28.0011 145.373 27.989C147.612 27.989 148.947 28.0739 151.187 27.989C154.308 27.8434 154.832 26.7758 157.882 27.6372C159.53 28.2718 161.124 29.0428 162.648 29.9423C164.935 29.9423 167.187 29.8695 169.415 29.8209C169.646 29.7935 169.871 29.728 170.082 29.6268Z" fill="#FFFFF3"/>
<path d="M25.7219 42.1472C23.6815 43.1743 21.398 43.5948 19.1336 43.3604C19.1336 42.4383 18.5141 41.6376 18.5141 40.752C15.7739 42.6688 11.7708 44.1247 9.26894 46.1265C20.7181 46.0294 32.2388 46.2842 43.688 46.1265C40.1138 46.2478 38.2553 43.5545 35.1934 42.9115C32.3818 42.3049 28.8195 43.4696 25.8411 43.3118C25.7219 42.9721 25.8172 42.596 25.7219 42.1472Z" fill="#EDEDDD"/>
<path d="M43.688 46.2113C46.7856 46.2113 49.8832 46.1507 52.9689 46.0415C53.1228 46.0432 53.2751 46.0104 53.4151 45.9454C53.5551 45.8804 53.6794 45.7848 53.7791 45.6654C52.2898 43.6757 49.1922 44.3309 47.3575 42.7051C45.4155 42.7051 42.9732 43.0934 41.4006 41.8923C41.1742 40.6063 43.688 41.1037 43.4974 39.6721C40.7215 37.549 37.1473 38.0343 34.2285 39.2111C33.3468 38.5802 33.7281 37.3063 32.8822 36.6633C30.4994 35.0255 29.6774 38.01 28.1167 38.9442C27.3909 38.9445 26.6861 38.6967 26.1151 38.2405C26.7466 36.263 24.2923 36.4935 23.9111 34.9042C24.0407 34.4061 24.0113 33.879 23.8271 33.3991C23.6429 32.9193 23.3134 32.5116 22.8865 32.2351C20.0748 32.3807 15.8216 31.0825 14.0107 33.8365C14.2411 34.4988 14.5706 35.1209 14.9876 35.6806C12.9742 37.0516 15.345 39.1625 14.4038 40.8489C11.4135 41.3706 7.93463 39.7085 5.25401 42.1713C4.71789 44.3551 2.1326 44.8404 1.39394 46.3084C4.01499 46.2356 6.65985 46.1871 9.2928 46.1628C11.7947 44.161 15.7978 42.7051 18.5379 40.7883C18.5379 41.6739 19.1694 42.4746 19.1575 43.3967C21.4219 43.6311 23.7054 43.2106 25.7458 42.1835C25.8411 42.6324 25.7458 43.0084 25.8649 43.3967C28.8434 43.5544 32.4056 42.3897 35.2173 42.9963C38.2792 43.6393 40.102 46.3327 43.7119 46.2113L43.688 46.2113Z" fill="#FFFFF3"/>
<path d="M96.8118 29.5054C118.078 30.3304 141.191 30.2819 162.576 29.93C161.052 29.0306 159.458 28.2596 157.811 27.6249C154.761 26.7636 154.236 27.8312 151.115 27.9768C148.863 28.0738 147.541 27.9768 145.301 27.9768C142.656 27.9768 140.035 29.2628 137.724 27.5279C138.046 27.1882 138.403 26.1812 138.844 25.6717C136.661 24.5841 134.357 23.7694 131.981 23.2452C130.171 23.0511 125.608 23.4515 130.147 26.0841C127.216 28.4135 118.626 30.5124 118.817 23.8882C116.585 23.8228 114.358 24.1385 112.228 24.8224C112.228 25.247 112.598 25.1378 112.574 25.6353C109.631 28.5106 106.438 26.715 102.876 27.1032C100.493 27.358 98.8372 27.8554 96.919 27.8554L96.8118 29.5054Z" fill="#EDEDDD"/>
<path fill-rule="evenodd" clip-rule="evenodd" d="M92.8683 17.1305C92.8683 16.5846 92.8683 14.874 92.1654 14.2916C90.974 13.588 89.878 14.2067 88.6747 13.8185C88.0662 12.5324 87.0958 11.4597 85.8868 10.7369C84.3857 10.8825 82.9679 11.6347 81.2285 11.6832C80.3019 11.5367 79.3664 11.4556 78.4288 11.4406C77.0706 11.7317 76.7847 13.042 75.6409 13.3453C74.3542 12.763 73.2582 11.7439 71.4592 12.3869C69.2194 13.9155 71.9476 16.6331 70.0533 18.0769C69.0883 18.0769 69.2432 16.8636 68.6594 16.4269C67.0153 16.6695 66.8128 15.4563 65.6333 15.2137C65.7071 14.6976 65.6616 14.171 65.5002 13.6761C65.3389 13.1811 65.0663 12.7313 64.704 12.3626C61.4396 11.9622 60.1291 13.5758 58.8901 15.2137C59.2117 17.2519 61.2728 17.4945 61.2728 19.9573C60.3078 20.6853 59.9266 18.8048 58.8901 18.7441C54.1245 19.5448 52.7544 16.9243 49.1088 16.6089C49.5973 13.9762 50.3002 11.6832 47.9174 10.6884C48.0723 10.0454 48.942 9.47515 48.3821 8.78361C47.1567 8.59448 45.9745 8.1836 44.8913 7.5704C44.5577 6.19946 45.8683 6.50277 46.0827 5.66565C45.1892 4.88919 44.3314 3.23921 42.8302 2.82672C41.3291 2.41423 39.6016 3.50612 38.1719 3.05723C36.4563 2.53555 36.8852 0.703592 35.3722 -0.0122064C33.5613 -0.351907 32.358 0.594402 31.1904 1.63777C30.9402 1.86828 30.3207 2.026 30.2611 2.11092C30.2016 2.19585 30.416 2.88738 30.2611 3.05723C29.2246 4.18552 27.0325 4.82853 27.4614 7.09724C27.5958 7.61901 27.9111 8.07359 28.3492 8.3769C28.7872 8.68022 29.3183 8.81177 29.8441 8.74722C30.4756 9.88764 30.5352 11.0402 31.0355 11.8288C31.107 12.9449 32.6916 12.5325 33.1324 13.2604C33.5255 16.0144 29.1889 15.1894 28.0094 17.5188C27.8545 18.7926 28.7004 19.0353 28.9506 19.9452C27.89 19.5931 26.7469 19.5931 25.6862 19.9452C25.0864 21.6027 24.2031 23.1389 23.0771 24.4826C19.5982 26.3389 11.5088 23.9124 7.72017 24.9558C6.85045 25.1863 5.12295 25.89 5.3374 27.091C6.32625 28.1465 7.94653 27.2852 9.06643 27.3216C9.77434 27.4348 10.4746 27.5928 11.1633 27.7947C16.243 28.602 21.4018 28.7609 26.5202 28.2679C28.0537 27.9531 29.6142 27.7946 31.1785 27.7947C33.3587 28.0374 35.3603 29.6145 37.4571 29.93C39.5498 30.1182 41.6548 30.1182 43.7476 29.93C51.3486 29.5781 60.427 30.6822 69.3504 30.1726C76.6367 29.7842 83.9379 29.7842 91.2242 30.1726C103.138 30.7307 117.435 30.8156 129.622 30.6458C138.117 30.5245 148.113 30.3789 156.858 30.6458C160.146 30.7428 163.625 30.7914 166.865 30.6458C168.626 30.7268 170.382 30.399 172 29.6873C171.821 28.923 171.142 28.6682 170.141 28.741C168.283 27.1153 165.185 27.0547 162.683 26.6058C161.992 25.6231 161.79 24.3007 160.36 23.7669C158.263 22.9783 155.261 23.6577 153.379 24.24C152.187 24.3735 152.426 23.0268 151.52 22.8205C149.245 22.4808 149.137 24.3492 147.565 24.7132C145.265 23.1966 148.149 20.9886 149.185 19.9816C148.828 18.9989 148.959 17.5552 148.494 16.6574C147.535 16.0151 146.522 15.4589 145.468 14.9953C145.68 14.3891 145.761 13.7436 145.706 13.1027C144.682 12.8722 144.348 11.8895 143.323 11.6832C141.536 12.5931 139.892 12.1078 137.974 11.4406C138.332 10.3972 139.999 10.6641 140.297 9.54795C140.714 8.04356 138.975 7.61894 137.736 6.70902C136.497 5.79911 135.758 4.34325 134.019 4.10061C132.279 3.85796 130.445 4.93773 128.431 5.04691C127.994 5.87642 127.37 6.58834 126.609 7.12408C125.849 7.65983 124.975 8.00407 124.059 8.12848C122.843 7.4241 121.487 7.00931 120.091 6.91527C118.9 8.41966 117.709 9.81485 116.601 11.4163C116.422 12.5446 117.435 12.4718 117.304 13.5516C116.827 14.4129 114.814 13.7093 114.277 14.4979C113.694 15.0802 114.766 15.0074 114.516 15.9173C113.639 17.0167 112.467 17.8318 111.142 18.2628C109.817 18.6938 108.398 18.7219 107.058 18.3438C106.676 17.9434 106.879 16.9486 106.831 16.2085C105.044 16.3662 105.39 14.3644 104.508 13.6001C102.59 13.4909 101.494 12.5567 99.3852 12.6538C99.0278 13.0056 98.1938 14.1096 98.9206 14.789C97.2526 15.0196 95.9183 18.9625 92.8683 17.1305ZM31.4168 2.19585C31.8754 1.60091 32.4911 1.15141 33.1916 0.900006C33.8922 0.648606 34.6486 0.605724 35.3722 0.776384C36.5636 1.91681 36.0751 3.6881 37.9336 4.33111C39.3156 4.80426 40.7096 4.07633 42.5919 3.85796C43.509 4.39501 44.3676 5.02941 45.1534 5.75057C44.3433 6.04174 44.1646 6.96379 43.962 7.88583C44.3565 8.44297 44.8842 8.88814 45.4952 9.17905C46.1062 9.46996 46.7801 9.59695 47.4528 9.54794C46.0946 11.2828 48.537 11.6711 48.8586 13.1027C48.2406 14.3521 47.9183 15.7315 47.9174 17.1305C48.2115 17.4615 48.5896 17.7034 49.01 17.8297C49.4303 17.956 49.8768 17.9617 50.3002 17.8463C52.3017 19.1687 55.3278 20.7338 58.4493 19.4963C59.9147 19.5812 59.7479 21.3404 61.7017 20.9279C62.6787 18.6349 60.9154 17.3853 60.0695 16.1842C60.4221 15.3047 61.0348 14.5588 61.8226 14.0501C62.6104 13.5413 63.5342 13.295 64.4657 13.3453C64.8589 13.7335 64.6564 14.7284 64.704 15.4684C66.0384 16.0144 66.4554 17.4824 68.4331 17.3732C68.5522 18.3195 68.5998 19.0474 69.827 19.0232C72.3408 19.0232 71.2328 15.2743 71.9238 13.3453C73.7943 12.9328 74.1398 14.0732 75.4146 14.2916C76.8561 14.0611 77.2135 12.4718 78.9053 12.1564C80.8711 11.7803 83.5279 13.0663 85.6485 11.9137C87.0544 13.5758 88.4483 15.2258 91.7008 14.9953C92.3322 15.614 91.5816 17.264 91.939 17.6037C93.1007 18.3984 94.5068 18.7348 95.8944 18.55C97.3717 17.7008 97.7053 15.6626 99.8498 15.4684C100.314 14.9225 99.2899 14.4615 99.3852 13.5758C101.387 13.4302 102.638 14.0611 104.27 14.2916C104.675 15.2986 104.699 16.7181 106.128 16.7181C106.037 17.1785 106.052 17.6545 106.174 18.1076C106.297 18.5607 106.522 18.9782 106.831 19.3265C109.139 19.8611 111.56 19.5022 113.622 18.3195C113.622 16.6331 116.208 16.8515 115.254 14.9953C116.803 15.0681 117.995 14.7769 118.281 13.5758C118.566 12.3747 117.816 12.1564 117.59 11.4406C118.781 10.7612 119.174 7.9829 120.604 7.65533C122.033 7.32776 122.522 8.57737 123.868 9.30531C126.072 8.71083 128.074 7.89797 128.753 5.75058C132.327 4.53736 135.961 4.53736 137.366 7.65533C138.296 7.89797 139.154 8.20128 139.225 9.30531C138.177 9.89978 137.069 10.4215 136.902 11.9137C138.284 13.1269 141.751 13.588 143.18 12.1564C143.919 12.5082 144.372 13.2119 145.277 13.3696C143.752 16.5361 148.613 15.9295 147.839 19.7632C146.135 20.8915 144.813 24.2764 147.148 25.6837C149.054 25.7444 149.102 23.8882 150.865 23.7911C151.913 24.4463 152.187 25.3683 153.426 25.4532C154.189 25.4532 154.999 24.7132 155.988 24.5069C157.977 24.0823 160.539 24.4341 161.337 25.4532C161.194 26.8969 162.814 27.4429 164.137 28.0616C165.829 26.9333 168.271 28.3771 169.486 29.2749C161.849 30.0756 153.7 29.4811 146.218 29.748C145.301 29.748 144.384 30.209 143.419 30.2333C141.179 30.2333 138.868 29.2991 136.437 29.2748C123.332 29.1414 107.725 29.9785 94.0835 28.8017C80.0848 27.5885 65.7643 29.5782 52.8855 29.0443C51.3963 28.9837 50.3121 28.9837 48.9301 29.0443C45.356 29.2142 41.2219 29.7723 37.9813 29.2748C36.3968 29.0322 35.1577 27.7462 33.5613 27.1517C31.1785 26.2661 28.617 26.8363 25.6505 27.1517C18.8715 27.8675 11.3539 26.6543 6.33815 26.4359C12.2951 23.9003 25.6624 28.923 26.5917 20.7459C27.5329 20.6003 29.0697 21.0614 29.6178 20.5154C29.9871 19.7026 28.5217 19.0232 28.4264 17.907C29.9411 17.1795 31.4966 16.5435 33.0847 16.0022C33.3929 15.5611 33.5954 15.0527 33.676 14.5176C33.7567 13.9825 33.7133 13.4356 33.5493 12.9207C33.0251 12.2777 31.8219 12.3141 31.1666 11.7075C31.6908 10.6277 31.1666 9.39022 30.9283 8.38325C30.2653 7.79697 29.4233 7.46259 28.5455 7.43694C28.0332 5.43514 30.5232 3.43333 31.4168 2.19585Z" fill="#BABAAE"/>
<path fill-rule="evenodd" clip-rule="evenodd" d="M127.311 11.6833C127.192 12.5932 127.907 12.6539 128.014 13.3454C126.525 13.3454 123.582 12.023 123.594 14.9954C124.535 14.9954 124.333 13.6972 124.988 13.3454C126.001 13.5638 127.371 14.413 128.479 13.8185C128.622 12.7873 128.074 12.484 127.776 11.9138C130.838 12.1079 132.541 12.2899 134.531 13.5759C134.638 14.3281 133.816 14.1097 134.066 14.9954C135.111 15.0784 136.134 15.3409 137.092 15.7718C137.155 16.204 137.124 16.6447 137.002 17.0636C136.881 17.4825 136.672 17.8696 136.39 18.1983C138.308 18.1983 137.581 14.0612 134.996 14.6435C134.364 14.4251 135.615 14.2068 135.222 13.4303C132.897 11.8494 130.07 11.2251 127.311 11.6833Z" fill="#BABAAE"/>
<path fill-rule="evenodd" clip-rule="evenodd" d="M14.4276 35.3775C14.106 36.0812 13.2363 36.2753 13.2363 37.2823C13.4626 38.6047 14.797 39.0778 14.1774 40.5943C10.9726 40.8855 8.08949 39.0657 5.09912 41.3101C4.34854 43.8579 2.21596 45.0105 -0.0238355 46.0417C1.62027 47.5825 4.3962 46.5148 6.49303 46.527C9.43575 46.527 12.4499 46.3693 15.7977 46.527C20.0986 46.7211 24.5901 46.988 29.0697 47.0001C37.9336 47.0001 46.6307 46.3814 55.1372 46.2843C54.2794 43.13 49.1207 44.3553 47.2264 42.2565C45.2845 42.8145 43.5093 42.1837 41.6388 42.0138C42.2226 40.8734 44.2599 41.2131 44.4267 39.5874C43.8071 38.6168 40.6023 37.4642 38.8391 37.4521C37.3644 37.6287 35.9411 38.1118 34.6573 38.8716C33.7042 38.4227 33.9187 36.7848 33.2634 36.0327C32.3456 35.8205 31.4034 35.7388 30.4637 35.79C29.2723 36.3481 29.2723 38.0951 28.0809 38.6411C27.235 38.7988 27.1874 38.1315 26.4487 38.1679C25.9245 37.9859 26.3534 36.8334 26.2223 36.2632C25.7165 35.9915 25.1606 35.8304 24.5901 35.79C24.3399 34.8316 24.5901 34.6738 24.5901 33.4242C24.1493 33.3636 23.7323 30.9978 22.2074 31.289C18.4545 31.9684 11.1633 31.3982 14.4276 35.3775ZM47.2502 42.9722C48.4416 44.3311 52.1349 44.4645 52.8378 45.5685C46.3805 45.3016 39.9828 45.9446 33.2872 46.0417C30.4756 46.0417 28.1881 45.4593 25.8292 45.338C17.7159 44.9013 9.70976 46.7332 1.63219 45.8112C3.94347 45.5564 4.61064 43.6274 5.81393 42.2565C7.32492 41.9002 8.80664 41.4256 10.2459 40.837C11.8185 41.5649 14.0107 42.2079 14.8923 40.5943C15.2497 39.9513 14.4634 38.7745 14.6659 37.2823C14.6659 36.3481 15.7977 36.5422 15.8573 35.6202C15.2854 35.0257 14.4515 34.686 14.237 33.7275C15.4284 31.8834 20.873 32.3566 23.0771 33.0117C23.0771 35.2805 24.054 36.6514 25.8649 37.0396C26.0674 37.8889 25.3526 38.1922 25.8649 38.7017C26.6036 38.9808 27.4256 39.1749 28.2477 39.4054C29.4391 38.7988 29.7727 37.3308 30.8092 36.5665C31.4644 36.6999 32.0005 36.9183 32.6677 37.0396C33.3468 38.2528 33.0966 39.3083 34.2999 39.648C35.5032 39.9877 37.4928 38.1315 39.6492 38.4348C41.2576 38.6896 41.2695 39.648 42.9136 40.0969C42.3179 40.6793 40.8883 40.4124 40.5308 41.3101C41.472 43.4575 44.522 43.1057 47.2502 42.9722Z" fill="#BABAAE"/>
</g>
<defs>
<clipPath id="clip0">
<rect width="172" height="47" fill="white" transform="matrix(-1 -8.74228e-08 -8.74228e-08 1 172 0)"/>
</clipPath>
</defs>
</svg>
