<svg width="204" height="67" viewBox="0 0 204 67" fill="none" xmlns="http://www.w3.org/2000/svg">
<g clip-path="url(#clip0)">
<path d="M116.837 30.9325C122.429 34.0222 130.593 32.7602 137.033 34.1672V34.2397C130.421 34.2397 123.73 34.2035 117.146 34.392C110.175 35.052 103.225 34.1019 96.2325 34.4356C92.9912 34.5879 90.4039 33.9061 87.8095 33.6668C84.3885 33.3549 81.2406 35.0085 77.8269 34.4356C71.5958 34.6169 64.603 35.2261 58.4222 34.7112C57.6988 34.6165 56.9649 34.7697 56.338 35.1463C54.5844 35.5597 52.7949 35.1463 50.9982 35.1971C50.5885 35.1971 50.8185 34.6096 50.4376 34.5951C48.4756 34.5951 45.9674 34.3268 44.4078 34.5153C40.4478 34.9868 36.3872 34.3485 32.1901 34.4356C29.7681 34.4863 27.2886 34.2687 24.881 34.363C21.3666 34.5153 18.4128 35.1463 14.9128 34.5806C14.1413 34.4637 13.3639 34.391 12.5842 34.363C14.0935 33.2389 15.883 31.8391 17.6151 32.0349C17.6869 32.2888 17.6151 32.5136 17.6941 32.7602C20.2598 33.0648 22.5884 32.3033 25.1541 32.5934C27.3102 32.8327 31.6223 33.3186 29.38 29.7939C31.0977 28.191 34.8852 29.54 32.8153 25.493C34.763 24.9491 33.534 23.6218 34.1162 22.9981C35.1798 21.7724 36.8113 21.5476 38.9386 21.6709C39.7148 23.1214 41.8133 22.4397 42.762 21.3228C43.6365 21.7837 44.3902 22.4473 44.9612 23.2592C44.5607 23.5088 44.2412 23.871 44.042 24.3014C43.8428 24.7318 43.7726 25.2115 43.84 25.6816C42.6758 25.4713 41.3102 25.4858 41.1737 26.813C40.9868 28.6479 42.8626 28.046 43.8903 28.4304C45.1337 28.8945 45.9745 30.3451 47.1963 29.0033C47.3915 28.8032 47.5348 28.5575 47.6132 28.2881C47.6917 28.0187 47.703 27.7339 47.6461 27.459C47.5892 27.1841 47.4659 26.9277 47.2871 26.7125C47.1083 26.4973 46.8796 26.33 46.6214 26.2255C46.7579 24.4849 48.6193 23.8467 49.9776 24.8983C47.9653 26.8783 50.646 28.2055 52.4427 27.1176C52.9046 27.4988 53.3089 27.9459 53.643 28.4449C52.2703 29.8954 54.3617 31.1791 55.799 30.1782C56.1368 33.9496 61.2898 32.354 60.1112 29.8519C61.0899 29.7536 62.0783 29.8472 63.0219 30.1275C62.8494 30.5699 63.0219 30.9615 62.7631 31.4402C65.4007 34.1309 71.7252 31.7231 74.9377 31.9406C76.2457 32.0204 77.3957 32.6659 78.1215 31.433C78.9911 29.9824 77.4747 29.9824 77.3525 28.7205C77.1657 26.7767 78.8546 25.0941 81.1113 25.1377C80.8571 24.3145 80.5199 23.5198 80.1051 22.766C81.3628 22.2366 82.9799 21.7579 84.137 22.708C84.9563 23.397 84.5682 26.5157 85.1862 27.3787C86.1709 28.7422 87.4357 28.6117 88.9737 28.7205C89.6924 28.7712 90.4111 28.104 91.0795 28.5101C91.9204 29.0033 91.4892 29.9607 91.9419 30.3596C94.8167 32.7892 97.9933 30.9615 101.184 31.0848C101.903 31.1211 102.823 31.8826 103.276 31.9189C104.354 31.9842 104.821 31.2661 105.719 31.1936C106.618 31.1211 108.515 31.578 109.428 30.6062C109.988 32.0567 111.462 32.2598 112.748 32.4628C112.856 31.9334 113.467 31.3894 113.596 30.8818C114.262 31.3556 114.97 31.7682 115.709 32.1147C115.953 31.7231 116.6 31.4402 116.837 30.9325Z" fill="#EDEDDD"/>
<path d="M40.9077 55.6933C43.4105 56.1974 45.8637 56.9255 48.2384 57.8691C47.2681 57.8691 46.3482 57.8691 45.5505 57.8691C36.3225 57.8111 28.5606 58.1519 20.1376 58.0141C17.9672 58.0214 15.8111 57.8546 13.655 57.7095C14.4785 57.6756 15.2957 57.5491 16.0914 57.3324C16.5945 57.1366 17.2772 56.9263 17.6509 56.7885C17.8737 56.7014 18.0318 55.8456 18.5206 55.6933C20.4251 55.1276 21.9631 56.1865 24.2054 55.4612C25.6428 57.5862 29.4303 55.3887 26.922 52.756C28.2525 52.6653 29.5875 52.6653 30.9179 52.756C28.8841 55.0188 32.7794 56.288 33.419 54.105C34.5761 53.8294 35.7404 55.2944 36.8903 55.7006C37.8892 56.0632 39.7794 55.4757 40.9077 55.6933Z" fill="#EDEDDD"/>
<path d="M121.171 28.706C122.011 28.3308 122.927 28.1618 123.844 28.2128C124.348 28.7133 124.779 29.5256 125.598 29.6634C126.259 29.366 127.273 29.1049 127.431 28.2128C129.048 27.3933 131.887 27.5818 133.094 29.0686C133.13 29.3515 133.051 29.6416 133.094 29.9244C133.813 30.4902 134.251 31.4838 135.121 31.8391C135.672 31.8674 136.219 31.7285 136.692 31.4402C137.165 31.152 137.541 30.7277 137.773 30.2218C139.035 30.1822 140.296 30.3263 141.517 30.6497C142.092 31.0196 142.379 31.8029 143.048 32.0277C143.864 31.9901 144.677 32.1588 145.413 32.5185C146.148 32.8782 146.783 33.4175 147.259 34.0875C143.889 34.2035 140.475 34.2398 137.032 34.2543V34.1818C130.564 32.7747 122.429 34.0367 116.837 30.9471C116.6 31.4548 115.953 31.7376 115.702 32.18C114.962 31.8335 114.255 31.4209 113.589 30.9471C113.452 31.4548 112.87 31.9987 112.741 32.5281C111.454 32.3251 109.981 32.1438 109.42 30.6715C108.508 31.6433 106.711 31.2154 105.712 31.2589C104.713 31.3025 104.346 32.0277 103.268 31.9842C102.816 31.9842 101.924 31.1864 101.177 31.1501C97.986 30.9978 94.8454 32.8255 91.9347 30.4249C91.4819 30.0405 91.9347 29.0686 91.0722 28.5755C90.3536 28.1693 89.6349 28.8365 88.9665 28.7858C87.4285 28.677 86.1636 28.7858 85.179 27.444C84.5609 26.581 84.949 23.4623 84.1297 22.7733C82.987 21.8232 81.3556 22.3019 80.0979 22.8314C80.5126 23.5851 80.8498 24.3798 81.104 25.203C78.8473 25.1522 77.1584 26.8421 77.3453 28.7858C77.4675 30.0405 78.9839 30.0187 78.1143 31.4983C77.3956 32.7167 76.2385 32.0857 74.9305 32.006C71.7179 31.7884 65.3935 34.1818 62.7559 31.5055C63.0362 31.0268 62.8421 30.6352 63.0146 30.1928C62.071 29.9125 61.0827 29.8189 60.1039 29.9172C61.2754 32.4121 56.1224 34.0149 55.7918 30.2436C54.3544 31.2444 52.2774 29.939 53.6357 28.5102C53.3156 27.9901 52.9208 27.5209 52.4642 27.1177C50.6675 28.2056 47.9868 26.8783 49.9991 24.8984C48.6408 23.8467 46.7794 24.485 46.6429 26.2256C46.9011 26.3301 47.1298 26.4974 47.3086 26.7126C47.4874 26.9278 47.6107 27.1842 47.6676 27.4591C47.7245 27.7339 47.7132 28.0188 47.6347 28.2882C47.5563 28.5576 47.413 28.8033 47.2178 29.0034C45.996 30.3451 45.1552 28.8946 43.9118 28.4304C42.8841 28.046 41.0371 28.648 41.1952 26.8131C41.3317 25.4858 42.6973 25.4713 43.8615 25.6816C43.8006 25.2101 43.8776 24.7309 44.0832 24.3031C44.2888 23.8752 44.614 23.5174 45.0186 23.2738C44.4476 22.4619 43.6939 21.7982 42.8194 21.3373C41.8779 22.4542 39.7722 23.165 38.996 21.6854C36.8399 21.5331 35.2373 21.787 34.1736 23.0127C33.6274 23.6364 34.8204 24.9636 32.8728 25.5076C34.9426 29.5546 31.1551 28.2056 29.4374 29.8084C31.6222 33.3622 27.3676 32.8473 25.19 32.6369C22.6243 32.3468 20.2957 33.1084 17.73 32.8037C17.6653 32.5427 17.73 32.3178 17.6509 32.0785C15.9189 31.8827 14.1293 33.2824 12.6201 34.4066C8.62418 34.2253 4.31205 35.0448 0.301758 34.6097C0.977326 32.927 3.05434 33.7974 4.45578 33.4057C5.74224 33.0431 6.31 31.9552 7.56052 31.6071C9.08414 31.52 10.5934 32.7747 12.0523 31.8827C12.2536 31.5708 12.3111 31.1574 12.6632 30.9253C12.9579 30.5192 13.5328 30.7367 13.8562 30.4176C13.9155 30.03 14.0533 29.659 14.2611 29.3276C14.4689 28.9962 14.7423 28.7117 15.0641 28.4918C15.3858 28.272 15.7491 28.1215 16.1311 28.0497C16.5132 27.978 16.9058 27.9866 17.2844 28.075C18.1324 28.3289 17.8522 29.4168 18.4559 29.8737C19.6489 30.2943 21.0359 30.1565 21.6684 28.9308C22.4733 28.8293 23.2711 29.4023 24.1551 29.2209C25.2978 28.2563 24.8738 26.6317 24.9816 25.2973C24.3132 24.63 23.1776 25.1812 22.5452 24.485C22.5452 23.5856 21.3594 23.1142 21.4097 22.1569C22.0493 20.9964 23.5226 21.5331 24.2844 22.1569C24.4155 22.1426 24.5423 22.1019 24.6575 22.0372C24.7726 21.9726 24.8738 21.8852 24.9549 21.7804C25.036 21.6756 25.0954 21.5554 25.1296 21.4269C25.1638 21.2985 25.1721 21.1644 25.154 21.0327C23.5945 20.3945 23.1848 18.0664 21.2587 18.3057C20.001 17.0945 20.4035 15.3031 21.3162 13.9541C20.7341 12.946 19.2464 13.7365 18.5637 12.8807C18.7936 12.1554 18.2618 11.2634 18.7649 10.5816C19.1674 10.0957 19.9507 10.5816 20.2885 10.0522C20.3676 9.4357 19.6129 8.78297 20.152 8.24627C21.4169 8.8845 22.6243 7.67331 23.9251 7.57903C24.5647 7.6588 25.1397 8.13748 25.8224 7.99243C27.0154 6.86827 28.4313 6.6942 29.883 6.2808C30.5227 5.70784 30.2496 4.87379 30.6017 4.19204C31.5144 3.24194 33.0309 4.43138 33.8789 3.66259C33.0596 2.1758 34.4395 1.24746 35.2157 0.297363C36.7896 0.36989 37.7311 1.66086 39.2475 1.9147C40.0668 2.05251 40.9437 1.53757 41.6767 1.71888C42.9775 2.038 42.6469 3.32172 43.7681 3.95995C44.8461 3.74963 45.9242 4.34434 46.7866 4.84478C47.2681 4.84478 47.419 4.26456 47.6131 3.92369C48.7414 3.69886 50.7538 4.32984 50.955 5.75861C50.3729 6.99156 50.4016 8.7467 51.7743 9.48647C53.5567 9.08033 55.8996 9.79109 56.3955 11.7856C57.0639 12.6124 58.1491 12.4746 58.9684 12.8662C58.5444 14.7737 60.0033 16.6448 62.1162 15.9051C62.5546 15.7673 62.3965 15.1363 62.7559 14.9405C63.0849 14.9569 63.4063 15.046 63.6974 15.2016C64.1645 15.9631 64.8616 16.5361 65.2641 17.3266C65.2641 18.3347 64.028 18.4435 63.8267 19.3211C64.0361 19.8192 64.2761 20.3037 64.5454 20.7716C65.8247 20.6483 66.874 21.3446 68.0454 21.6419C69.2528 21.301 69.7847 19.9666 70.7549 19.3138C71.1717 19.2195 71.4736 19.6112 71.8401 19.6619C72.7816 19.2703 72.76 17.5369 72.2929 16.7609C72.2354 16.2822 72.8606 16.1009 72.8175 15.6295C72.2354 14.9985 71.2292 14.7809 70.7405 14.0701C71.1502 13.1926 72.2929 13.0765 72.9397 12.5036C72.6738 11.8218 71.682 11.5027 71.6892 10.6469C73.2382 10.4169 74.703 9.79014 75.9438 8.82648C77.5249 8.99329 79.9397 8.31154 80.4931 10.4293C80.45 11.1546 79.6595 11.8798 80.1697 12.5543C80.795 12.5979 81.3915 12.9025 82.0024 12.888C82.783 12.2696 83.6843 11.8248 84.6472 11.5825C85.6174 12.0249 85.7971 13.3086 86.7529 13.7583C87.8885 13.7583 89.4696 13.8236 89.9152 15.0928C89.4911 15.76 88.5568 16.0429 88.37 16.8769C88.4921 18.5378 90.2242 20.4017 91.9131 19.5677C92.1503 19.031 91.9131 18.3565 92.3084 17.856C92.9207 17.4232 93.621 17.1335 94.3582 17.008C95.0954 16.8826 95.8511 16.9245 96.5702 17.1308C97.1524 18.0301 97.6986 19.4371 98.8485 19.5894C98.791 18.2404 100.394 18.4362 100.631 17.2686C102.233 16.5433 103.577 17.9938 103.843 19.4444C104.684 20.2639 106.352 20.612 106.395 22.0118C105.748 22.8386 105.676 23.7815 105.281 24.7388C106.474 26.8058 108.874 25.7034 110.75 26.3271C111.785 26.668 112.238 27.5673 113.409 27.6326C115.795 25.7179 118.713 27.241 120.783 28.8365C120.909 28.7838 121.039 28.7402 121.171 28.706Z" fill="#FFFFF3"/>
<path d="M188.225 64.367C186.68 64.5193 184.631 63.7506 183.596 65.3026C183.545 65.7006 183.368 66.0716 183.093 66.3615C177.876 66.7822 172.579 66.7314 167.282 66.6661C167.181 66.6619 167.081 66.6398 166.988 66.6009C167.093 66.2618 167.278 65.9534 167.527 65.7015C168.375 65.571 169.172 65.3099 170.042 65.2374C171.336 65.1141 172.371 65.5565 173.542 65.5057C175.202 65.4259 175.928 65.5057 176.949 63.9391C176.323 63.6055 175.914 62.902 175.396 62.5611C176.834 62.5611 178.178 62.2565 179.586 62.242C179.549 62.2336 179.515 62.2124 179.492 62.182C179.468 62.1516 179.456 62.1138 179.457 62.0752C179.791 62.2015 180.109 62.3671 180.405 62.5684C179.644 63.1776 179.787 63.6998 179.464 64.3743C181.62 64.9618 183.144 62.5901 185.343 62.4959C187.686 62.3943 190.043 63.2646 192.357 63.562L192.228 63.707C190.949 64.3018 189.439 63.591 188.225 64.367Z" fill="#EDEDDD"/>
<path d="M155.402 40.2306C157.005 40.6513 157.752 41.1734 159.714 41.0574C161.87 40.9269 162.496 40.731 164.781 41.7827C163.064 42.7835 160.541 41.964 158.91 42.8561C155.855 44.5169 161.418 44.5822 162.898 44.5097C165.133 44.3936 173.722 45.6048 174.347 43.458C175.36 43.7191 176.589 44.4661 177.509 44.0165C178.537 44.3646 179.45 43.8497 180.492 43.9512C181.972 44.0963 182.31 45.0101 183.69 45.2639C184.409 45.4017 186.155 44.4226 187.283 44.4952C188.62 44.5822 189.806 45.2204 191.028 45.6266C191.053 45.8587 191.119 46.0845 191.222 46.2938C189.267 46.2938 187.298 46.2938 185.357 46.2938C178.889 46.4389 172.363 46.6129 165.953 46.5694C162.604 46.5694 159.197 46.0037 155.826 46.0762C153.088 46.1343 150.415 46.4896 147.698 46.4244C144.047 46.3373 140.454 46.3663 136.839 46.5114C135.035 47.7879 132.167 47.3092 130.104 46.6782C128.473 47.6718 125.447 47.9474 123.917 46.6782C113.424 45.6411 102.737 46.9466 92.2942 46.2938C91.8749 46.2379 91.4522 46.2113 91.0293 46.214C92.0642 45.7571 92.9554 45.0536 93.8466 44.7635C94.9848 44.4332 96.1416 44.1717 97.3106 43.9802C97.3106 44.4299 97.6484 44.8143 97.6772 45.2639C98.748 45.2059 100.185 45.8006 101.141 45.5903C102.579 45.2639 102.478 44.5459 104.117 44.4879C106.495 44.4009 108.853 45.0754 111.368 44.72C111.189 44.3501 111.224 43.6103 110.966 43.1679C113.222 42.8125 113.661 44.0092 115.45 44.4879C116.636 44.7998 120.172 44.9883 121.351 44.4444C121.351 44.1253 121.43 43.7554 121.437 43.4363C122.565 43.0084 126.374 44.5749 126.281 43.3928C126.13 41.6014 122.601 42.1235 121.631 41.217C122.91 39.4546 124.032 40.2233 125.656 39.8752C127 39.5851 128.171 38.6858 129.443 38.5407C129.975 39.9913 129.637 42.1671 132.146 40.9776C132.943 41.906 134.1 40.9776 134.122 39.6867C135.466 40.4119 137.27 40.76 137.169 38.7656C138.7 38.3159 139.778 37.1337 141.603 37.9968C141.187 39.9695 143.041 40.1726 144.478 40.3902C144.349 40.3902 144.284 40.5135 144.277 40.673C147.066 43.1752 152.024 39.3313 155.402 40.2306Z" fill="#EDEDDD"/>
<path d="M50.1862 56.1065C51.7026 56.3748 53.7796 56.1065 54.7714 57.499C52.6046 57.7725 50.4222 57.9009 48.2385 57.8834C45.8639 56.9398 43.4106 56.2116 40.9079 55.7076C39.7796 55.49 37.8894 56.0775 36.8689 55.7076C35.719 55.3014 34.5547 53.8364 33.3976 54.112C32.758 56.2878 28.8627 55.0258 30.8966 52.763C29.5661 52.6723 28.2311 52.6723 26.9007 52.763C29.4089 55.3957 25.6501 57.5933 24.184 55.4682C21.9417 56.1935 20.4037 55.1346 18.4992 55.7003C18.0105 55.8526 17.8523 56.7084 17.6296 56.7955C17.2558 56.9333 16.5731 57.1436 16.07 57.3394C15.2743 57.5561 14.4571 57.6826 13.6336 57.7166C11.7076 57.586 9.81021 57.441 7.92725 57.3612C8.64594 54.9605 12.0669 53.8944 14.0936 55.5915C14.5854 55.6794 15.0922 55.5921 15.5274 55.3448C15.9626 55.0974 16.2992 54.7053 16.4797 54.2353C17.4765 54.1825 18.4457 53.8864 19.3041 53.3722C19.5844 53.0313 18.9591 52.7775 19.0957 52.4004C19.5385 51.9365 20.0752 51.5745 20.6694 51.3392C21.2635 51.1039 21.901 51.0007 22.5382 51.0369C22.9055 51.5064 23.299 51.9543 23.7169 52.3786C24.3349 52.5092 25.2692 52.3786 25.4489 51.6533C25.4058 51.1457 24.8308 50.9281 24.608 50.4929C25.2333 48.7668 27.26 46.7143 29.0783 47.2147C30.3863 47.5774 30.8031 49.1222 32.2405 49.5573C33.3899 49.3626 34.5668 49.4096 35.6974 49.6951C36.2149 51.0369 37.6594 51.5663 38.5722 52.5962C39.4418 52.1175 40.4336 52.705 41.296 52.7993C42.2662 52.4076 41.9428 51.0804 42.5393 50.3769C43.9767 50.4276 45.5722 50.609 46.7221 51.6026C47.1461 52.8935 46.7221 54.3586 46.9736 55.6133C47.987 55.5553 49.2806 55.1201 50.1862 56.1065Z" fill="#FFFFF3"/>
<path d="M167.527 65.7019C168.633 64.5995 170.818 64.701 171.839 63.3883C171.12 62.4092 169.446 62.7211 168.691 61.7129C170.315 60.7411 171.055 58.7539 172.902 58.6668C174.153 58.6016 175.181 59.7475 176.618 59.3268C177.02 58.834 177.534 58.4453 178.115 58.193C178.696 57.9407 179.329 57.8322 179.96 57.8763C180.679 58.6668 181.908 58.6016 182.705 59.1673C182.892 59.3994 182.669 59.762 182.957 59.9433C183.478 60.0217 184.01 59.9634 184.502 59.7741C184.994 59.5849 185.43 59.271 185.767 58.8627C188.074 59.3776 190.23 60.5888 192.659 61.0385C192.844 61.4423 192.914 61.8899 192.862 62.3315C192.81 62.7732 192.638 63.1917 192.365 63.5406C190.05 63.2433 187.693 62.3729 185.35 62.4745C183.151 62.5688 181.649 64.9404 179.471 64.3529C179.795 63.6784 179.651 63.1562 180.413 62.547C180.117 62.3457 179.798 62.1801 179.464 62.0538C179.463 62.0924 179.476 62.1302 179.499 62.1606C179.523 62.191 179.556 62.2122 179.593 62.2206C178.156 62.2206 176.812 62.5543 175.403 62.5398C175.921 62.8806 176.331 63.5841 176.956 63.9178C175.935 65.5133 175.209 65.3683 173.549 65.4843C172.378 65.5351 171.343 65.0927 170.049 65.216C169.172 65.3103 168.375 65.5714 167.527 65.7019Z" fill="#FFFFF3"/>
<path d="M198.222 44.8212C199.846 45.0025 201.937 44.3135 202.8 45.9091C198.942 46.3072 195.062 46.4453 191.186 46.3225C191.083 46.1132 191.017 45.8874 190.992 45.6552C189.77 45.2854 188.584 44.6109 187.247 44.5238C186.148 44.4513 184.43 45.4304 183.654 45.2926C182.274 45.0388 181.936 44.1249 180.456 43.9799C179.414 43.8783 178.501 44.3933 177.473 44.0451C177.335 43.928 177.169 43.8482 176.992 43.8131C177.143 43.9094 177.304 43.9873 177.473 44.0451C176.553 44.4948 175.317 43.7478 174.311 43.4867C173.686 45.6625 165.097 44.4223 162.862 44.5383C161.382 44.6109 155.819 44.5383 158.874 42.8847C160.505 41.9926 163.028 42.8122 164.745 41.8113C162.46 40.7307 161.835 40.9265 159.678 41.0861C157.724 41.2021 156.976 40.6799 155.366 40.2593C151.989 39.3599 147.03 43.2038 144.248 40.7379C144.248 40.5784 144.32 40.4768 144.449 40.4551H144.6C144.787 40.4551 144.787 40.4551 144.6 40.4551H144.457C142.976 40.2303 141.136 40.0344 141.582 38.0617C139.756 37.1986 138.707 38.3808 137.148 38.8305C137.248 40.825 135.444 40.4551 134.1 39.7516C134.1 41.0498 132.922 41.9709 132.124 41.0425C129.616 42.2392 129.968 40.0272 129.422 38.6057C128.15 38.7507 126.978 39.65 125.634 39.9401C124.01 40.2883 122.889 39.5195 121.61 41.2819C122.58 42.1885 126.109 41.6663 126.259 43.4577C126.353 44.6399 122.544 43.0733 121.415 43.5012C121.415 43.8203 121.336 44.2265 121.329 44.5093C120.151 45.0533 116.615 44.8647 115.429 44.5528C113.639 44.0742 113.201 42.8775 110.944 43.2329C111.203 43.6753 111.167 44.415 111.347 44.7849C108.831 45.1403 106.474 44.4658 104.095 44.5528C102.456 44.6109 102.579 45.3289 101.12 45.6552C100.164 45.8656 98.7265 45.2708 97.6556 45.3289C97.6556 44.8792 97.325 44.4948 97.2891 44.0451C96.12 44.2366 94.9632 44.4981 93.825 44.8284C92.9338 45.133 92.0426 45.8366 91.0077 46.279C89.4575 46.357 87.9034 46.2914 86.365 46.0831C86.9184 44.9952 88.3773 44.6979 89.3619 44.0234C90.2531 44.27 92.6895 43.7405 91.0868 42.6962C90.9101 42.4977 90.8172 42.2374 90.8281 41.9709C91.4964 41.2456 92.3157 40.5204 92.402 39.3817C92.6849 38.9787 93.0651 38.6553 93.5066 38.442C93.948 38.2288 94.4361 38.1329 94.9246 38.1632C95.9379 39.0263 94.3353 40.854 96.1248 41.5212C97.6412 41.0498 98.8774 41.7751 100.264 42.1014C100.753 41.7388 100.983 41.0063 101.702 40.9048C102.417 41.5769 103.362 41.9456 104.339 41.9346C104.511 41.6094 104.77 41.3395 105.086 41.1561C105.403 40.9726 105.764 40.883 106.129 40.8975C107.25 39.3382 109.5 37.4742 110.822 40.0199C111.986 40.7452 113.28 40.5856 114.574 40.7452C114.818 40.9265 115.105 41.0425 115.343 41.2456C115.951 41.3658 116.582 41.2535 117.114 40.9305C117.645 40.6076 118.038 40.0969 118.217 39.4977C117.283 38.4534 115.141 39.7516 114.38 38.2648C115.098 37.0173 116.37 35.7699 117.125 34.4281C123.708 34.2396 130.399 34.3048 137.011 34.2758C140.454 34.2758 143.867 34.2251 147.238 34.109C146.754 33.4534 146.117 32.9288 145.383 32.5821C144.65 32.2353 143.843 32.0772 143.034 32.1218C142.365 31.897 142.078 31.1137 141.503 30.7438C140.282 30.4204 139.02 30.2763 137.758 30.3159C137.524 30.8165 137.147 31.2355 136.677 31.5196C136.206 31.8037 135.662 31.9401 135.114 31.9115C134.244 31.5561 133.813 30.5625 133.087 29.9968C133.037 29.7139 133.087 29.4238 133.087 29.1409C131.88 27.6904 129.041 27.4656 127.424 28.2851C127.266 29.1409 126.252 29.402 125.591 29.7357C124.772 29.5761 124.341 28.7638 123.837 28.2851C122.92 28.2341 122.004 28.4031 121.164 28.7783C121.493 28.346 121.766 27.8732 121.976 27.3713H121.919C121.919 26.9506 122.005 26.5372 122.019 26.1238C122.242 25.5871 122.989 25.7395 123.219 25.2173C123.284 24.6225 122.932 24.0133 123.306 23.4476C123.679 22.8819 124.743 23.056 125.074 22.3452C125.189 21.5039 124.355 20.9962 124.168 20.2782C124.793 18.0661 127.582 19.3354 128.998 18.233C129.541 18.3144 130.049 18.5509 130.463 18.9146C130.877 19.2784 131.179 19.754 131.333 20.2855C131.673 20.5034 132.08 20.5883 132.477 20.5242C132.874 20.46 133.234 20.2513 133.489 19.9373C134.56 20.0461 135.538 20.7061 136.637 20.4668C136.744 20.4102 136.838 20.3321 136.913 20.2373C136.989 20.1424 137.044 20.0329 137.076 19.9156C137.184 19.3716 136.781 18.8784 136.91 18.349C138.053 15.593 140.604 18.0807 142.473 17.7253C142.329 18.8639 144.277 19.814 145.032 19.1758C144.737 17.1088 147.295 17.2031 148.625 17.6673C149.006 19.698 150.443 20.0969 151.917 21.2936C152.032 22.0841 151.133 22.2437 150.824 22.8166C150.694 23.2801 150.715 23.7738 150.886 24.2237C151.058 24.6735 151.369 25.0553 151.773 25.3115C153.167 25.0722 154.727 25.8265 155.999 25.065C157.321 25.2318 158.105 24.3397 159.017 24.2817C160.059 24.2817 161.418 25.3913 162.079 25.7322C162.194 25.7596 162.313 25.758 162.427 25.7277C162.542 25.6973 162.646 25.6391 162.733 25.5581C162.733 23.9916 164.731 24.0278 165.809 23.7812C166.032 25.1665 168.332 26.6823 166.621 27.8717C166.542 28.4955 167.34 28.7421 167.469 29.3223C167.469 30.693 165.759 30.519 164.817 30.4609C164.679 30.75 164.601 31.0643 164.588 31.3847C164.574 31.7051 164.625 32.025 164.738 32.3249C166.671 33.449 169.532 31.9622 170.955 33.993C171.005 34.9503 170.157 35.2839 169.438 35.5378C169.165 37.5613 171.666 36.7127 172.579 37.6628C172.744 38.6202 171.76 39.3237 171.824 40.2883L172.227 40.5204C175.102 42.5293 178.573 41.1151 181.757 42.1667C182.23 41.526 182.873 41.033 183.612 40.7444C184.35 40.4557 185.155 40.3831 185.932 40.5349C186.371 40.6727 186.428 41.1441 186.651 41.4995C187.201 41.8298 187.836 41.9882 188.476 41.9546C189.115 41.921 189.731 41.6971 190.244 41.3109C190.395 41.1006 190.467 40.7742 190.755 40.7017C191.251 40.6559 191.749 40.7541 192.192 40.9845C193.026 41.1633 193.808 41.533 194.477 42.0652C195.261 43.1531 193.974 43.7115 194.794 44.7849C195.934 44.6635 197.084 44.6756 198.222 44.8212Z" fill="#FFFFF3"/>
<path fill-rule="evenodd" clip-rule="evenodd" d="M0 34.8631C0 32.8033 2.61603 33.5866 4.35526 33.1587C5.41173 32.8976 6.51133 31.4906 7.43844 31.3165C9.04111 31.0264 10.1982 32.4044 11.65 31.7444C12.1315 31.0192 12.5843 30.2939 13.6192 30.1851C14.0073 28.401 15.2075 27.4436 17.5504 27.6322C18.1469 28.0238 18.3266 28.8361 18.535 29.6194C20.0083 30.1706 21.0792 29.6774 21.6254 28.6258C22.5668 28.5678 22.919 29.1117 24.0114 28.9086C24.9026 28.0963 24.5217 26.8706 24.8523 25.5072C24.3851 25.0357 23.2352 25.2461 22.6028 24.9414C22.2075 24.0059 21.4601 23.3531 21.0648 22.1057C21.2564 21.7956 21.5249 21.5414 21.8439 21.3684C22.1629 21.1954 22.5211 21.1095 22.8831 21.1193C23.6018 21.1556 24.4498 22.461 24.8523 21.4022C24.9385 20.5536 23.9611 20.7929 23.5874 20.4085C23.4652 19.6398 22.7753 19.4367 22.6028 18.7114C21.9416 18.813 21.6397 18.5446 21.0648 18.5664C19.8215 17.0361 19.9939 15.513 21.0648 13.8884C20.2311 13.6418 19.1171 13.6781 18.3913 13.3227C18.2978 12.1695 18.1038 11.495 18.3913 10.4869C18.6229 10.2924 18.8952 10.1534 19.1878 10.0806C19.4803 10.0077 19.7855 10.0028 20.0802 10.0663C19.9796 9.38451 19.4334 8.79704 19.7999 8.07903C20.2239 7.69464 20.6336 8.18057 21.0648 8.22408C22.1931 7.89771 22.7825 7.24497 23.8677 7.23047C24.4714 7.23047 24.9745 7.70189 25.5566 7.65838C26.8071 7.56409 27.4971 5.72917 29.2004 6.38191C30.0915 6.0918 30.2065 5.02566 30.3287 3.97403C30.9611 3.37206 32.5494 3.50986 33.5556 3.69117C33.545 3.15966 33.4503 2.63327 33.2753 2.13185C33.9405 1.47264 34.5511 0.759494 35.1008 -0.000425009C36.6532 -0.109215 37.8534 1.45011 39.5926 1.56615C40.3903 1.63142 41.2743 1.09473 41.9786 1.28329C43.107 1.5734 43.0567 2.89338 43.6676 3.69117C45.1768 3.58239 45.9746 4.19161 46.8945 4.68479C47.3832 4.51072 47.2538 3.72019 47.7354 3.54612C49.3596 3.93051 51.0054 4.09007 51.2497 5.53335C51.3791 6.30938 50.7395 7.21596 50.9695 8.07903C51.0916 8.5577 51.4007 8.68825 51.6881 9.2177C54.0095 8.83331 56.2159 9.60209 56.604 11.6256C57.2005 12.2493 58.4582 12.2058 59.2703 12.6119C59.2703 14.5121 59.4644 16.1947 62.0804 15.7306C62.3607 15.4477 62.3248 14.8458 62.641 14.5992C62.9998 14.6149 63.3505 14.7125 63.6667 14.8846C63.9828 15.0567 64.2562 15.2988 64.4664 15.5928C65.9038 17.0433 65.7601 18.0442 64.0424 19.2771C64.488 19.5382 64.4018 20.336 64.7611 20.7277C66.0404 20.1619 67.0106 21.4529 67.988 21.4529C69.3535 21.4022 69.5332 19.8936 70.6615 19.1828C71.4593 18.987 71.5096 19.5527 72.1995 19.4657C72.3145 18.4503 72.7961 17.5147 72.1995 16.92C72.0558 16.1947 72.6164 16.1947 72.7601 15.7813C72.0414 15.2592 71.0856 14.9255 70.5178 14.222C70.8772 13.3662 71.7252 12.9891 72.6236 12.6627C72.7529 11.9374 71.4162 11.5458 71.3587 10.5377C72.2355 10.2476 73.0979 10.3274 73.8885 9.97197C74.679 9.61659 75.3258 8.86232 75.8505 8.69551C77.151 8.37257 78.5151 8.42281 79.7889 8.84056C80.3926 9.15242 80.5866 9.84868 80.9101 10.3999C80.9101 11.2122 80.3064 11.4007 80.3423 12.2421C80.6945 12.6192 81.3053 12.4234 81.8875 12.8078C82.6062 12.0825 83.792 11.7996 84.561 11.1106C85.675 11.6256 85.9265 13.0326 86.9471 13.6563C88.751 13.4895 89.8218 14.0697 90.4543 15.1068C89.9081 16.4196 88.0179 16.3616 89.1894 18.3633C89.426 18.8046 89.7941 19.1596 90.2416 19.3782C90.6891 19.5969 91.1934 19.6681 91.6832 19.5817C91.9348 19.0305 91.7982 18.0877 92.1 17.5945C93.5268 16.853 95.1534 16.5985 96.7356 16.8692C97.3393 17.7686 97.7418 18.8782 98.7048 19.4149C98.7048 17.9136 100.372 18.0804 100.811 17.007H102.492C103.11 17.5655 103.793 18.0587 103.894 19.1321C104.612 20.2997 106.804 20.4593 106.848 21.9679C106.848 22.5771 106.388 22.5698 106.129 23.0993C105.985 23.4111 106.165 23.7303 105.985 24.0929C105.805 24.4555 105.626 24.296 105.568 24.6586C106.323 26.5515 109.162 25.4636 111.045 26.1091C112.044 26.4355 112.439 27.3276 113.287 27.3856C114.049 27.3276 114.48 26.6603 115.112 26.537C117.506 26.1019 119.425 27.7047 120.733 28.6621C121.693 28.1808 122.751 27.9325 123.823 27.9368C124.542 28.2704 124.714 29.119 125.505 29.3873C125.955 29.2696 126.383 29.0759 126.77 28.8144C127.215 28.4662 127.215 27.915 127.747 27.6829C129.026 27.1462 130.83 28.0891 132.102 27.9658C132.67 28.1471 132.95 28.6258 133.367 28.9594C133.784 29.293 133.317 29.5106 133.367 29.953C134.036 30.4535 134.416 31.2513 135.049 31.7952C136.486 31.7952 137.119 30.9466 137.722 30.0908C139.799 29.8732 142.344 30.0908 142.911 31.7952C145.506 31.6356 146.447 33.1442 147.942 34.058C147.418 35.1459 145.786 34.4932 144.852 34.4859C143.551 34.4859 142.193 34.9211 140.777 34.9138C140.31 34.9138 139.871 34.6745 139.375 34.6237C137.938 34.4932 136.364 34.5585 134.884 34.4859C129.062 34.2103 122.932 34.8776 117.635 34.7688C116.759 35.3889 116.088 36.2607 115.709 37.271C115.45 37.6263 114.839 37.6263 114.724 38.1195C115.156 39.425 118.081 38.2283 118.656 39.396C118.26 40.9916 115.925 42.297 114.3 40.9553C112.784 40.9553 111.656 40.9553 110.649 40.23C109.981 39.7731 109.931 39.0696 109.385 38.9536C107.875 38.6345 107.351 40.23 106.438 41.2236C105.159 40.9626 105.072 41.9489 104.332 42.21C103.218 42.065 102.176 41.8546 101.666 41.0786C100.825 41.4195 101.012 42.2028 100.264 42.3551C99.5169 42.5074 99.172 41.7966 98.2952 41.6298C97.4184 41.463 97.0374 41.9199 96.1894 41.7748C95.5426 41.4775 95.2838 40.7957 94.7879 40.3243C94.8958 39.7006 95.2335 38.9753 95.0682 38.4821C92.481 37.8149 92.6391 41.1366 91.137 42.0287C91.3526 42.5654 91.9563 42.7104 92.1144 43.3052C91.8844 44.5309 90.5692 43.9797 89.7284 44.1537C88.5354 44.4003 87.752 45.3794 86.7818 45.713C93.2068 46.6051 100.214 46.0031 107.423 45.9959C109.298 45.9959 111.016 45.9959 112.755 45.8508C114.019 45.7638 115.286 45.7638 116.55 45.8508C118.706 46.0031 121.437 46.917 124.269 46.1337C124.513 46.315 124.269 46.9823 124.693 46.9895C126.583 47.1781 129.005 47.519 130.169 46.4165C131.765 47.1418 134.402 47.1418 136.343 46.7067C136.723 46.8082 136.242 46.0322 136.623 46.1337C142.336 45.6695 147.949 46.6922 153.756 46.1337C154.367 46.0757 155.079 45.7711 155.718 45.713C159.132 45.3867 163.193 46.2642 166.499 46.4383C169.575 46.5834 172.802 45.8799 176.187 46.1555C178.781 46.373 182.332 46.0177 185.314 45.8726C191.2 45.597 197.014 46.2352 202.304 45.7348C201.722 44.6904 199.753 45.2851 198.653 45.3069C197.446 43.8564 194.851 46.0322 193.881 44.4583C193.816 43.5953 194.499 43.4792 194.6 42.7612C194.159 42.195 193.607 41.7264 192.979 41.3846C192.351 41.0427 191.66 40.8349 190.949 40.774C190.316 40.7087 190.64 41.6008 190.23 41.7676C188.793 42.5799 186.514 42.3696 186.018 40.774C183.934 40.172 182.561 41.4195 181.663 42.4784C180.147 42.2463 178.738 41.6298 177.171 41.6225C176.51 41.6225 175.849 41.9417 175.209 41.9054C173.772 41.8329 172.68 40.6797 171.134 40.3461C171.465 39.4105 172.27 38.9391 172.399 37.8004C171.932 36.9736 170.559 37.5248 169.869 37.0751C169.613 36.9136 169.408 36.6802 169.28 36.4033C169.153 36.1264 169.108 35.8181 169.151 35.5158C169.374 34.631 170.473 35.3417 170.588 34.1015C170.301 32.3682 166.384 33.224 164.839 32.651C164.256 32.0418 164.264 30.7798 164.415 30.1053C165.356 29.7645 166.528 30.3737 167.225 29.6774C167.225 28.7999 166.556 28.6548 166.384 27.9803C166.211 27.3058 167.102 27.4871 167.102 26.8489C166.894 25.5434 165.838 25.101 165.564 23.8681C164.886 24.1107 164.177 24.2548 163.459 24.296C162.841 24.7239 163.121 25.3694 162.74 25.8553C161.303 25.761 160.692 24.8036 159.513 24.4047C156.953 25.3474 154.225 25.7354 151.507 25.5434C151.191 24.8182 150.436 24.4193 150.386 23.5562C150.321 22.4175 151.104 22.1057 151.651 21.2934C150.652 20.1039 148.266 19.9516 148.697 17.7468C147.777 17.6815 146.986 17.2754 146.311 17.464C145.111 17.7976 145.657 18.8202 145.053 19.589C143.867 19.589 143.35 18.8637 142.38 18.6026C142.2 18.1602 142.423 18.1965 142.38 17.609C140.223 18.3343 138.254 15.6653 137.191 18.3343C137.403 18.876 137.498 19.4569 137.471 20.0387C136.594 21.2571 134.898 20.394 133.676 20.0387C133.245 20.1257 132.871 20.7639 132.275 20.7639C131.828 20.7146 131.396 20.5686 131.01 20.336C130.73 20.0604 131.01 19.6107 130.866 19.3424C130.559 18.9193 130.113 18.6188 129.608 18.4938C128.998 18.3633 128.279 18.8275 127.496 18.9145C126.382 19.0523 125.246 18.7332 124.549 19.9081C124.657 20.8872 125.354 21.2716 125.533 22.1782C125.181 22.8599 124.362 23.0775 123.564 23.3096C123.456 24.5353 123.78 25.906 122.307 26.0003C122.199 26.6023 122.565 27.6829 122.026 27.8425C121.07 27.1172 121.811 24.9414 123.004 25.014C122.86 24.3595 122.86 23.6812 123.004 23.0267C123.651 22.8373 124.266 22.5513 124.829 22.1782C124.966 20.8727 123.888 21.0758 123.852 20.191C123.908 19.8053 124.069 19.4428 124.316 19.1434C124.563 18.8439 124.887 18.6192 125.253 18.4938C125.972 18.24 126.913 18.5374 127.776 18.3488C128.229 18.2545 128.732 17.7686 129.213 17.7831C130.119 17.7831 130.586 18.7404 131.039 18.7767C131.319 19.2916 131.455 19.9661 132.023 20.2272C132.792 20.307 132.929 19.7268 133.461 19.502C134.654 19.5745 135.38 20.1184 136.688 20.0677C137.155 19.6035 136.486 18.5446 136.688 18.3633C136.774 16.3616 139.821 16.0279 140.899 17.3769C141.481 17.522 142.049 16.9345 142.444 17.3769C143.005 17.2826 142.847 17.9136 142.868 18.3633C143.453 18.6616 144.064 18.9044 144.694 19.0886C144.421 17.1448 147.073 16.4994 148.905 17.3914C149.358 17.7323 149.416 18.4793 149.624 19.0886C150.235 20.2345 152.154 19.8573 152.29 21.2136C152.384 22.1564 151.363 22.0549 151.162 23.0558C151.011 23.839 151.212 24.1509 151.881 24.8979C152.944 24.6441 153.929 25.1373 154.971 25.043C155.381 24.9995 155.532 24.7384 155.956 24.6151C157.242 24.2307 158.529 24.325 159.607 23.7665C160.641 24.2815 161.324 25.1445 162.553 25.4636C162.553 24.0131 164.63 23.6215 166.204 23.3386C166.492 24.7021 167.253 25.5869 167.749 26.7401C167.706 27.3566 167.239 27.5524 166.901 27.8715C167.282 28.546 167.907 28.6838 167.886 29.4308C167.886 30.5187 166.621 30.8814 165.083 30.7073C164.76 30.9031 165.025 31.6937 164.939 32.1578C167.095 33.0136 170.301 31.9475 171.407 33.8622C171.257 34.8486 170.897 35.6173 169.719 35.5593C169.51 37.5175 172.464 36.2846 172.953 37.5466C173.032 38.5764 172.457 38.9391 172.234 39.6716C173.039 40.4694 174.131 41.7023 176.021 41.5138C177.502 41.3615 180.025 41.2309 181.642 41.9344C182.518 41.0061 183.963 39.7586 186.27 40.3751C186.716 40.4549 186.78 40.9045 186.838 41.3687C188.412 42.0214 189.849 41.2091 190.905 40.5201C191.747 40.5357 192.577 40.7193 193.348 41.0604C194.119 41.4015 194.816 41.8932 195.397 42.5074C195.448 43.3559 194.959 43.6678 194.837 44.3423C195.591 44.7992 196.475 44.277 197.366 44.3423C197.798 44.3786 198.171 44.7122 198.624 44.7702C199.695 44.908 200.881 44.3786 202.139 44.6324C202.764 45.1763 203.669 45.4447 204.101 46.1845C202.344 46.5217 200.556 46.6652 198.768 46.6124C195.936 46.7212 193.097 46.6124 190.201 46.7574C187.154 46.8952 183.539 46.7574 180.657 46.6124C175.813 46.3875 170.804 46.6704 165.917 46.8952C162.711 47.0403 159.484 46.7574 156.365 46.6124C155.573 46.5164 154.777 46.468 153.979 46.4673C148.46 46.7502 143.113 46.9242 137.557 46.7574C136.12 47.8453 132.109 47.9686 130.536 46.8952C129.493 47.8308 124.477 48.44 123.651 46.8952C118.878 47.0765 113.546 46.0539 108.35 46.4673C105.734 46.6849 103.204 47.1926 100.767 47.0403C100.394 47.0403 100.049 46.8082 99.6463 46.7574C97.598 46.4818 95.4923 46.7574 93.4656 46.7574C92.3013 46.7574 91.252 46.3875 90.0949 46.4673C88.9378 46.5471 86.6811 46.9387 85.4665 46.3295C85.6318 45.6043 86.5805 45.3141 87.292 44.879C88.548 44.0362 89.9991 43.5365 91.5035 43.4285C91.2664 42.8627 90.6627 42.7032 90.5189 42.0142C92.1432 40.6289 92.021 37.4885 95.291 37.7641C96.29 38.7287 94.788 40.6652 96.2756 41.1656C97.9933 40.5854 98.8845 41.2382 100.207 41.7313C100.473 41.463 100.703 41.3179 101.048 41.0061C101.163 40.9045 101.651 40.2808 101.766 40.2808C102.14 40.2808 102.32 41.0061 102.888 41.2744C103.455 41.5428 103.736 41.0931 104.152 41.5573C104.713 41.0423 105.08 40.3243 106.258 40.4259C107.272 39.5555 107.645 38.047 109.765 38.3008C110.578 38.881 111.059 40.114 112.576 40.2808C113.071 40.3388 113.596 40.056 114.121 40.143C114.645 40.23 115.378 40.8102 115.946 40.8683C116.437 40.889 116.921 40.7482 117.326 40.4669C117.73 40.1856 118.033 39.7792 118.188 39.3089C116.751 38.9753 114.408 39.5338 114.121 38.0325C114.198 37.7922 114.329 37.573 114.503 37.3919C114.678 37.2108 114.891 37.0726 115.127 36.9881C115.368 36.1132 115.917 35.3574 116.672 34.8631C116.672 34.747 116.816 34.718 116.816 34.573C112.446 35.0879 108.091 34.9211 103.757 34.8631C101.601 34.8631 99.3876 34.4714 97.1596 34.573C95.6187 34.7143 94.0707 34.7627 92.5241 34.718C90.368 34.5585 88.2119 33.7462 86.0559 33.8695C84.0364 33.9855 82.1678 34.7978 80.1626 35.0009C79.4583 35.0078 78.7544 34.9617 78.0569 34.8631C71.9839 34.573 65.1204 35.5883 59.105 35.1459C58.6879 35.0633 58.2649 35.0148 57.8401 35.0009C57.4086 35.1118 56.9858 35.2548 56.5752 35.4288C54.7785 35.8277 52.8237 35.3272 50.9623 35.4288C50.2436 35.4288 50.7179 34.8486 50.2436 34.7035C48.6984 34.8196 47.1317 34.7035 45.608 34.7035C44.8103 34.7035 43.9838 35.0952 43.222 35.1314C41.3534 35.2039 39.3914 34.7978 37.3287 34.7035C34.303 34.5585 31.1696 34.8341 28.3379 34.7035C24.1264 34.5077 19.8502 35.6609 16.2639 35.2692C14.8912 35.1242 14.036 34.6382 12.4764 34.7035C8.4446 34.8993 4.0606 34.8631 0 34.8631ZM39.5926 2.41471C37.9109 2.29141 36.9263 0.674072 35.1008 0.572535C35.0505 1.5589 33.9725 1.50813 33.8359 2.41471C33.994 2.87163 34.0731 3.40107 34.2599 3.86524C33.5412 4.80808 31.8379 3.79271 30.7455 4.29315C30.5802 5.16346 30.5802 6.20059 30.0268 6.70103C29.265 6.70103 28.8769 7.15069 27.9211 6.98388C26.9365 7.80343 25.4632 9.02187 23.8461 7.97749C22.6243 8.09353 21.3595 9.26121 20.1952 8.5432C20.2527 9.19594 20.533 9.62384 20.6192 10.2403C20.3174 10.7915 19.1818 10.5014 18.7937 10.9656C18.9339 11.618 18.9339 12.2932 18.7937 12.9456C19.9364 13.1196 21.2732 13.0906 21.7404 13.9392C20.7054 15.3244 20.303 16.7097 21.3163 18.1892C21.7429 18.2327 22.1737 18.1858 22.5812 18.0514C23.1106 18.6728 23.5911 19.3348 24.0186 20.0314C25.7075 20.0314 26.0381 22.345 24.2989 22.5843C23.5802 22.1129 22.5812 21.2426 21.6326 22.1564C21.8167 22.8847 22.2624 23.5179 22.8831 23.9333C22.9478 24.2089 22.4519 24.5425 23.0268 24.499C23.7958 24.7166 24.9385 24.5498 25.2763 25.2243C25.0894 26.6313 25.686 29.1988 24.148 29.6194C23.5299 29.7862 22.6243 29.293 21.8985 29.0537C21.3523 30.1416 19.9221 30.6348 18.2547 30.1851C17.911 29.6501 17.6266 29.0785 17.4067 28.4807C15.7321 28.1399 14.2301 29.0029 14.1797 30.7508C12.922 30.7073 12.6274 31.6356 12.074 32.3101C10.3204 33.2022 9.02674 31.5849 7.43844 31.8822C6.43227 32.0708 5.5411 33.4633 4.35526 33.7244C2.81726 34.0653 1.72485 33.3038 0.560578 34.4497C4.05341 34.2974 7.99901 34.5294 11.0894 34.3046C12.6839 34.2602 14.2797 34.3087 15.8687 34.4497C19.3471 34.6092 23.3215 33.9347 26.3975 34.1668C34.6696 34.7905 42.7764 33.7172 51.106 34.4497C51.566 34.689 50.5598 35.0081 51.2497 35.0154C52.5649 34.8123 53.6214 35.2402 54.8935 35.1604C56.1656 35.0807 57.0496 34.3264 58.1276 34.3046C58.4654 34.3046 58.911 34.5512 59.2488 34.5875C63.5609 35.1024 68.8936 34.5222 73.5722 34.3046C74.5856 34.2611 75.5702 34.4062 76.5189 34.3046C76.9932 34.2611 77.446 34.0435 77.9562 34.0218C79.1349 34.0218 80.1914 34.2538 81.3269 34.1668C82.7643 34.058 84.2017 33.5721 85.6822 33.4416C87.752 33.282 89.5918 33.9275 91.7191 34.1668C93.1668 34.2684 94.6196 34.2684 96.0672 34.1668C100.608 33.9824 105.157 34.0769 109.686 34.4497C112.475 34.689 114.997 34.087 117.693 33.884C120.089 33.7838 122.489 33.8298 124.879 34.0218C128.674 34.151 132.473 34.0565 136.256 33.7389C137.787 33.6374 139.239 34.0073 140.748 34.0218C142.804 34.0218 144.888 33.6881 146.922 33.884C146.016 33.7607 146.16 33.0862 145.484 32.7453C144.622 32.2956 143.587 32.7961 142.818 32.4624C142.265 32.2304 142.099 31.3455 141.553 31.0119C140.389 30.4172 139.232 30.8596 137.902 30.4462C137.579 31.6356 136.371 31.8967 135.092 32.1433C134.136 31.6066 133.612 30.6203 132.706 30.0183C132.826 29.7045 132.876 29.3674 132.85 29.0319C131.995 28.0383 129.537 27.944 127.934 28.1761C127.467 29.0102 126.59 30.0908 125.548 30.0183C124.642 29.9603 124.398 29.0102 123.722 28.459C122.692 28.412 121.669 28.6636 120.776 29.1842C119.108 28.1109 117.901 26.7256 115.58 27.0592C114.753 27.1825 114.142 28.0601 113.33 28.0528C112.41 28.0528 111.555 26.8779 110.808 26.6023C109.888 26.3049 108.709 26.6023 107.717 26.4645C107.171 26.4146 106.645 26.2348 106.182 25.9398C105.718 25.6447 105.331 25.2429 105.051 24.7674C105.432 23.6722 105.54 22.5916 106.316 21.6487C105.633 20.5826 104.318 20.1982 103.506 19.2409C103.405 17.8774 102.607 17.2101 100.976 17.3987C100.89 18.298 100.214 18.6099 99.4307 18.813C99.4307 19.4512 99.5026 20.1112 98.8701 20.0894C97.7879 19.4341 96.9494 18.4376 96.4841 17.2536C95.1045 17.1013 93.7135 17.4096 92.5241 18.1312C92.2725 19.0668 92.6966 19.8066 91.8054 20.1184C89.3115 20.278 88.6216 18.6099 88.0179 16.862C88.5076 16.1857 89.0718 15.5677 89.6996 15.0198C89.1175 14.193 87.7807 14.1205 86.4727 14.0262C85.9824 13.2702 85.4243 12.5613 84.8054 11.9084C83.907 12.3726 82.7499 12.5757 81.9953 13.1849C81.3341 12.9456 80.3423 13.0543 79.8895 12.6119C79.5877 11.9302 80.3064 11.1614 80.3064 10.3491C79.947 8.89858 77.1441 9.21044 75.8145 9.2177C74.7795 10.1801 73.434 10.7315 72.0271 10.7698C71.8833 11.8939 73.716 11.8722 73.5722 12.6119C73.4285 13.3517 71.4162 13.0181 71.0424 14.1713C71.7611 14.708 72.7529 14.8965 73.1482 15.7306C73.1482 16.3253 72.6164 16.3253 72.5876 16.8692C72.7314 17.1884 73.1338 17.2609 73.3063 17.5945C72.2283 17.8266 73.3638 19.4367 72.4655 19.8646C71.7971 20.2635 71.4952 19.676 70.9203 19.5817C69.8207 20.365 69.4326 21.9026 68.1102 21.9896C66.9962 22.0621 66.0332 20.6406 64.4593 20.996C64.2508 20.3505 63.8627 19.9009 63.6184 19.2989C63.8843 18.4793 64.8617 18.3778 65.0558 17.4567C64.2724 16.833 64.1574 15.5275 62.95 15.3317C62.7272 15.5348 62.6194 15.9844 62.1091 16.1802C60.1759 16.9055 57.9336 15.2011 58.8822 13.0616C58.4173 12.9179 57.9288 12.8686 57.4448 12.9165C56.144 12.7062 56.065 10.7408 54.9151 10.088C54.4143 9.84682 53.8705 9.70968 53.3162 9.68476C52.7619 9.65984 52.2082 9.74765 51.6881 9.94296C51.2446 9.57862 50.879 9.12721 50.6134 8.61609C50.3478 8.10496 50.1877 7.54474 50.143 6.96937C51.6306 5.41731 49.5752 4.06831 47.9007 3.99579C47.5054 4.35117 47.4335 5.01116 46.7508 5.07643C46.3081 4.70365 45.7893 4.43426 45.2314 4.28755C44.6736 4.14085 44.0904 4.12047 43.5238 4.22787C42.7405 3.83623 42.6542 2.74108 42.0865 2.10284C41.0659 1.94329 40.3832 2.47273 39.5926 2.41471Z" fill="#BABAAE"/>
<path fill-rule="evenodd" clip-rule="evenodd" d="M46.6143 9.92149C46.5568 10.3857 46.2047 10.5452 46.0537 10.9151C46.6862 11.6404 48.6194 11.0674 49.1441 11.9087C49.1441 12.3366 48.8422 12.4599 48.7201 12.7573C48.9932 13.1924 50.4952 13.1272 50.9696 12.8951C51.2226 13.1933 51.559 13.4076 51.9347 13.5098C52.3104 13.612 52.708 13.5975 53.0753 13.468C53.2886 13.6927 53.4164 13.9862 53.4361 14.2967C53.4559 14.6073 53.3663 14.9148 53.1831 15.1652C53.7365 15.6946 54.0671 16.4416 55.2889 16.2966C55.3608 17.0218 56.0076 17.7471 55.8495 18.1387C55.586 18.0131 55.3719 17.8019 55.2416 17.5389C55.1113 17.2758 55.0723 16.9763 55.1308 16.6882C53.8443 16.6882 53.3772 15.9122 52.7447 15.2739C52.6369 14.7155 53.2694 14.5487 52.8885 14.1353C52.2345 13.8959 51.2498 13.9975 50.9264 13.41C49.5466 13.41 48.7704 13.6421 48.1164 12.8371C48.1164 12.4164 48.4829 12.3584 48.5332 11.9885C47.6636 11.5026 45.7734 12.032 45.45 11.0021C45.45 10.4002 45.9531 10.2769 46.1687 9.86347C45.1626 8.91337 41.7919 8.68128 40.4192 9.44281V10.4292C39.8011 11.1544 38.7087 10.7991 38.1769 10.2914C37.0557 10.9078 35.8843 10.8281 34.3822 10.5742C33.9151 11.1399 33.9869 12.2568 33.4048 12.6993C32.8011 12.6993 33.5701 12.032 33.6851 11.8507C33.7315 11.3591 33.8254 10.8733 33.9654 10.4002C35.4919 10.4081 37.0093 10.163 38.4572 9.6749C38.8956 9.89248 38.9603 10.4872 39.7221 10.4002C40.1605 10.4002 39.9521 9.6749 40.0024 9.26875C40.4192 8.66678 41.5763 8.49271 42.8053 8.54348C44.4367 8.7393 46.1615 8.94238 46.6143 9.92149Z" fill="#BABAAE"/>
<path fill-rule="evenodd" clip-rule="evenodd" d="M140.684 22.1063C139.368 21.8742 137.809 21.5261 137.593 22.9621C136.35 22.4834 133.691 22.0628 133.382 23.6874C133.612 23.8904 134.1 24.5287 133.806 24.826C133.044 24.6375 133.324 24.1008 132.821 23.5496C133.288 22.099 135.631 21.5914 137.176 22.4109C137.608 22.2804 137.73 21.8452 138.017 21.5623C138.93 21.4898 140.145 21.4173 140.684 22.1063Z" fill="#BABAAE"/>
<path fill-rule="evenodd" clip-rule="evenodd" d="M159.075 42.3698C156.257 42.5076 153.411 42.1812 150.652 42.3698C149.257 42.5693 147.849 42.6638 146.44 42.6527C144.737 42.5584 142.681 42.9283 141.244 42.6527C140.432 42.4931 139.807 41.7026 138.858 41.659C138.355 41.7678 138.75 42.776 138.297 42.9355C137.162 43.0153 135.688 42.7615 134.783 43.0806C134.481 43.4287 134.603 44.212 134.222 44.5311C132.196 44.1104 129.127 45.0388 128.609 42.5511C129.414 43.2764 130.047 44.0017 131.276 44.1032C132.124 44.1612 133.015 43.4577 133.942 43.9654C134.481 43.9654 134.028 42.921 134.366 42.6889C135.578 42.5451 136.798 42.499 138.017 42.5511C138.225 40.6002 140.417 41.7823 141.244 42.4061C146.102 42.4061 151.586 42.1232 156.265 42.1232C157.105 42.0652 158.471 41.4777 159.075 42.3698Z" fill="#BABAAE"/>
<path fill-rule="evenodd" clip-rule="evenodd" d="M35.8051 49.4558C36.1932 50.9499 37.7384 51.2835 38.4715 52.4294C39.0896 51.929 40.6276 52.1248 41.2816 52.4294C41.9428 51.9652 41.9499 50.8338 42.4027 50.1666C44.2569 50.2246 46.0968 50.3044 47.0311 51.298C47.1748 52.6625 47.1748 54.0385 47.0311 55.403C47.7134 55.1837 48.4287 55.088 49.144 55.1201C49.6902 55.2072 50.0711 55.7801 50.682 55.9687C51.0576 55.9977 51.4348 55.9977 51.8104 55.9687C53.4633 56.1863 55.0157 56.6939 55.3176 57.673C54.987 58.0937 54.333 58.0574 53.8802 58.0937C49.4842 58.4466 45.0657 58.4005 40.6779 57.9559C36.5095 57.5353 32.2836 58.7827 28.4601 58.5216C26.5197 58.3911 23.724 58.13 21.2732 58.0937C18.3985 58.0937 15.5237 57.9704 12.5699 57.8109C10.7301 57.7166 8.71056 58.1735 7.09351 57.3902C7.28755 56.7302 8.00624 56.6069 8.22185 55.9397C9.42925 55.6858 9.46518 54.743 10.6079 54.4891C12.764 54.083 15.4447 56.7737 16.2209 53.9234C17.2051 53.9406 18.1757 53.6901 19.0309 53.1982C19.3615 53.1256 18.4344 52.4076 18.8872 52.2046C19.3831 51.3342 21.1511 50.4349 22.1213 50.6525C23.0915 50.8701 23.0987 51.6461 23.803 52.2046C24.3122 52.2065 24.8112 52.0605 25.2404 51.7839C25.0032 50.9571 24.3205 51.0586 24.2558 50.2246C24.1768 49.231 25.5423 48.1938 26.6419 47.5339C27.1989 47.1767 27.8185 46.9305 28.4673 46.8086C30.0053 46.8086 30.724 48.7523 31.9745 49.2165C33.2503 48.9584 34.5707 49.0409 35.8051 49.4558ZM36.3657 51.1529C36.0351 50.638 35.8339 49.9925 35.2374 49.7024C33.9437 49.7024 33.5053 49.8039 32.1542 49.8402C30.8246 49.3398 29.8257 46.8376 28.0792 47.2945C27.0443 47.5629 25.5423 49.1947 24.9889 50.1303C24.6727 50.7033 25.8585 50.8121 25.7076 51.6824C25.5369 52.0472 25.2419 52.3381 24.8765 52.5018C24.5111 52.6656 24.0995 52.6913 23.7168 52.5744C23.1131 52.1393 22.7178 51.4938 22.1716 51.0151C21.3307 51.5373 20.2311 51.7912 19.3615 52.2843C18.9806 52.7122 19.7353 52.85 19.7856 53.278C18.856 53.9838 17.729 54.3747 16.5658 54.3949C16.4114 54.8884 16.0837 55.3081 15.6444 55.5751C15.2051 55.8422 14.6843 55.9383 14.1798 55.8454C13.727 55.7946 13.3605 55.2869 12.9149 55.1201C12.2265 54.8949 11.503 54.799 10.7804 54.8373C9.71672 55.0113 8.3009 56.5852 8.25778 57.2451C10.0402 57.1698 11.8257 57.2645 13.5905 57.528C18.6788 58.0429 22.9334 57.441 28.0505 57.673C32.0105 57.8544 36.1932 57.2959 39.8442 57.528C43.2591 57.734 46.6844 57.6879 50.0927 57.3902C51.6091 57.2597 53.0321 57.6368 54.448 57.2451C52.8884 56.2733 49.9418 56.6939 48.411 55.6858C47.7857 55.6858 47.5845 56.0847 46.8658 55.9687C46.1902 55.0839 46.8658 53.539 46.5855 51.8637C45.3393 51.105 43.9526 50.6114 42.5105 50.4132C42.0434 51.6026 42.3596 52.821 41.2528 53.1111C40.3401 53.3432 39.298 52.045 38.299 52.8283C37.7959 52.1683 37.4222 51.3125 36.3657 51.1529Z" fill="#BABAAE"/>
<path fill-rule="evenodd" clip-rule="evenodd" d="M183.223 59.6529C184.516 59.9503 184.984 58.7246 186.033 58.6666C187.082 58.6086 188.189 59.5151 189.404 59.9358C190.618 60.3564 191.905 60.4362 193.047 60.9294C193.244 61.4515 193.296 62.0179 193.197 62.5674C193.098 63.117 192.853 63.629 192.487 64.048C191.646 64.3381 190.525 64.048 189.404 64.1931C189.023 64.2366 188.685 64.534 188.275 64.6137C186.586 64.9401 185.221 64.3889 184.351 65.0417C183.704 65.5203 183.819 66.2093 183.223 66.7388C177.775 66.9201 172.177 67.2247 166.377 66.7388C166.736 65.5856 168.123 65.4768 168.626 64.4759C169.171 64.5249 169.719 64.4478 170.23 64.2504C170.741 64.0531 171.2 63.7408 171.573 63.3373C170.567 62.7426 169.043 62.6773 168.339 61.778C168.562 61.1615 169.287 60.8641 169.884 60.3274C170.703 59.6529 171.393 58.4562 172.694 58.3402C173.995 58.2242 174.742 59.2323 176.345 59.0655C176.862 58.5215 178.63 57.4771 179.852 57.6149C180.779 57.7455 181.563 58.9059 182.662 58.6086C182.913 58.9174 183.104 59.2719 183.223 59.6529ZM179.292 57.9558C178.134 57.9558 177.524 58.9277 176.625 59.6529C174.785 59.9068 173.808 58.7101 172.414 58.9277C171.408 59.0945 170.976 60.1171 170.444 60.6248C169.913 61.1325 169.237 61.176 168.907 61.7562C169.977 62.3292 171.523 62.4234 172.27 63.3155C171.847 63.8442 171.313 64.2713 170.706 64.5661C170.1 64.8608 169.436 65.0159 168.763 65.0199C168.418 65.6581 167.627 65.8612 167.218 66.4342C172.629 66.4922 178.235 66.2891 182.943 66.1513C183.23 65.8757 183.158 65.2375 183.367 64.8748C184.358 63.4751 186.349 64.3164 187.995 64.1496C188.448 64.1061 188.836 63.7942 189.26 63.7217C190.244 63.5549 191.279 63.8812 192.07 63.4388C192.473 62.7565 192.621 61.9514 192.487 61.1687C190.303 60.6462 188.177 59.9026 186.141 58.9494C185.12 59.5151 184.574 60.574 182.77 60.4C182.483 60.1679 182.447 59.6747 182.49 59.1235C181.203 59.2685 180.434 57.9413 179.292 57.9558Z" fill="#BABAAE"/>
</g>
<defs>
<clipPath id="clip0">
<rect width="204" height="67" fill="white"/>
</clipPath>
</defs>
</svg>
