<svg width="220" height="59" viewBox="0 0 220 59" fill="none" xmlns="http://www.w3.org/2000/svg">
<g clip-path="url(#clip0)">
<path d="M100.453 34.4194C109.017 32.0283 119.882 32.0131 129.406 32.8964C134.008 33.4803 138.68 33.0911 143.121 31.7542C144.645 31.3125 144.782 30.612 147.693 30.612C149.841 30.612 151.975 32.1349 154.002 31.7847C158.39 31.0232 160.219 25.6928 163.846 24.4592C168.417 22.9362 170.094 27.5051 174.025 28.9215C176.613 29.6123 179.08 30.6961 181.34 32.1349C183.149 33.3082 185.127 34.1968 187.207 34.7697L186.262 34.6783C184.105 34.2193 181.897 34.0401 179.694 34.1453C177.027 34.5869 174.985 36.5363 171.617 37.0998C169.042 37.3365 166.451 37.3365 163.876 37.0998C159.884 36.9171 155.967 36.8714 151.914 37.0998C137.712 37.8309 121.894 35.8053 107.6 36.5363C103.851 36.7191 100.047 36.8815 96.1863 37.0237V35.0286C97.6295 35.0182 99.0647 34.8133 100.453 34.4194Z" fill="#EDEDDD"/>
<path d="M2.45337 37.1909C4.48011 33.5053 9.4479 35.0283 12.5261 33.5053C13.7757 28.8298 20.3283 29.774 23.9398 31.1904C25.0675 31.0685 25.7075 30.0482 26.3628 29.3171C28.7248 28.6166 29.5476 31.9519 31.8182 31.5254C32.4774 30.8823 32.8968 30.0333 33.0068 29.1191C32.5019 27.5503 31.5418 26.1667 30.2486 25.1442C29.3038 21.9764 32.1687 20.3164 34.1954 18.7172C34.1954 18.0776 33.6316 17.4227 33.9973 16.7374C34.9114 16.2397 35.774 15.6531 36.5726 14.9859C37.7342 15.5957 39.0379 15.8834 40.3484 15.8192C41.6588 15.7549 42.9281 15.341 44.0243 14.6204C44.2986 12.8386 41.9671 13.0975 41.3728 11.8638C43.7348 6.8228 50.516 3.83777 55.7733 7.15786C56.3776 8.25049 57.259 9.1649 58.329 9.80918C59.399 10.4535 60.6198 10.8049 61.8688 10.8282C63.1793 9.77737 65.206 8.63514 66.867 9.5337C67.6137 11.3917 69.549 12.6863 70.3414 14.5747C70.1433 15.4276 69.2747 16.0977 69.4881 17.0572C70.0671 18.5802 71.9415 17.9557 73.0691 18.4888C73.5415 22.8293 78.9208 24.8244 83.0657 23.5298C84.2848 22.2505 83.6905 20.3316 85.7629 19.6767C86.0525 19.098 85.8543 18.3517 86.3725 17.8796C88.384 17.1638 91.0964 15.8997 93.1994 16.8744C93.7937 17.575 93.0013 18.3974 93.0775 19.0827C95.8814 20.1641 98.1519 24.6111 101.809 21.885C102.358 21.0169 101.535 19.8442 102.282 18.9457C103.424 17.179 105.634 18.6563 107.143 17.6968C108.286 16.5241 108.926 14.6509 110.693 14.2245C113.699 15.1028 116.859 15.3262 119.958 14.8793C121.269 15.6865 122.275 17.0876 123.89 17.3161C125.17 16.3262 127.121 15.4428 128.629 16.5241C130.519 18.5497 127.105 22.616 130.961 23.2861C132.21 21.0931 134.923 20.956 136.675 19.0371C136.889 18.0776 136.584 16.7069 137.727 16.2196C138.929 16.0751 140.148 16.2867 141.232 16.8281C142.315 17.3696 143.216 18.2171 143.822 19.2655C144.005 21.6261 139.647 23.4232 141.963 25.7077C142.999 25.9514 143.487 24.7482 144.218 24.3522C149.003 24.7634 153.544 22.9206 157.826 21.1235C158.436 19.4787 157.186 17.8644 156.988 16.2196C157.75 14.5747 159.945 13.6914 158.847 11.6506C160.339 11.3827 161.76 10.8126 163.023 9.97536C163.769 8.54376 161.895 7.8432 161.971 6.73143C163.297 6.07655 164.15 4.64495 165.552 4.21852C167.975 4.12714 171.038 5.74149 172.974 3.53318C173.415 2.34526 173.796 0.928895 175.107 0.395854C179.679 0.304476 183.321 4.96478 184.25 8.95497C182.071 10.3866 180.044 12.0009 180.258 15.0469C179.602 15.7474 178.52 15.5951 177.819 16.1891C177.54 16.735 177.446 17.3567 177.55 17.9608C177.654 18.565 177.952 19.119 178.398 19.5396C180.288 20.3316 183.062 20.6362 184.098 22.5856C184.006 23.5907 182.802 24.3675 182.924 25.4031C184.25 25.7686 185.972 24.733 187.085 25.997C187.252 26.6824 187.42 27.3677 187.587 28.0835C191.428 35.3481 203.405 29.7131 209.958 31.8605C210.872 32.1651 212.426 32.4088 212.594 33.8556C205.828 33.8556 196.136 35.4852 187.359 34.7694C185.227 34.2113 183.196 33.3222 181.34 32.1346C179.037 30.6601 176.517 29.5552 173.873 28.8602C169.941 27.4591 168.311 22.7683 163.693 24.3979C160.066 25.6163 158.238 30.9619 153.849 31.7234C151.822 32.0737 149.689 30.5355 147.54 30.5507C144.66 30.5507 144.493 31.2513 142.969 31.693C138.528 33.0299 133.855 33.419 129.254 32.8352C119.791 32.0128 108.926 32.028 100.301 34.3582C98.8834 34.7655 97.4169 34.9756 95.9423 34.9826C93.4432 34.9826 91.2945 34.3582 88.323 34.0383C83.7514 33.551 79.6827 35.805 75.9188 32.1955C75.9188 31.5711 76.3607 31.7082 76.3607 31.1752C73.6369 30.3167 70.7885 29.9203 67.9337 30.0025C68.1776 38.3179 57.2667 35.6832 53.4418 32.759C59.2477 29.4542 53.4418 28.9516 51.0951 29.1953C48.0571 29.8532 45.1099 30.876 42.3176 32.2412C42.8814 32.8809 43.3386 34.145 43.75 34.5714C40.7937 36.7492 37.4412 35.1501 34.0583 35.1349C31.1934 35.1349 29.4867 35.2415 26.6218 35.1349C22.6293 34.9521 21.9588 33.6119 18.0577 34.6932C15.9503 35.49 13.9117 36.4578 11.9623 37.5869C9.03645 37.5869 6.15635 37.4955 3.30673 37.4346C3.01093 37.4002 2.7227 37.3179 2.45337 37.1909Z" fill="#FFFFF3"/>
<path d="M187.1 52.9082C189.71 54.1976 192.63 54.7254 195.527 54.4311C195.527 53.2737 196.319 52.2685 196.319 51.1567C199.824 53.563 204.944 55.3906 208.144 57.9035C193.5 57.7817 178.764 58.1015 164.12 57.9035C168.691 58.0558 171.069 54.6748 174.985 53.8676C178.581 53.1061 183.138 54.5682 186.947 54.3702C187.1 53.9438 186.978 53.4717 187.1 52.9082Z" fill="#EDEDDD"/>
<path d="M164.12 58.01C160.158 58.01 156.196 57.9339 152.249 57.7968C152.052 57.7989 151.857 57.7577 151.678 57.6761C151.499 57.5945 151.34 57.4745 151.213 57.3247C153.118 54.827 157.08 55.6494 159.427 53.6086C161.91 53.6086 165.034 54.096 167.046 52.5882C167.335 50.9739 164.12 51.5983 164.364 49.8012C167.914 47.136 172.486 47.7452 176.219 49.2224C177.347 48.4305 176.859 46.8314 177.941 46.0242C180.989 43.9682 182.041 47.7147 184.037 48.8874C184.965 48.8878 185.867 48.5767 186.597 48.0041C185.789 45.5216 188.928 45.811 189.416 43.8159C189.25 43.1907 189.288 42.529 189.524 41.9266C189.759 41.3242 190.181 40.8124 190.727 40.4654C194.323 40.6481 199.763 39.0185 202.079 42.4757C201.785 43.3071 201.363 44.0879 200.83 44.7906C203.405 46.5116 200.373 49.1615 201.577 51.2785C205.401 51.9333 209.851 49.8469 213.28 52.9385C213.966 55.6799 217.272 56.289 218.217 58.1318C214.865 58.0405 211.482 57.9795 208.114 57.9491C204.914 55.4362 199.794 53.6086 196.289 51.2023C196.289 52.3141 195.481 53.3192 195.496 54.4767C192.6 54.771 189.679 54.2431 187.069 52.9537C186.947 53.5172 187.069 53.9894 186.917 54.4767C183.107 54.6747 178.551 53.2126 174.955 53.9741C171.038 54.7813 168.707 58.1623 164.09 58.01H164.12Z" fill="#FFFFF3"/>
<path d="M96.1709 37.0388C68.97 38.0745 39.407 38.0135 12.0537 37.5719C14.0031 36.4427 16.0418 35.475 18.1492 34.6782C22.0502 33.5969 22.7207 34.9371 26.7133 35.1199C29.5934 35.2417 31.2849 35.1199 34.1497 35.1199C37.5327 35.1199 40.8852 36.7342 43.8415 34.5564C43.43 34.13 42.9729 32.8659 42.4091 32.2262C45.2013 30.861 48.1485 29.8382 51.1865 29.1803C53.5028 28.9366 59.3392 29.4392 53.5332 32.744C57.282 35.6682 68.269 38.3029 68.0252 29.9875C70.88 29.9053 73.7284 30.3017 76.4521 31.1602C76.4521 31.6932 75.9797 31.5561 76.0102 32.1805C79.7742 35.79 83.8581 33.536 88.4145 34.0233C91.4622 34.3432 93.5804 34.9676 96.0338 34.9676L96.1709 37.0388Z" fill="#EDEDDD"/>
<path fill-rule="evenodd" clip-rule="evenodd" d="M101.215 21.5044C101.215 20.819 101.215 18.6716 102.114 17.9406C103.638 17.0573 105.04 17.834 106.579 17.3467C107.357 15.7322 108.598 14.3856 110.145 13.4783C112.065 13.6611 113.878 14.6053 116.103 14.6662C117.288 14.4823 118.485 14.3805 119.684 14.3616C121.421 14.7271 121.787 16.372 123.25 16.7527C124.896 16.0217 126.298 14.7424 128.599 15.5496C131.464 17.4685 127.974 20.88 130.397 22.6923C131.631 22.6923 131.433 21.1693 132.18 20.6211C134.283 20.9256 134.542 19.4027 136.05 19.0981C135.956 18.4502 136.014 17.7893 136.221 17.1679C136.427 16.5465 136.776 15.9819 137.239 15.5191C141.414 15.0165 143.091 17.0421 144.675 19.0981C144.264 21.6567 141.628 21.9613 141.628 25.0529C142.862 25.9667 143.35 23.6061 144.675 23.5299C150.771 24.5351 152.523 21.2455 157.186 20.8495C156.562 17.5446 155.663 14.6662 158.71 13.4174C158.512 12.6102 157.4 11.8944 158.116 11.0263C159.683 10.7889 161.195 10.2731 162.581 9.50335C163.008 7.78239 161.331 8.16313 161.057 7.11228C162.2 6.13758 163.297 4.06633 165.217 3.54852C167.137 3.03071 169.347 4.40139 171.175 3.83789C173.37 3.18301 172.821 0.883319 174.757 -0.0152352C177.073 -0.441668 178.612 0.746252 180.105 2.05601C180.425 2.34537 181.218 2.54336 181.294 2.64997C181.37 2.75658 181.096 3.62467 181.294 3.83789C182.62 5.25425 185.424 6.06143 184.875 8.90939C184.703 9.56438 184.3 10.135 183.739 10.5158C183.179 10.8965 182.5 11.0617 181.827 10.9806C181.02 12.4122 180.943 13.8591 180.303 14.849C180.212 16.2501 178.185 15.7323 177.621 16.6461C177.119 20.1032 182.665 19.0676 184.174 21.9917C184.372 23.5909 183.29 23.8955 182.97 25.0377C184.327 24.5957 185.789 24.5957 187.146 25.0377C187.913 27.1184 189.043 29.0468 190.483 30.7336C194.932 33.0638 205.279 30.0178 210.125 31.3276C211.238 31.6169 213.447 32.5003 213.173 34.008C211.908 35.333 209.836 34.2517 208.403 34.2974C207.498 34.4395 206.602 34.6379 205.721 34.8913C199.224 35.9047 192.626 36.1042 186.079 35.4853C184.117 35.0901 182.121 34.8912 180.121 34.8913C177.332 35.1959 174.772 37.1758 172.09 37.5718C169.413 37.8081 166.721 37.8081 164.044 37.5718C154.322 37.1301 142.71 38.516 131.296 37.8764C121.976 37.3887 112.638 37.3887 103.318 37.8764C88.0792 38.5769 69.7929 38.6835 54.2038 38.4703C43.3386 38.318 30.5534 38.1353 19.3683 38.4703C15.1624 38.5921 10.7128 38.6531 6.56785 38.4703C4.31562 38.5719 2.06974 38.1605 0 37.2672C0.228579 36.3077 1.09718 35.9879 2.37723 36.0792C4.75445 34.0385 8.71649 33.9623 11.9166 33.3988C12.8004 32.1652 13.0595 30.5052 14.8881 29.835C17.5701 28.8451 21.4103 29.698 23.818 30.429C25.3418 30.5965 25.0371 28.906 26.1952 28.6471C29.1058 28.2207 29.2429 30.5661 31.2544 31.023C34.1955 29.1193 30.5077 26.3474 29.182 25.0834C29.6391 23.8498 29.4715 22.0374 30.0658 20.9104C31.293 20.1041 32.5881 19.406 33.9364 18.8239C33.6656 18.063 33.5617 17.2527 33.6316 16.4481C34.9422 16.1587 35.3688 14.9251 36.6794 14.6662C38.9652 15.8085 41.0681 15.1993 43.5215 14.3616C43.0644 13.0519 40.9309 13.3869 40.55 11.9858C40.0166 10.0973 42.2415 9.56427 43.8263 8.42204C45.4111 7.27981 46.3559 5.45224 48.5807 5.14764C50.8056 4.84305 53.1523 6.1985 55.7276 6.33556C56.2868 7.37685 57.0854 8.27054 58.0577 8.94307C59.0299 9.6156 60.1482 10.0477 61.3202 10.2039C62.8749 9.31969 64.6098 8.799 66.3947 8.68094C67.9185 10.5694 69.4424 12.3208 70.8596 14.3312C71.0882 15.7475 69.7929 15.6562 69.9605 17.0116C70.5701 18.0929 73.1454 17.2096 73.8311 18.1995C74.5778 18.9306 73.2063 18.8392 73.5264 19.9814C74.6476 21.3615 76.1473 22.3847 77.8417 22.9257C79.5361 23.4667 81.3516 23.5021 83.0657 23.0274C83.5534 22.5248 83.2943 21.2759 83.3553 20.3469C85.6411 20.5449 85.1992 18.032 86.3268 17.0725C88.7802 16.9355 90.1822 15.7628 92.8794 15.8846C93.3366 16.3263 94.4033 17.7122 93.4737 18.565C95.6071 18.8544 97.3139 23.8041 101.215 21.5044ZM179.816 2.75658C179.229 2.00974 178.442 1.44547 177.546 1.12988C176.65 0.814295 175.682 0.760465 174.757 0.974698C173.233 2.40629 173.857 4.62983 171.48 5.43701C169.713 6.03097 167.93 5.11719 165.522 4.84305C164.349 5.51722 163.251 6.3136 162.246 7.21889C163.282 7.5844 163.51 8.74186 163.769 9.89932C163.265 10.5987 162.59 11.1575 161.808 11.5227C161.027 11.8879 160.165 12.0473 159.305 11.9858C161.042 14.1636 157.918 14.651 157.506 16.4481C158.297 18.0166 158.709 19.7482 158.71 21.5044C158.334 21.9198 157.851 22.2235 157.313 22.382C156.775 22.5406 156.204 22.5478 155.663 22.4029C153.102 24.063 149.232 26.0276 145.239 24.4742C143.365 24.5808 143.578 26.7891 141.079 26.2713C139.83 23.3929 142.085 21.8242 143.167 20.3165C142.716 19.2124 141.932 18.2761 140.925 17.6374C139.917 16.9988 138.735 16.6896 137.544 16.7527C137.041 17.2401 137.3 18.4889 137.239 19.4179C135.532 20.1032 134.999 21.946 132.469 21.809C132.317 22.9969 132.256 23.9107 130.686 23.8802C127.471 23.8802 128.888 19.1742 128.004 16.7527C125.612 16.2349 125.17 17.6665 123.54 17.9406C121.696 17.6513 121.238 15.6562 119.075 15.2602C116.56 14.7881 113.162 16.4024 110.45 14.9556C108.651 17.0421 106.868 19.1133 102.708 18.8239C101.901 19.6007 102.861 21.6719 102.404 22.0983C100.918 23.096 99.1192 23.5183 97.3443 23.2863C95.4547 22.2202 95.0281 19.6616 92.2851 19.4179C91.6908 18.7326 93.0013 18.1538 92.8794 17.0421C90.3193 16.8593 88.7193 17.6513 86.6316 17.9406C86.1135 19.2047 86.083 20.9866 84.2543 20.9866C84.3718 21.5646 84.3517 22.1621 84.1955 22.7309C84.0393 23.2997 83.7515 23.8238 83.3553 24.261C80.4033 24.9321 77.3071 24.4815 74.6693 22.9969C74.6693 20.88 71.3625 21.1541 72.5816 18.8239C70.6005 18.9153 69.0767 18.5498 68.711 17.0421C68.3452 15.5343 69.3053 15.2602 69.5948 14.3616C68.0709 13.5088 67.5681 10.0212 65.7394 9.60996C63.9108 9.19876 63.286 10.7674 61.564 11.6812C58.7449 10.9349 56.1848 9.91455 55.3162 7.21889C50.7446 5.69592 46.0968 5.69592 44.2987 9.60996C43.1101 9.91455 42.0129 10.2953 41.9215 11.6812C43.2625 12.4275 44.6796 13.0823 44.893 14.9556C43.1253 16.4786 38.6909 17.0573 36.8622 15.2602C35.9174 15.7019 35.3384 16.5852 34.1802 16.7832C36.1308 20.7581 29.9134 19.9966 30.9039 24.8092C33.0831 26.2256 34.7745 30.4747 31.7878 32.2413C29.3496 32.3175 29.2886 29.9873 27.0333 29.8655C25.6923 30.6879 25.3418 31.8454 23.757 31.952C22.7817 31.952 21.7455 31.023 20.4807 30.7641C17.9359 30.231 14.6596 30.6727 13.6386 31.952C13.8214 33.7643 11.749 34.4497 10.0575 35.2264C7.89361 33.81 4.76969 35.6223 3.21535 36.7493C12.9833 37.7545 23.4065 37.0083 32.9764 37.3433C34.1498 37.3433 35.3231 37.922 36.5575 37.9525C39.4223 37.9525 42.3786 36.7798 45.4873 36.7493C62.2498 36.5818 82.2124 37.6327 99.6606 36.1554C117.566 34.6324 135.883 37.1301 152.356 36.46C154.261 36.3838 155.647 36.3838 157.415 36.46C161.987 36.6732 167.274 37.3738 171.419 36.7493C173.446 36.4448 175.031 34.8304 177.073 34.0841C180.121 32.9724 183.397 33.6882 187.191 34.0841C195.862 34.9827 205.478 33.4597 211.893 33.1856C204.274 30.0026 187.176 36.3077 185.987 26.0428C184.784 25.8601 182.818 26.4388 182.117 25.7535C181.644 24.7331 183.519 23.8802 183.641 22.4791C181.703 21.5659 179.714 20.7675 177.682 20.088C177.288 19.5343 177.029 18.896 176.926 18.2243C176.823 17.5526 176.878 16.8661 177.088 16.2197C177.759 15.4125 179.298 15.4582 180.136 14.6967C179.465 13.3412 180.136 11.7878 180.441 10.5237C181.289 9.78777 182.366 9.36802 183.488 9.33582C184.144 6.82292 180.959 4.31001 179.816 2.75658Z" fill="#BABAAE"/>
<path fill-rule="evenodd" clip-rule="evenodd" d="M57.16 14.666C57.3124 15.8083 56.398 15.8844 56.2609 16.7525C58.1657 16.7525 61.9297 15.0925 61.9144 18.8238C60.7106 18.8238 60.9696 17.1942 60.1315 16.7525C58.8362 17.0266 57.0838 18.0927 55.6666 17.3465C55.4837 16.0519 56.1847 15.6712 56.5657 14.9554C52.6493 15.1991 50.4702 15.4275 47.9254 17.0419C47.7882 17.9861 48.8397 17.712 48.5197 18.8238C47.1837 18.928 45.875 19.2575 44.6491 19.7985C44.5697 20.3409 44.609 20.8942 44.7642 21.42C44.9194 21.9459 45.1869 22.4318 45.5481 22.8444C43.0947 22.8444 44.0243 17.6511 47.3311 18.3821C48.1387 18.108 46.5387 17.8338 47.0415 16.8591C50.0151 14.8746 53.631 14.0909 57.16 14.666Z" fill="#BABAAE"/>
<path fill-rule="evenodd" clip-rule="evenodd" d="M201.546 44.4097C201.957 45.293 203.07 45.5367 203.07 46.8007C202.78 48.4608 201.074 49.0547 201.866 50.9585C205.965 51.324 209.653 49.0395 213.478 51.857C214.438 55.0553 217.166 56.5021 220.03 57.7966C217.927 59.7308 214.377 58.3906 211.695 58.4058C207.931 58.4058 204.076 58.2078 199.794 58.4058C194.292 58.6495 188.547 58.9845 182.818 58.9998C171.48 58.9998 160.356 58.223 149.476 58.1012C150.573 54.1415 157.171 55.6797 159.594 53.0449C162.078 53.7455 164.348 52.9535 166.741 52.7403C165.994 51.3087 163.388 51.7352 163.175 49.6944C163.968 48.476 168.067 47.0292 170.322 47.014C172.208 47.2356 174.029 47.8421 175.671 48.7958C176.89 48.2323 176.616 46.1763 177.454 45.2321C178.628 44.9657 179.833 44.8632 181.035 44.9275C182.559 45.628 182.559 47.8211 184.083 48.5065C185.164 48.7045 185.225 47.8668 186.17 47.9125C186.841 47.6841 186.292 46.2372 186.46 45.5214C187.107 45.1805 187.818 44.9782 188.547 44.9275C188.867 43.7243 188.547 43.5263 188.547 41.9577C189.111 41.8815 189.645 38.9117 191.595 39.2772C196.395 40.1301 205.721 39.4143 201.546 44.4097ZM159.564 53.9435C158.04 55.6492 153.316 55.8167 152.417 57.2026C160.676 56.8676 168.859 57.6748 177.423 57.7966C181.02 57.7966 183.945 57.0656 186.963 56.9133C197.34 56.365 207.58 58.6647 217.912 57.5072C214.956 57.1874 214.103 54.7659 212.563 53.0449C210.631 52.5977 208.736 52.0019 206.895 51.263C204.883 52.1768 202.079 52.984 200.952 50.9585C200.494 50.1513 201.5 48.674 201.241 46.8007C201.241 45.628 199.794 45.8717 199.717 44.7143C200.449 43.968 201.515 43.5416 201.79 42.3384C200.266 40.0235 193.302 40.6175 190.483 41.4399C190.483 44.2878 189.233 46.0088 186.917 46.4961C186.658 47.5622 187.572 47.943 186.917 48.5826C185.972 48.9329 184.921 49.1766 183.869 49.4659C182.345 48.7045 181.919 46.8617 180.593 45.9022C179.755 46.0697 179.069 46.3438 178.216 46.4961C177.347 48.0191 177.667 49.3441 176.128 49.7705C174.589 50.197 172.044 47.8668 169.286 48.2476C167.229 48.5674 167.213 49.7705 165.11 50.334C165.872 51.0651 167.701 50.73 168.158 51.857C166.954 54.5527 163.053 54.111 159.564 53.9435Z" fill="#BABAAE"/>
</g>
<defs>
<clipPath id="clip0">
<rect width="220" height="59" fill="white"/>
</clipPath>
</defs>
</svg>
