<svg width="1920" height="446" viewBox="0 0 1920 446" fill="none" xmlns="http://www.w3.org/2000/svg">
<path fill-rule="evenodd" clip-rule="evenodd" d="M916.286 365.499C903.359 364.919 888.89 363.418 873.814 361.855C827.679 357.071 775.859 351.698 745.152 370.304C777.819 379.256 886.188 408.654 912.34 375.675C912.012 374.155 911.554 372.806 911.099 371.465L911.097 371.461C910.538 369.812 909.983 368.176 909.679 366.253C911.908 366.576 914.18 366.316 916.286 365.499ZM-28.0242 17.2426C-2.00775 18.0157 23.9932 19.0282 49.9695 20.3567C53.1375 19.5099 56.3243 18.6382 59.5273 17.762C85.5477 10.6442 112.637 3.23383 139.436 6.5058C139.882 7.79421 139.363 9.22928 138.841 10.6735C138.179 12.5035 137.512 14.3483 138.794 15.9282C145.396 16.4398 152.035 15.6396 158.695 14.8369C166.753 13.8657 174.842 12.8908 182.931 14.2321C205.409 24.022 230.884 22.6592 256.547 21.2862C268.181 20.6639 279.852 20.0394 291.301 20.4509C328.005 21.77 368.931 22.5238 406.828 21.2989C408.848 21.2989 410.918 21.4783 412.995 21.6583C421.017 22.3536 429.149 23.0583 434.907 13.4784C436.558 12.5539 438.393 11.9759 440.21 11.403C442.839 10.5747 445.434 9.75731 447.387 7.9191C448.695 7.72452 450.024 7.72452 451.332 7.9191C452.202 8.51909 453.03 9.18031 453.81 9.89787C454.309 11.0126 454.639 12.2525 454.971 13.5006L454.971 13.5019L454.971 13.5034C455.678 16.1579 456.394 18.849 458.765 20.4509C502.006 16.0818 545.586 17.4423 589.326 18.8078C621.049 19.7982 652.857 20.7912 684.681 19.6029C714.595 18.4773 744.627 18.9906 774.634 19.5035C840.08 20.622 905.408 21.7385 969.141 5.84617C970.103 7.41763 969.418 9.09609 968.737 10.7694C967.987 12.6076 967.241 14.4396 968.682 16.1167C974.05 15.6156 979.489 14.6669 984.955 13.7134C995.934 11.7983 1007.02 9.86412 1017.87 11.4997C1018.45 12.4046 1018.91 13.3873 1019.24 14.4206C1045.17 14.8387 1071.06 15.3801 1097.05 15.9236C1182.36 17.7075 1268.75 19.5143 1361.24 17.0588C1427.21 15.457 1497.32 14.5148 1565.5 17.0588C1572.67 17.339 1580.46 17.8901 1588.68 18.4711C1616.38 20.4308 1648.88 22.7302 1678.82 16.1167C1678.82 11.7425 1675.33 10.0344 1671.79 8.30473C1668.54 6.71838 1665.26 5.11382 1664.6 1.41763C1666.09 -0.420698 1668.32 -0.0671687 1670.48 0.275234C1671.64 0.45933 1672.78 0.640209 1673.77 0.475478C1679.15 1.89659 1684.44 4.4025 1689.7 6.8924C1696.65 10.1806 1703.53 13.4408 1710.48 14.1379C1710.96 11.2641 1712.16 8.56862 1713.97 6.31732C1715.37 6.13501 1716.78 6.13501 1718.19 6.31732C1722.42 8.31516 1726.52 10.5809 1730.48 13.1015C1731.83 13.602 1733.27 13.8261 1734.7 13.7611C1739.92 4.22894 1746.71 6.60194 1754.6 9.36127C1759.35 11.0206 1764.5 12.8196 1769.94 12.2535C1777.47 9.59728 1785.56 9.1084 1793.34 10.84C1793.25 12.9543 1792.88 15.0461 1792.24 17.0588C1845.96 20.0332 1902.89 20.7767 1959 20.681L1929.98 425.973C1926.75 424.746 1923.53 423.51 1920.3 422.276L1920.27 422.263C1912.3 419.21 1904.35 416.163 1896.39 413.271C1906.85 421.845 1907.31 430.325 1905.1 444.082C1853.48 446.78 1803.69 446.061 1753.11 445.331C1729.53 444.99 1705.77 444.647 1681.57 444.647C1673.19 444.647 1664.4 444.711 1655.28 444.778C1586.36 445.281 1499.55 445.915 1441.43 419.866C1470.69 390.371 1515.35 391.1 1558.49 391.803C1582.2 392.189 1605.44 392.568 1625.42 387.924C1574.03 388.482 1520.39 384.812 1467.39 381.186L1467.39 381.185C1448.73 379.909 1430.16 378.639 1411.8 377.56C1397.49 376.723 1383.2 375.43 1368.95 374.141L1368.95 374.141C1307.74 368.602 1247.27 363.129 1188.91 394.237L1191.71 394.293C1224.13 394.931 1255.83 395.554 1288.56 398.76C1291.56 399.055 1294.67 399.38 1297.87 399.713C1326.3 402.681 1361.29 406.334 1384.63 395.745C1381.78 405.017 1378.25 414.056 1374.08 422.787C1312.05 433.717 1252.41 434 1188.63 434C1110.03 434 1032.23 429.308 953.791 424.578C926.189 422.913 898.506 421.243 870.681 419.772C808.614 416.527 745.541 418.627 682.508 420.725C643.032 422.039 603.571 423.353 564.382 423.353C486.018 423.353 409.765 419.96 331.126 416.286C296.899 414.684 264.507 414.59 231.289 416.286C199.779 419.228 168.132 420.329 136.5 419.584C113.648 410.314 81.1117 411.39 51.1401 412.382C37.545 412.832 24.4779 413.264 13.0815 412.705C-6.58833 411.827 -25.6889 412.118 -44.8969 412.411H-44.8989C-54.5435 412.558 -64.2155 412.705 -74 412.705L-28.0242 17.2426Z" fill="#C2A55C"/>
</svg>
