<svg width="1920" height="291" viewBox="0 0 1920 291" fill="none" xmlns="http://www.w3.org/2000/svg">
<path d="M1150.88 0.00244141L1100.6 6.62807L1057.46 2.12265L976.746 0.00244141L919.848 17.7591L845.482 0.00244141L748.093 7.42315L682.196 0.00244141H640.912V291H1281.09V0.00244141L1222.6 12.1936L1150.88 0.00244141Z" fill="#9A745B"/>
<path d="M660 27.6966L668.469 61.6198C668.469 61.6198 689.376 55.2592 690.699 53.9341C692.022 52.609 694.139 32.467 694.139 32.467L677.202 11L660 27.6966Z" fill="#603813"/>
<path d="M655.675 236.795L648 252.167C648 252.167 657.792 256.407 658.586 256.407C659.644 256.407 666.79 249.516 666.79 249.516L667.319 236L655.675 236.795Z" fill="#603813"/>
<path d="M979.675 81.7951L972 97.1665C972 97.1665 981.792 101.407 982.586 101.407C983.644 101.407 990.79 94.5163 990.79 94.5163L991.319 81L979.675 81.7951Z" fill="#603813"/>
<path d="M858.45 71.5591L872.476 81.365C872.476 81.365 878.034 72.3541 878.299 71.294C878.299 70.2339 872.741 62.2832 872.741 62.2832L859.509 59.8979L858.45 71.5591Z" fill="#603813"/>
<path d="M1177.06 68.3005L1176 85.2621C1176 85.2621 1186.59 85.2621 1187.38 84.9971C1188.17 84.4671 1192.14 75.4562 1192.14 75.4562L1187.38 63L1177.06 68.3005Z" fill="#603813"/>
<path d="M1095 218.276L1101.35 234.177C1101.35 234.177 1111.14 229.672 1111.67 228.877C1112.2 228.082 1111.94 218.276 1111.94 218.276L1102.41 209L1095 218.276Z" fill="#603813"/>
<path d="M1013.27 76.3297L1024.91 88.7859C1024.91 88.7859 1032.32 81.1001 1032.59 80.04C1032.85 79.245 1028.88 69.9691 1028.88 69.9691L1016.44 64.9336L1013.27 76.3297Z" fill="#603813"/>
<path d="M1179 166.866L1190.12 179.852C1190.12 179.852 1197.79 172.432 1198.05 171.636C1198.32 170.841 1194.61 161.566 1194.61 161.566L1182.44 156L1179 166.866Z" fill="#603813"/>
<path d="M1069.88 91.9015L1086.82 90.8414C1086.82 90.8414 1085.49 80.2404 1084.97 79.4453C1084.44 78.6503 1074.91 76 1074.91 76L1063 82.3606L1069.88 91.9015Z" fill="#603813"/>
<path d="M1024.65 33.9257L1031.26 23.3247C1031.26 23.3247 1023.06 16.9641 1022.27 16.6991C1021.47 16.4341 1015.38 20.1444 1015.38 20.1444L1014.86 31.2755L1024.65 33.9257Z" fill="#603813"/>
<path d="M699.663 260.257L700.457 247.801C700.457 247.801 690.136 245.946 689.342 246.211C688.548 246.476 684.843 252.572 684.843 252.572L689.606 262.643L699.663 260.257Z" fill="#603813"/>
<path d="M734.596 32.8658L727.451 22.5298C727.451 22.5298 718.188 27.3002 717.659 28.0953C717.13 28.6254 718.188 35.7811 718.188 35.7811L728.245 40.8165L734.596 32.8658Z" fill="#603813"/>
<path d="M1069 175.322L1093.61 200.235C1093.61 200.235 1108.43 184.068 1108.96 182.213C1109.49 180.358 1101.02 161.806 1101.02 161.806L1075.35 152L1069 175.322Z" fill="#603813"/>
<path d="M1187.14 225.804L1204.08 237.995C1204.08 237.995 1220.22 224.214 1221.01 222.889C1221.81 221.564 1217.84 210.697 1217.84 210.697L1196.93 208.842L1187.14 225.804Z" fill="#603813"/>
<path d="M1216.25 80.0398L1245.36 90.3758C1245.36 90.3758 1259.39 65.4634 1258.06 64.6683C1253.57 62.2831 1231.86 49.2969 1231.86 49.2969L1214.13 60.4279L1216.25 80.0398Z" fill="#603813"/>
<path d="M932.529 223.481L932 254.224C932 254.224 960.052 259.524 960.317 257.934C961.111 252.899 966.404 228.251 966.404 228.251L950.261 215L932.529 223.481Z" fill="#603813"/>
<path d="M1008 176.746L1046.9 168L1052.2 194.768L1041.35 224.45L1008 211.464V176.746Z" fill="#754C24"/>
<path d="M779 123.694L787.998 85L814.462 91.6256L836.428 114.153L810.228 138.8L779 123.694Z" fill="#754C24"/>
<path d="M1136.59 87.991L1105.1 63.6087L1122.3 42.4067L1151.94 31.8057L1163.32 65.7289L1136.59 87.991Z" fill="#754C24"/>
<path d="M1229 195.647L1236.15 171L1252.82 176.301L1266.05 191.407L1248.32 206.248L1229 195.647Z" fill="#754C24"/>
<path d="M800.757 217.058L790.966 200.096L802.61 193.736L817.959 194.266L816.901 211.758L800.757 217.058Z" fill="#754C24"/>
<path d="M748.093 76.8599L753.651 95.4117L740.948 99.122L726.127 94.8816L731.156 78.185L748.093 76.8599Z" fill="#754C24"/>
<path d="M983.098 29.6851L988.656 48.2368L975.952 51.9472L961.132 47.7068L966.161 31.0102L983.098 29.6851Z" fill="#754C24"/>
<path d="M1153.91 206L1170.32 216.601L1162.91 227.732L1149.15 234.093L1142 218.191L1153.91 206Z" fill="#754C24"/>
<path d="M1043.17 32.3351L1055.88 17.4937L1065.93 26.2395L1070.43 40.8159L1053.49 45.8514L1043.17 32.3351Z" fill="#754C24"/>
<path d="M884.121 46.3814L884.65 36.0454L891.795 36.5755L898.411 41.3459L892.854 49.0316L884.121 46.3814Z" fill="#754C24"/>
<path d="M1198.52 47.9719L1190.31 41.6113L1194.81 36.0458L1202.49 33.3955L1205.4 42.4064L1198.52 47.9719Z" fill="#754C24"/>
<path d="M1266.2 96.8414L1258 90.2158L1262.5 84.9153L1270.44 82L1273.08 91.0108L1266.2 96.8414Z" fill="#754C24"/>
<path d="M802.081 58.838L799.434 40.8162L811.873 39.2261L824.84 45.0566L817.959 59.8981L802.081 58.838Z" fill="#754C24"/>
<path d="M933.588 87.1311L932 77.0601L939.145 76L946.555 79.4453L942.586 87.9261L933.588 87.1311Z" fill="#754C24"/>
<path d="M1146.38 191.616L1152.47 183.135L1158.03 187.375L1161.2 195.061L1152.47 198.241L1146.38 191.616Z" fill="#754C24"/>
<path d="M510.838 0L460.205 6.62568L417.26 2.12022L336.141 0L279.145 17.7568L204.653 0L107.364 7.42077L41.0897 0H0V291H641V0L582.414 12.1913L510.838 0Z" fill="#9A745B"/>
<path d="M26.406 49.0319L34.8746 82.9552C34.8746 82.9552 55.7816 76.5946 57.1048 75.2694C58.4281 73.9443 60.5452 53.8024 60.5452 53.8024L43.3433 32.0703L26.406 49.0319Z" fill="#603813"/>
<path d="M48.6361 113.168L40.9614 128.54C40.9614 128.54 50.7533 132.78 51.5472 132.78C52.6058 132.78 59.7512 125.889 59.7512 125.889L60.2805 112.373L48.6361 113.168Z" fill="#603813"/>
<path d="M78.5351 176.17L87.9341 190.552C87.9341 190.552 96.5358 184.238 96.9364 183.552C97.4705 182.638 95.1266 172.992 95.1266 172.992L83.724 165.715L78.5351 176.17Z" fill="#603813"/>
<path d="M179.9 244.886L172.225 260.257C172.225 260.257 182.017 264.498 182.811 264.498C183.87 264.498 191.015 257.607 191.015 257.607L191.544 244.091L179.9 244.886Z" fill="#603813"/>
<path d="M213.245 63.6084L227.272 73.4143C227.272 73.4143 232.829 64.4035 233.094 63.3434C233.094 62.2833 227.536 54.3325 227.536 54.3325L214.304 51.9473L213.245 63.6084Z" fill="#603813"/>
<path d="M318.045 141.261L332.071 151.067C332.071 151.067 337.628 142.056 337.893 140.996C337.893 139.936 332.336 131.985 332.336 131.985L319.103 129.6L318.045 141.261Z" fill="#603813"/>
<path d="M455.925 239.321L462.276 255.222C462.276 255.222 472.068 250.717 472.597 249.922C473.127 249.127 472.862 239.321 472.862 239.321L463.335 230.045L455.925 239.321Z" fill="#603813"/>
<path d="M250.031 147.622L248.972 164.583C248.972 164.583 259.558 164.848 260.352 164.318C261.146 163.788 265.116 154.777 265.116 154.777L260.617 142.321L250.031 147.622Z" fill="#603813"/>
<path d="M326.73 207.265L336.052 193.055C336.052 193.055 326.988 187.581 326.035 187.648C325.083 187.715 317.171 193.576 317.171 193.576L314.908 206.625L326.73 207.265Z" fill="#603813"/>
<path d="M606.243 261.582L617.358 274.569C617.358 274.569 625.033 267.148 625.298 266.353C625.562 265.558 621.857 256.282 621.857 256.282L609.684 250.716L606.243 261.582Z" fill="#603813"/>
<path d="M459.101 128.01L476.038 126.95C476.038 126.95 474.715 116.349 474.185 115.554C473.656 114.759 464.129 112.108 464.129 112.108L452.22 118.469L459.101 128.01Z" fill="#603813"/>
<path d="M384.471 33.9257L391.087 23.3247C391.087 23.3247 382.883 16.9641 382.089 16.6991C381.295 16.4341 375.208 20.1444 375.208 20.1444L374.679 31.2755L384.471 33.9257Z" fill="#603813"/>
<path d="M48.1067 261.318L48.9007 248.862C48.9007 248.862 38.5795 247.006 37.7856 247.272C36.9917 247.537 33.2866 253.632 33.2866 253.632L38.0502 263.703L48.1067 261.318Z" fill="#603813"/>
<path d="M137.82 239.072L138.614 226.616C138.614 226.616 128.293 224.761 127.499 225.026C126.705 225.291 123 231.387 123 231.387L127.764 241.457L137.82 239.072Z" fill="#603813"/>
<path d="M94.6844 32.8658L87.539 22.5298C87.539 22.5298 78.2764 27.3002 77.7471 28.0953C77.2178 28.6254 78.2764 35.7811 78.2764 35.7811L88.3329 40.8165L94.6844 32.8658Z" fill="#603813"/>
<path d="M98.9458 145.923L98.8288 133.358C98.8288 133.358 88.4848 132.111 87.6006 132.472C86.8651 132.614 83.7273 139.132 83.7273 139.132L89.2276 148.942L98.9458 145.923Z" fill="#603813"/>
<path d="M374.679 91.9663L399.291 116.879C399.291 116.879 414.111 100.712 414.64 98.8569C415.169 97.0018 406.701 78.45 406.701 78.45L381.03 68.644L374.679 91.9663Z" fill="#603813"/>
<path d="M71.3955 222.624L70.8662 253.367C70.8662 253.367 98.9186 258.668 99.1832 257.078C99.9772 252.042 105.27 227.395 105.27 227.395L89.1267 214.144L71.3955 222.624Z" fill="#603813"/>
<path d="M299.52 105.748L302.96 75.0046C302.96 75.0046 275.702 67.0538 275.172 68.379C273.849 73.4144 266.174 97.2667 266.174 97.2667L280.994 112.108L299.52 105.748Z" fill="#603813"/>
<path d="M258.237 183.83L240.018 208.831C240.018 208.831 259.758 229.241 260.874 228.352C264.518 224.633 283.001 207.716 283.001 207.716L277.48 187.482L258.237 183.83Z" fill="#603813"/>
<path d="M156.342 207.204L173.894 232.678C173.894 232.678 199.692 220.817 199.223 219.469C196.922 214.799 187.085 191.754 187.085 191.754L166.165 190.258L156.342 207.204Z" fill="#603813"/>
<path d="M372.562 221.034L411.464 212.553L416.757 239.32L406.171 268.738L372.562 255.752V221.034Z" fill="#754C24"/>
<path d="M496.68 87.991L465.188 63.6087L482.125 42.4067L511.765 31.8057L523.145 65.7289L496.68 87.991Z" fill="#754C24"/>
<path d="M395.315 185.255L358 198.772L349.267 172.799L356.147 142.056L391.081 150.802L395.315 185.255Z" fill="#754C24"/>
<path d="M243.673 100.407L235.817 139.309L209.091 133.266L186.407 111.404L212.041 86.1107L243.673 100.407Z" fill="#754C24"/>
<path d="M171.571 178.691L134.594 193.107L125.235 167.354L131.369 136.453L166.504 144.35L171.571 178.691Z" fill="#754C24"/>
<path d="M23.7595 178.365L43.0786 175.979L44.4018 189.231L37.7857 203.012L22.1716 195.326L23.7595 178.365Z" fill="#754C24"/>
<path d="M107.917 76.8604L113.739 95.4121L100.771 99.1225L85.9512 94.8821L90.9794 78.1855L107.917 76.8604Z" fill="#754C24"/>
<path d="M161.233 96.4651L146.195 108.791L137.913 98.1452L136.315 82.8133L153.682 81.2464L161.233 96.4651Z" fill="#754C24"/>
<path d="M342.921 29.6855L348.479 48.2373L335.776 51.9477L320.956 47.7073L325.984 31.0107L342.921 29.6855Z" fill="#754C24"/>
<path d="M517.587 245.681L533.995 256.282L526.85 267.413L512.824 273.774L505.678 257.872L517.587 245.681Z" fill="#754C24"/>
<path d="M244.738 260.523L257.441 245.681L267.233 254.427L271.997 269.003L255.059 274.039L244.738 260.523Z" fill="#754C24"/>
<path d="M403.26 32.3356L415.699 17.4941L425.755 26.24L430.254 40.8164L413.582 45.8519L403.26 32.3356Z" fill="#754C24"/>
<path d="M243.944 46.3819L244.473 36.0459L251.619 36.5759L258.235 41.3464L252.677 49.0321L243.944 46.3819Z" fill="#754C24"/>
<path d="M558.343 47.9719L550.138 41.6113L554.637 36.0458L562.577 33.3955L565.488 42.4064L558.343 47.9719Z" fill="#754C24"/>
<path d="M648.939 92.8414L641 86.2158L645.499 80.9153L653.174 78L656.085 87.0108L648.939 92.8414Z" fill="#754C24"/>
<path d="M162.169 58.8385L159.522 40.8167L171.696 39.2266L184.928 45.0571L178.048 59.8986L162.169 58.8385Z" fill="#754C24"/>
<path d="M342.921 252.837L341.333 242.766L348.479 241.706L355.889 245.151L351.919 253.632L342.921 252.837Z" fill="#754C24"/>
<path d="M468.893 175.184L474.979 166.703L480.537 170.944L483.713 178.629L474.979 181.81L468.893 175.184Z" fill="#754C24"/>
<path d="M321.22 94.3517L323.338 84.2808L330.218 85.6059L336.305 91.4364L329.689 98.0621L321.22 94.3517Z" fill="#754C24"/>
<path d="M1791.06 0.00244141L1740.51 6.62807L1697.64 2.12265L1616.66 0.00244141L1559.76 17.7591L1485.39 0.00244141L1388.27 7.42315L1322.11 0.00244141H1281.09V291H1921V0.00244141L1862.51 12.1936L1791.06 0.00244141Z" fill="#9A745B"/>
<path d="M1306.49 49.032L1314.96 82.9553C1314.96 82.9553 1335.87 76.5947 1337.19 75.2696C1338.52 73.9444 1340.63 53.8025 1340.63 53.8025L1323.7 32.3354L1306.49 49.032Z" fill="#603813"/>
<path d="M1328.72 89.1681L1321.05 104.54C1321.05 104.54 1330.84 108.78 1331.64 108.78C1332.69 108.78 1339.84 101.889 1339.84 101.889L1340.37 88.373L1328.72 89.1681Z" fill="#603813"/>
<path d="M1388.67 260.795L1381 276.167C1381 276.167 1390.79 280.407 1391.59 280.407C1392.64 280.407 1399.79 273.516 1399.79 273.516L1400.32 260L1388.67 260.795Z" fill="#603813"/>
<path d="M1493.07 63.6084L1507.1 73.4143C1507.1 73.4143 1512.65 64.4035 1512.92 63.3434C1512.92 62.2833 1507.36 54.3325 1507.36 54.3325L1494.13 51.9473L1493.07 63.6084Z" fill="#603813"/>
<path d="M1598.13 141.261L1612.16 151.067C1612.16 151.067 1617.72 142.056 1617.98 140.996C1617.98 139.936 1612.42 131.985 1612.42 131.985L1599.19 129.6L1598.13 141.261Z" fill="#603813"/>
<path d="M1635.51 175.1L1651.89 170.158C1651.89 170.158 1648.26 160.214 1647.59 159.35C1646.76 158.694 1637.07 158.135 1637.07 158.135L1627.01 167.049L1635.51 175.1Z" fill="#603813"/>
<path d="M1800.85 124.564L1799.79 141.526C1799.79 141.526 1810.38 141.526 1811.17 141.261C1811.97 140.996 1815.94 131.72 1815.94 131.72L1811.17 119.264L1800.85 124.564Z" fill="#603813"/>
<path d="M1736.01 239.321L1742.36 255.222C1742.36 255.222 1752.16 250.717 1752.69 249.922C1753.22 249.127 1752.95 239.321 1752.95 239.321L1743.42 230.045L1736.01 239.321Z" fill="#603813"/>
<path d="M1720.38 206.295L1737.33 208.745C1737.33 208.745 1738.32 198.012 1737.9 197.156C1737.47 196.3 1728.85 191.627 1728.85 191.627L1716.05 195.239L1720.38 206.295Z" fill="#603813"/>
<path d="M1497.06 152.301L1496 169.262C1496 169.262 1506.59 169.527 1507.38 168.997C1508.17 168.467 1512.14 159.456 1512.14 159.456L1507.38 147L1497.06 152.301Z" fill="#603813"/>
<path d="M1886.33 261.582L1897.45 274.569C1897.45 274.569 1905.12 267.148 1905.39 266.353C1905.65 265.558 1901.95 256.282 1901.95 256.282L1889.77 250.716L1886.33 261.582Z" fill="#603813"/>
<path d="M1739.19 128.01L1756.13 126.95C1756.13 126.95 1754.8 116.349 1754.27 115.554C1753.74 114.759 1744.22 112.108 1744.22 112.108L1732.31 118.469L1739.19 128.01Z" fill="#603813"/>
<path d="M1808.62 93.4278L1820.6 105.443C1820.6 105.443 1827.69 97.4469 1827.93 96.5244C1828.18 95.6018 1823.88 86.6985 1823.88 86.6985L1811.24 81.9595L1808.62 93.4278Z" fill="#603813"/>
<path d="M1664.56 33.9257L1671.18 23.3247C1671.18 23.3247 1662.97 16.9641 1662.18 16.6991C1661.38 16.4341 1655.3 20.1444 1655.3 20.1444L1654.77 31.2755L1664.56 33.9257Z" fill="#603813"/>
<path d="M1328.2 261.317L1328.99 248.861C1328.99 248.861 1318.67 247.006 1317.87 247.271C1317.08 247.536 1313.37 253.632 1313.37 253.632L1318.14 263.703L1328.2 261.317Z" fill="#603813"/>
<path d="M1374.77 32.8653L1367.63 22.5293C1367.63 22.5293 1358.36 27.2998 1357.84 28.0948C1357.31 28.6249 1358.36 35.7806 1358.36 35.7806L1368.42 40.8161L1374.77 32.8653Z" fill="#603813"/>
<path d="M1481.67 225.325L1465 256.068C1465 256.068 1484.58 265.344 1486.7 265.344C1488.55 265.344 1503.64 251.563 1503.64 251.563L1505.49 224L1481.67 225.325Z" fill="#603813"/>
<path d="M1597.71 251.501L1577.07 240.933C1577.07 240.933 1571.6 254.667 1571.66 256.123C1571.72 257.397 1581.2 267.367 1581.2 267.367L1599.31 267.838L1597.71 251.501Z" fill="#603813"/>
<path d="M1544 157.322L1568.61 182.235C1568.61 182.235 1583.43 166.068 1583.96 164.213C1584.49 162.358 1576.02 143.806 1576.02 143.806L1550.35 134L1544 157.322Z" fill="#603813"/>
<path d="M1837.9 231.37L1854.84 243.561C1854.84 243.561 1870.98 229.78 1871.78 228.455C1872.57 227.129 1868.6 216.263 1868.6 216.263L1847.69 214.408L1837.9 231.37Z" fill="#603813"/>
<path d="M1856.43 80.0398L1885.54 90.3758C1885.54 90.3758 1899.56 65.4634 1898.24 64.6683C1893.74 62.2831 1872.04 49.2969 1872.04 49.2969L1854.31 60.4279L1856.43 80.0398Z" fill="#603813"/>
<path d="M1579.61 105.747L1583.05 75.0041C1583.05 75.0041 1555.79 67.0533 1555.26 68.3785C1553.94 73.414 1546.26 97.2662 1546.26 97.2662L1561.08 112.108L1579.61 105.747Z" fill="#603813"/>
<path d="M1652.65 221.034L1691.55 212.553L1696.85 239.32L1686.26 268.738L1652.65 255.752V221.034Z" fill="#754C24"/>
<path d="M1656 110.694L1665 72L1691.46 78.6256L1713.43 101.153L1687.23 125.8L1656 110.694Z" fill="#754C24"/>
<path d="M1776.77 87.991L1745.28 63.6087L1762.21 42.4067L1791.85 31.8057L1803.23 65.7289L1776.77 87.991Z" fill="#754C24"/>
<path d="M1858.81 171.739L1865.95 147.356L1882.63 152.392L1895.86 167.763L1878.13 182.34L1858.81 171.739Z" fill="#754C24"/>
<path d="M1522.79 225.322L1513 208.361L1524.64 202L1539.99 202.53L1538.67 220.022L1522.79 225.322Z" fill="#754C24"/>
<path d="M1388 76.8599L1393.83 95.4117L1380.86 99.122L1366.04 94.8816L1371.07 78.185L1388 76.8599Z" fill="#754C24"/>
<path d="M1623.01 29.6855L1628.57 48.2373L1615.86 51.9477L1601.04 47.7073L1606.07 31.0107L1623.01 29.6855Z" fill="#754C24"/>
<path d="M1797.68 245.681L1814.08 256.282L1806.94 267.413L1792.91 273.773L1785.77 257.872L1797.68 245.681Z" fill="#754C24"/>
<path d="M1523 268.841L1535.7 254L1545.49 262.746L1549.99 277.322L1533.32 282.358L1523 268.841Z" fill="#754C24"/>
<path d="M1683.35 32.3356L1695.79 17.4941L1705.84 26.24L1710.34 40.8164L1693.67 45.8519L1683.35 32.3356Z" fill="#754C24"/>
<path d="M1524.03 46.3819L1524.56 36.0459L1531.71 36.5759L1538.32 41.3464L1532.77 49.0321L1524.03 46.3819Z" fill="#754C24"/>
<path d="M1838.43 47.9719L1830.23 41.6113L1834.73 36.0458L1842.67 33.3955L1845.58 42.4064L1838.43 47.9719Z" fill="#754C24"/>
<path d="M1898.51 143.381L1890.57 136.756L1895.06 131.455L1902.74 128.54L1905.65 137.551L1898.51 143.381Z" fill="#754C24"/>
<path d="M1442.26 58.8385L1439.35 40.8167L1451.78 39.2266L1465.02 45.0571L1457.87 59.8986L1442.26 58.8385Z" fill="#754C24"/>
<path d="M1623.01 252.837L1621.42 242.766L1628.57 241.706L1635.98 245.151L1632.01 253.632L1623.01 252.837Z" fill="#754C24"/>
<path d="M1638.03 195.492L1647.53 191.815L1650.08 198.575L1648.27 206.546L1639.15 204.455L1638.03 195.492Z" fill="#754C24"/>
<path d="M1748.98 175.184L1755.07 166.703L1760.63 170.944L1763.8 178.629L1755.07 181.81L1748.98 175.184Z" fill="#754C24"/>
<path d="M1601.31 94.3512L1603.43 84.2803L1610.31 85.6054L1616.39 91.4359L1609.78 98.0616L1601.31 94.3512Z" fill="#754C24"/>
<path d="M1855.02 112.208L1845.26 94.1479C1844.52 94.444 1843.78 94.8881 1843.19 95.6282L1829.74 113.984C1829.3 114.576 1829 115.316 1829 116.056L1849.55 119.165L1855.02 112.208Z" fill="#F39200"/>
<path d="M1870.09 108.063C1870.09 107.175 1869.8 106.434 1869.21 105.694L1861.67 96.6645C1861.08 95.9244 1860.04 95.4803 1859.15 95.3323L1846.74 94C1846.29 94 1845.7 94 1845.26 94.148L1855.02 112.06L1870.09 108.063Z" fill="#F8BE66"/>
<path d="M1854.72 112.355L1849.4 119.165C1850.29 122.273 1852.5 129.971 1853.54 134.116C1854.13 133.968 1854.72 133.524 1855.16 133.08L1865.51 121.533C1865.81 121.089 1866.1 120.645 1866.25 120.201L1866.4 119.905L1854.72 112.355Z" fill="#F8BE66"/>
<path d="M1849.55 119.165L1829 116.056C1829 116.648 1829.15 117.388 1829.44 117.832L1837.43 134.56C1838.16 136.188 1839.94 137.076 1841.71 136.632L1853.24 134.264C1853.39 134.264 1853.54 134.116 1853.83 134.116C1852.5 129.971 1850.43 122.273 1849.55 119.165Z" fill="#F5A833"/>
<path d="M1854.87 112.06L1855.02 112.208L1854.87 112.356L1866.55 119.905L1869.95 109.395C1870.09 108.951 1870.09 108.507 1870.09 108.063L1854.87 112.06Z" fill="#F5A833"/>
<path d="M1507.89 108.542L1500.13 119.889C1500.44 120.019 1500.74 120.149 1501.09 120.165L1513.25 121.871C1513.6 121.886 1513.95 121.902 1514.3 121.917L1510.61 110.124L1507.89 108.542Z" fill="#F8BE66"/>
<path d="M1491.86 106.256L1507.34 109.395L1507.84 108.657L1509.26 94.9852C1508.91 94.9697 1508.5 95.0689 1508.25 95.2332L1492.41 105.404C1492.16 105.568 1492.01 105.912 1491.86 106.256Z" fill="#F8BE66"/>
<path d="M1510.46 110.058L1526.83 109.905C1526.72 109.725 1526.57 109.66 1526.47 109.48L1511.17 95.5369C1510.66 95.047 1510.01 94.9013 1509.51 94.8207L1508.09 108.493L1510.46 110.058Z" fill="#F5A833"/>
<path d="M1492.07 107.025L1499.07 119.024C1499.28 119.383 1499.68 119.693 1499.93 119.938L1507.14 109.445L1491.66 106.306C1491.91 106.551 1492.01 106.731 1492.07 107.025Z" fill="#F39200"/>
<path d="M1510.46 110.058L1514.15 121.852C1514.55 121.753 1514.8 121.588 1515.05 121.424L1526.59 111.706C1527.14 111.262 1527.08 110.559 1526.63 109.954L1510.46 110.058Z" fill="#F39200"/>
<path d="M1690.57 162.6L1677.5 149.511C1677.33 149.681 1676.99 150.021 1676.99 150.361L1673.26 162.77C1673.09 163.109 1673.09 163.449 1673.09 163.789L1688.19 164.469L1690.57 162.6Z" fill="#F8BE66"/>
<path d="M1695.66 146.112L1689.72 161.58L1690.57 162.43L1707.37 169.569C1707.37 169.059 1707.37 168.719 1707.2 168.209L1696.51 146.792C1696.34 146.622 1696 146.282 1695.66 146.112Z" fill="#F8BE66"/>
<path d="M1688.36 164.639L1686.5 182.487C1686.67 182.487 1686.83 182.317 1687 182.317L1706.35 171.438C1707.03 171.098 1707.37 170.589 1707.37 169.909L1690.57 162.77L1688.36 164.639Z" fill="#F5A833"/>
<path d="M1694.64 146.112L1678.86 148.831C1678.35 148.831 1678.01 149.171 1677.67 149.511L1689.89 161.75L1695.83 146.282C1695.32 145.942 1694.98 145.942 1694.64 146.112Z" fill="#F39200"/>
<path d="M1688.36 164.639L1673.26 163.959C1673.26 164.299 1673.43 164.809 1673.6 165.149L1684.29 181.637C1684.8 182.317 1685.65 182.657 1686.5 182.487L1688.36 164.639Z" fill="#F39200"/>
<path d="M1594.03 196.172L1577 198.986C1577.17 199.483 1577.33 199.814 1577.83 200.145L1595.51 215.54C1596.34 216.367 1597.66 216.367 1598.49 215.705L1600.31 202.628L1594.03 196.172Z" fill="#F5A833"/>
<path d="M1595.51 197.496L1609.73 185.413C1609.4 184.916 1608.9 184.585 1608.24 184.419L1596.01 181.109C1595.35 180.943 1594.69 180.943 1594.19 181.274L1594.36 196.338L1595.51 197.496Z" fill="#F39200"/>
<path d="M1600.14 202.297L1600.31 202.462L1598.49 215.539C1598.49 215.539 1598.65 215.539 1598.65 215.374L1614.36 203.125C1614.69 202.959 1614.85 202.628 1615.02 202.462L1600.14 202.297Z" fill="#F39200"/>
<path d="M1615.18 202.462C1615.51 201.8 1615.68 200.973 1615.35 200.31L1609.89 185.909C1609.89 185.744 1609.73 185.578 1609.56 185.413L1595.35 197.496L1599.98 202.297L1615.18 202.462Z" fill="#F8BE66"/>
<path d="M1594.36 196.503L1594.19 181.44C1594.03 181.605 1593.86 181.605 1593.53 181.771L1577.83 196.338C1577 197 1576.83 197.993 1577.17 198.986L1594.19 196.172L1594.36 196.503Z" fill="#F8BE66"/>
<path d="M207.533 167.952L218.471 166.79C218.471 166.459 218.305 166.293 217.974 165.961L207.367 155.505C206.87 155.007 206.041 154.841 205.378 155.173L203.721 163.471L207.533 167.952Z" fill="#F5A833"/>
<path d="M206.704 166.957L197.258 174.093C197.424 174.425 197.755 174.757 198.086 174.757L205.71 177.247C206.041 177.413 206.539 177.413 206.87 177.247L207.367 167.62L206.704 166.957Z" fill="#F39200"/>
<path d="M203.887 163.637L205.379 155.173H205.213L194.606 162.475C194.441 162.641 194.275 162.807 194.109 162.973L203.887 163.637Z" fill="#F39200"/>
<path d="M194.275 162.973C193.943 163.305 193.943 163.803 194.109 164.301L197.092 173.595C197.092 173.761 197.258 173.761 197.258 173.927L206.704 166.79L203.887 163.471L194.275 162.973Z" fill="#F8BE66"/>
<path d="M207.367 167.786L206.87 177.413C207.036 177.413 207.202 177.247 207.202 177.247L217.808 168.616C218.306 168.118 218.471 167.62 218.305 166.957L207.367 168.118V167.786Z" fill="#F8BE66"/>
<path d="M1436.07 237.723L1445.12 236.761C1445.12 236.486 1444.98 236.349 1444.71 236.074L1435.93 227.418C1435.52 227.006 1434.83 226.868 1434.28 227.143L1432.91 234.013L1436.07 237.723Z" fill="#F5A833"/>
<path d="M1435.38 236.898L1427.56 242.807C1427.7 243.081 1427.97 243.356 1428.25 243.356L1434.56 245.417C1434.83 245.555 1435.24 245.555 1435.52 245.417L1435.93 237.448L1435.38 236.898Z" fill="#F39200"/>
<path d="M1433.19 234.15L1434.42 227.143H1434.28L1425.5 233.189C1425.36 233.326 1425.23 233.463 1425.09 233.601L1433.19 234.15Z" fill="#F39200"/>
<path d="M1425.23 233.601C1424.95 233.875 1424.95 234.288 1425.09 234.7L1427.56 242.394C1427.56 242.532 1427.7 242.532 1427.7 242.669L1435.52 236.761L1433.19 234.013L1425.23 233.601Z" fill="#F8BE66"/>
<path d="M1435.93 237.448L1435.52 245.417C1435.65 245.417 1435.79 245.28 1435.79 245.28L1444.57 238.135C1444.98 237.723 1445.12 237.31 1444.98 236.761L1435.93 237.723V237.448Z" fill="#F8BE66"/>
<path d="M1795.78 197.256L1779.45 209.437C1779.78 209.771 1780.28 210.104 1780.95 210.271L1807.94 216.779C1809.27 217.113 1810.61 216.445 1811.27 215.277L1805.94 200.593L1795.78 197.256Z" fill="#F5A833"/>
<path d="M1798.11 197.924L1806.27 177.399C1805.61 177.065 1804.94 176.899 1804.11 177.065L1789.44 180.403C1788.78 180.57 1788.11 181.07 1787.61 181.571L1796.11 197.423L1798.11 197.924Z" fill="#F39200"/>
<path d="M1805.61 200.426L1805.94 200.593L1811.27 215.277L1811.44 215.11L1821.27 193.418C1821.44 193.084 1821.44 192.751 1821.6 192.25L1805.61 200.426Z" fill="#F39200"/>
<path d="M1821.44 192.25C1821.44 191.416 1821.1 190.415 1820.44 189.914L1806.77 177.9C1806.61 177.733 1806.44 177.566 1806.11 177.566L1797.94 198.09L1805.44 200.593L1821.44 192.25Z" fill="#F8BE66"/>
<path d="M1796.28 197.423L1787.78 181.571C1787.61 181.738 1787.44 182.071 1787.44 182.238L1778.95 206.267C1778.61 207.435 1778.78 208.603 1779.61 209.437L1795.94 197.256L1796.28 197.423Z" fill="#F8BE66"/>
<path d="M743.204 147.841L735 141.216L739.499 135.915L747.174 133L750.085 142.011L743.204 147.841Z" fill="#754C24"/>
<path d="M494.117 118.743L523.228 129.079C523.228 129.079 537.254 104.167 535.931 103.371C531.432 100.986 509.731 88 509.731 88L492 99.1311L494.117 118.743Z" fill="#603813"/>
<path d="M547.588 233.385L566.907 231L568.23 244.251L561.879 258.033L546 250.347L547.588 233.385Z" fill="#754C24"/>
</svg>
