<svg width="126" height="51" viewBox="0 0 126 51" fill="none" xmlns="http://www.w3.org/2000/svg">
<path d="M22.6328 13.5025L52.7924 5.34863L59.0528 12.3659L65.1642 20.3716H20.7944L22.6328 13.5025Z" fill="url(#paint0_linear)" stroke="#C69331" stroke-width="0.1844" stroke-linecap="round" stroke-linejoin="round"/>
<path d="M22.6328 13.5025L52.7924 5.34863L59.0528 12.3659L65.1642 20.3716H20.7944L22.6328 13.5025Z" fill="#F59E25" stroke="#D0842C" stroke-width="0.7088" stroke-linecap="round" stroke-linejoin="round"/>
<path d="M52.7925 5.34872L62.8788 2.63076L64.4191 1.24707L71.8721 6.48533L65.1644 20.3716L59.053 12.366L52.7925 5.34872Z" fill="#FECB22" stroke="#D0842C" stroke-width="0.7088" stroke-linecap="round" stroke-linejoin="round"/>
<path d="M22.6328 13.5026L59.0529 12.366L64.4191 1.24707L28.7442 2.87785L22.6328 13.5026Z" fill="#FAB523" stroke="#D0842C" stroke-width="0.7088" stroke-linecap="round" stroke-linejoin="round"/>
<path opacity="0.67" d="M64.6672 2.08716L71.4247 6.68304C71.4247 6.68304 68.8906 6.43595 64.6672 2.08716Z" fill="white"/>
<path opacity="0.67" d="M29.1416 3.37189L63.4749 1.79053C63.4749 1.79053 35.0046 2.53179 29.1416 3.37189Z" fill="white"/>
<path opacity="0.67" d="M59.7982 9.64795L58.7051 12.0199L50.8049 12.267C50.8049 12.267 57.5623 11.8223 58.1586 11.5752C58.7548 11.3281 59.7982 9.64795 59.7982 9.64795Z" fill="white"/>
<path d="M70.431 8.36328L101.336 13.1568L104.168 22.1508L106.454 31.886L65.9592 13.8981L70.431 8.36328Z" fill="url(#paint1_linear)" stroke="#C69331" stroke-width="0.1844" stroke-linecap="round" stroke-linejoin="round"/>
<path d="M70.431 8.36328L101.336 13.1568L104.168 22.1508L106.454 31.886L65.9592 13.8981L70.431 8.36328Z" fill="#F59E25" stroke="#D0842C" stroke-width="0.7088" stroke-linecap="round" stroke-linejoin="round"/>
<path d="M101.336 13.1567L111.671 14.7875L113.608 14.1451L118.279 21.9531L106.454 31.886L104.168 22.1507L101.336 13.1567Z" fill="#FECB22" stroke="#D0842C" stroke-width="0.7088" stroke-linecap="round" stroke-linejoin="round"/>
<path d="M70.4312 8.36331L104.168 22.1508L113.608 14.1452L80.3684 1.19775L70.4312 8.36331Z" fill="#FAB523" stroke="#D0842C" stroke-width="0.7088" stroke-linecap="round" stroke-linejoin="round"/>
<path opacity="0.67" d="M113.509 14.9854L117.782 21.9532C117.782 21.9532 115.596 20.7178 113.509 14.9854Z" fill="white"/>
<path opacity="0.67" d="M80.5671 1.79077L112.565 14.244C112.565 14.244 86.2314 3.37214 80.5671 1.79077Z" fill="white"/>
<path opacity="0.67" d="M105.957 19.9269L103.969 21.6071L96.6655 18.6421C96.6655 18.6421 103.025 20.9647 103.671 21.0141C104.367 21.0635 105.957 19.9269 105.957 19.9269Z" fill="white"/>
<path d="M99.6962 26.4503L71.226 13.5029L63.9221 19.433L56.6182 26.2527L100.342 33.517L99.6962 26.4503Z" fill="url(#paint2_linear)" stroke="#C69331" stroke-width="0.1844" stroke-linecap="round" stroke-linejoin="round"/>
<path d="M99.6962 26.4503L71.226 13.5029L63.9221 19.433L56.6182 26.2527L100.342 33.517L99.6962 26.4503Z" fill="#F59E25" stroke="#D0842C" stroke-width="0.7088" stroke-linecap="round" stroke-linejoin="round"/>
<path d="M71.2258 13.5029L61.7854 9.15411L60.4936 7.57275L52.2456 11.5262L56.618 26.2526L63.9219 19.433L71.2258 13.5029Z" fill="#FECB22" stroke="#D0842C" stroke-width="0.7088" stroke-linecap="round" stroke-linejoin="round"/>
<path d="M99.6962 26.4503L63.922 19.433L60.4937 7.57275L95.3735 14.9854L99.6962 26.4503Z" fill="#FAB523" stroke="#D0842C" stroke-width="0.7088" stroke-linecap="round" stroke-linejoin="round"/>
<path opacity="0.67" d="M60.0962 8.31396L52.6929 11.7732C52.6929 11.7732 55.1772 11.9214 60.0962 8.31396Z" fill="white"/>
<path opacity="0.67" d="M94.9263 15.4301L61.3384 8.21509C61.3384 8.21509 89.262 13.6016 94.9263 15.4301Z" fill="white"/>
<path opacity="0.67" d="M63.624 16.6162L64.3196 19.1365L72.0707 20.6685C72.0707 20.6685 65.4624 19.1365 64.9159 18.7906C64.3693 18.3952 63.624 16.6162 63.624 16.6162Z" fill="white"/>
<path d="M34.6569 34.4556L64.9158 26.5488L71.0769 33.665L77.1386 41.6706L32.7688 41.2753L34.6569 34.4556Z" fill="url(#paint3_linear)" stroke="#C69331" stroke-width="0.1844" stroke-linecap="round" stroke-linejoin="round"/>
<path d="M34.6569 34.4556L64.9158 26.5488L71.0769 33.665L77.1386 41.6706L32.7688 41.2753L34.6569 34.4556Z" fill="#F59E25" stroke="#D0842C" stroke-width="0.7088" stroke-linecap="round" stroke-linejoin="round"/>
<path d="M64.9158 26.549L75.0021 23.9298L76.5423 22.5461L83.9952 27.8833L77.1386 41.6708L71.0769 33.6651L64.9158 26.549Z" fill="#FECB22" stroke="#D0842C" stroke-width="0.7088" stroke-linecap="round" stroke-linejoin="round"/>
<path d="M34.657 34.4558L71.077 33.6651L76.5425 22.5461L40.8678 23.8804L34.657 34.4558Z" fill="#FAB523" stroke="#D0842C" stroke-width="0.7088" stroke-linecap="round" stroke-linejoin="round"/>
<path opacity="0.67" d="M76.791 23.3862L83.4985 28.0315C83.4985 28.0809 81.0143 27.7844 76.791 23.3862Z" fill="white"/>
<path opacity="0.67" d="M41.2651 24.424L75.5984 23.1391C75.5984 23.0897 47.1281 23.5839 41.2651 24.424Z" fill="white"/>
<path opacity="0.67" d="M71.8718 30.9473L70.729 33.2699L62.8289 33.4182C62.8289 33.4182 69.5862 33.0228 70.1825 32.8251C70.8284 32.5781 71.8718 30.9473 71.8718 30.9473Z" fill="white"/>
<path d="M60.1957 15.1829L29.0921 18.3456L25.8128 27.1419L22.9807 36.7289L64.3694 20.9153L60.1957 15.1829Z" fill="url(#paint4_linear)" stroke="#C69331" stroke-width="0.1844" stroke-linecap="round" stroke-linejoin="round"/>
<path d="M60.1957 15.1829L29.0921 18.3456L25.8128 27.1419L22.9807 36.7289L64.3694 20.9153L60.1957 15.1829Z" fill="#F59E25" stroke="#D0842C" stroke-width="0.7088" stroke-linecap="round" stroke-linejoin="round"/>
<path d="M29.092 18.3457L18.7076 19.3835L16.7698 18.6422L11.6521 26.2031L22.9806 36.729L25.8127 27.142L29.092 18.3457Z" fill="#FECB22" stroke="#D0842C" stroke-width="0.7088" stroke-linecap="round" stroke-linejoin="round"/>
<path d="M60.1957 15.183L25.8127 27.1421L16.7698 18.6423L50.6559 7.47388L60.1957 15.183Z" fill="#FAB523" stroke="#D0842C" stroke-width="0.7088" stroke-linecap="round" stroke-linejoin="round"/>
<path opacity="0.67" d="M16.8195 19.4824L12.1987 26.2032C12.1987 26.2032 14.4346 25.0666 16.8195 19.4824Z" fill="white"/>
<path opacity="0.67" d="M50.4571 8.06689L17.8132 18.7905C17.8132 18.7905 44.6935 9.35175 50.4571 8.06689Z" fill="white"/>
<path opacity="0.67" d="M24.1235 24.8689L26.0116 26.6479L33.4645 24.0288C33.4645 24.0288 26.9556 26.0549 26.3594 26.0055C25.6638 26.0549 24.1235 24.8689 24.1235 24.8689Z" fill="white"/>
<path d="M121.061 29.8601L89.7591 30.206L85.7345 38.6565L82.0081 47.9964L124.688 35.9385L121.061 29.8601Z" fill="url(#paint5_linear)" stroke="#C69331" stroke-width="0.1844" stroke-linecap="round" stroke-linejoin="round"/>
<path d="M121.061 29.8601L89.7591 30.206L85.7345 38.6565L82.0081 47.9964L124.688 35.9385L121.061 29.8601Z" fill="#F59E25" stroke="#D0842C" stroke-width="0.7088" stroke-linecap="round" stroke-linejoin="round"/>
<path d="M89.7592 30.206L79.325 30.3048L77.4866 29.4153L71.7229 36.482L82.008 47.9963L85.7345 38.6564L89.7592 30.206Z" fill="#FECB22" stroke="#D0842C" stroke-width="0.7088" stroke-linecap="round" stroke-linejoin="round"/>
<path d="M121.061 29.86L85.7345 38.6564L77.4866 29.4153L112.267 21.3108L121.061 29.86Z" fill="#FAB523" stroke="#D0842C" stroke-width="0.7088" stroke-linecap="round" stroke-linejoin="round"/>
<path opacity="0.67" d="M77.4865 30.2554L72.2693 36.5314C72.2196 36.5314 74.6046 35.5925 77.4865 30.2554Z" fill="white"/>
<path opacity="0.67" d="M112.018 21.9038L78.5298 29.6624C78.5298 29.6624 106.106 22.6451 112.018 21.9038Z" fill="white"/>
<path opacity="0.67" d="M84.2439 36.2349L85.9332 38.2115L93.585 36.2843C93.585 36.2843 86.927 37.7174 86.3307 37.6185C85.6848 37.5691 84.2439 36.2349 84.2439 36.2349Z" fill="white"/>
<path d="M4.54703 31.6389L35.8494 32.479L39.7746 40.9789L43.3024 50.3682L0.820557 37.6185L4.54703 31.6389Z" fill="url(#paint6_linear)" stroke="#C69331" stroke-width="0.1844" stroke-linecap="round" stroke-linejoin="round"/>
<path d="M4.54703 31.6389L35.8494 32.479L39.7746 40.9789L43.3024 50.3682L0.820557 37.6185L4.54703 31.6389Z" fill="#F59E25" stroke="#D0842C" stroke-width="0.7088" stroke-linecap="round" stroke-linejoin="round"/>
<path d="M35.8494 32.479L46.2836 32.7261L48.122 31.886L53.7863 39.0515L43.3024 50.3682L39.7746 40.9788L35.8494 32.479Z" fill="#FECB22" stroke="#D0842C" stroke-width="0.7088" stroke-linecap="round" stroke-linejoin="round"/>
<path d="M4.54712 31.6389L39.7748 40.9788L48.1221 31.8859L13.5404 23.1885L4.54712 31.6389Z" fill="#FAB523" stroke="#D0842C" stroke-width="0.7088" stroke-linecap="round" stroke-linejoin="round"/>
<path opacity="0.67" d="M48.1218 32.7261L53.2397 39.0516C53.2894 39.101 50.954 38.1126 48.1218 32.7261Z" fill="white"/>
<path opacity="0.67" d="M13.739 23.7815L47.0786 32.1331C47.0786 32.1331 19.602 24.671 13.739 23.7815Z" fill="white"/>
<path opacity="0.67" d="M41.2651 38.6069L39.5261 40.5342L31.9241 38.5081C31.9241 38.5081 38.5324 40.04 39.1783 39.9906C39.8242 39.8918 41.2651 38.6069 41.2651 38.6069Z" fill="white"/>
<path opacity="0.7" d="M19.1052 19.1364L50.805 8.80811L53.4881 11.4767L22.1858 21.8049L19.1052 19.1364Z" fill="#FED170"/>
<path opacity="0.7" d="M27.4524 6.88074L29.2908 4.11338L62.8788 2.63086L60.941 5.29939L27.4524 6.88074Z" fill="#FED170"/>
<path opacity="0.7" d="M11.0559 26.4997L13.6396 24.2759L46.2836 32.7263L44.2465 34.4559L11.0559 26.4997Z" fill="#FED170"/>
<path opacity="0.7" d="M57.9599 24.8688L51.6497 29.0199L72.2199 28.3775L74.5552 23.584C74.5552 23.6334 58.3077 24.77 57.9599 24.8688Z" fill="#FED170"/>
<path opacity="0.7" d="M76.6914 5.20057L80.6663 2.63086L108.839 13.7992L106.702 14.4417L76.6914 5.20057Z" fill="#FED170"/>
<path opacity="0.7" d="M80.1199 30.5519L108.193 23.9299L85.2873 35.0983L80.1199 30.5519Z" fill="#FED170"/>
<path opacity="0.7" d="M63.3259 12.3166L62.4812 9.10449L93.6345 16.0724L94.181 17.5549L63.3259 12.3166Z" fill="#FED170"/>
<defs>
<linearGradient id="paint0_linear" x1="71.6675" y1="9.09354" x2="1.14206" y2="29.2147" gradientUnits="userSpaceOnUse">
<stop offset="0.0368098" stop-color="#F7E38F"/>
<stop offset="0.1242" stop-color="#FADC62"/>
<stop offset="0.217" stop-color="#FCD539"/>
<stop offset="0.3015" stop-color="#FED11B"/>
<stop offset="0.374" stop-color="#FFCE09"/>
<stop offset="0.4262" stop-color="#FFCD03"/>
<stop offset="1" stop-color="#F49A20"/>
</linearGradient>
<linearGradient id="paint1_linear" x1="117.035" y1="24.2452" x2="44.4401" y2="13.6867" gradientUnits="userSpaceOnUse">
<stop offset="0.0368098" stop-color="#F7E38F"/>
<stop offset="0.1242" stop-color="#FADC62"/>
<stop offset="0.217" stop-color="#FCD539"/>
<stop offset="0.3015" stop-color="#FED11B"/>
<stop offset="0.374" stop-color="#FFCE09"/>
<stop offset="0.4262" stop-color="#FFCD03"/>
<stop offset="1" stop-color="#F49A20"/>
</linearGradient>
<linearGradient id="paint2_linear" x1="52.0264" y1="14.0968" x2="118.223" y2="45.5614" gradientUnits="userSpaceOnUse">
<stop offset="0.0368098" stop-color="#F7E38F"/>
<stop offset="0.1242" stop-color="#FADC62"/>
<stop offset="0.217" stop-color="#FCD539"/>
<stop offset="0.3015" stop-color="#FED11B"/>
<stop offset="0.374" stop-color="#FFCE09"/>
<stop offset="0.4262" stop-color="#FFCD03"/>
<stop offset="1" stop-color="#F49A20"/>
</linearGradient>
<linearGradient id="paint3_linear" x1="83.7375" y1="30.4656" x2="13.0403" y2="49.974" gradientUnits="userSpaceOnUse">
<stop offset="0.0368098" stop-color="#F7E38F"/>
<stop offset="0.1242" stop-color="#FADC62"/>
<stop offset="0.217" stop-color="#FCD539"/>
<stop offset="0.3015" stop-color="#FED11B"/>
<stop offset="0.374" stop-color="#FFCE09"/>
<stop offset="0.4262" stop-color="#FFCD03"/>
<stop offset="1" stop-color="#F49A20"/>
</linearGradient>
<linearGradient id="paint4_linear" x1="12.812" y1="28.5509" x2="85.8748" y2="21.906" gradientUnits="userSpaceOnUse">
<stop offset="0.0368098" stop-color="#F7E38F"/>
<stop offset="0.1242" stop-color="#FADC62"/>
<stop offset="0.217" stop-color="#FCD539"/>
<stop offset="0.3015" stop-color="#FED11B"/>
<stop offset="0.374" stop-color="#FFCE09"/>
<stop offset="0.4262" stop-color="#FFCD03"/>
<stop offset="1" stop-color="#F49A20"/>
</linearGradient>
<linearGradient id="paint5_linear" x1="72.6574" y1="38.9161" x2="146.025" y2="38.9161" gradientUnits="userSpaceOnUse">
<stop offset="0.0368098" stop-color="#F7E38F"/>
<stop offset="0.1242" stop-color="#FADC62"/>
<stop offset="0.217" stop-color="#FCD539"/>
<stop offset="0.3015" stop-color="#FED11B"/>
<stop offset="0.374" stop-color="#FFCE09"/>
<stop offset="0.4262" stop-color="#FFCD03"/>
<stop offset="1" stop-color="#F49A20"/>
</linearGradient>
<linearGradient id="paint6_linear" x1="52.8174" y1="41.4534" x2="-20.5382" y2="40.2705" gradientUnits="userSpaceOnUse">
<stop offset="0.0368098" stop-color="#F7E38F"/>
<stop offset="0.1242" stop-color="#FADC62"/>
<stop offset="0.217" stop-color="#FCD539"/>
<stop offset="0.3015" stop-color="#FED11B"/>
<stop offset="0.374" stop-color="#FFCE09"/>
<stop offset="0.4262" stop-color="#FFCD03"/>
<stop offset="1" stop-color="#F49A20"/>
</linearGradient>
</defs>
</svg>
