<svg width="30" height="30" viewBox="0 0 30 30" fill="none" xmlns="http://www.w3.org/2000/svg">
<path d="M21.7208 -0.00012207H8.27869C3.71382 -0.00012207 0 3.71388 0 8.27874V21.7208C0 26.2859 3.71382 29.9997 8.27869 29.9997H21.7208C26.286 29.9997 29.9998 26.2857 29.9998 21.7208V8.27874C30 3.71388 26.286 -0.00012207 21.7208 -0.00012207ZM27.3383 21.7208C27.3383 24.8182 24.8183 27.338 21.721 27.338H8.27869C5.1815 27.3381 2.66173 24.8182 2.66173 21.7208V8.27874C2.66173 5.18156 5.1815 2.66161 8.27869 2.66161H21.7208C24.8181 2.66161 27.3381 5.18156 27.3381 8.27874V21.7208H27.3383Z" fill="#400800"/>
<path d="M15.0001 7.27002C10.7376 7.27002 7.2699 10.7377 7.2699 15.0002C7.2699 19.2625 10.7376 22.7301 15.0001 22.7301C19.2626 22.7301 22.7303 19.2625 22.7303 15.0002C22.7303 10.7377 19.2626 7.27002 15.0001 7.27002ZM15.0001 20.0681C12.2055 20.0681 9.93163 17.7947 9.93163 15C9.93163 12.2052 12.2053 9.93157 15.0001 9.93157C17.7949 9.93157 20.0686 12.2052 20.0686 15C20.0686 17.7947 17.7947 20.0681 15.0001 20.0681Z" fill="#400800"/>
<path d="M23.0543 5.01294C22.5415 5.01294 22.0377 5.22055 21.6756 5.58432C21.3116 5.94632 21.1024 6.45027 21.1024 6.96487C21.1024 7.47788 21.3118 7.98166 21.6756 8.34542C22.0376 8.70742 22.5415 8.91681 23.0543 8.91681C23.5689 8.91681 24.0711 8.70742 24.4349 8.34542C24.7987 7.98166 25.0063 7.4777 25.0063 6.96487C25.0063 6.45027 24.7987 5.94632 24.4349 5.58432C24.0729 5.22055 23.5689 5.01294 23.0543 5.01294Z" fill="#400800"/>
</svg>
