<svg width="30" height="18" viewBox="0 0 30 18" fill="none" xmlns="http://www.w3.org/2000/svg">
<path d="M24.8938 10.2849C24.4088 9.67238 24.5475 9.39988 24.8938 8.85238C24.9 8.84613 28.9037 3.31363 29.3162 1.43738L29.3188 1.43613C29.5238 0.752378 29.3188 0.249878 28.3275 0.249878H25.0475C24.2125 0.249878 23.8275 0.681128 23.6213 1.16363C23.6213 1.16363 21.9513 5.16113 19.5887 7.75238C18.8263 8.50113 18.4738 8.74113 18.0575 8.74113C17.8525 8.74113 17.5338 8.50113 17.5338 7.81738V1.43613C17.5338 0.616128 17.3 0.249878 16.6087 0.249878H11.4513C10.9275 0.249878 10.6163 0.632378 10.6163 0.988628C10.6163 1.76613 11.7975 1.94488 11.92 4.13238V8.87863C11.92 9.91863 11.7312 10.1099 11.3125 10.1099C10.1975 10.1099 7.49125 6.09613 5.8875 1.50238C5.56375 0.611128 5.2475 0.251128 4.40625 0.251128H1.125C0.18875 0.251128 0 0.682378 0 1.16488C0 2.01738 1.115 6.25613 5.185 11.8561C7.8975 15.6786 11.7175 17.7499 15.1925 17.7499C17.2812 17.7499 17.5363 17.2899 17.5363 16.4986C17.5363 12.8461 17.3475 12.5011 18.3937 12.5011C18.8787 12.5011 19.7137 12.7411 21.6637 14.5849C23.8925 16.7711 24.2588 17.7499 25.5063 17.7499H28.7862C29.7212 17.7499 30.195 17.2899 29.9225 16.3824C29.2987 14.4736 25.0838 10.5474 24.8938 10.2849Z" fill="#400800"/>
</svg>
