<?xml version="1.0" encoding="UTF-8" standalone="no"?>
<svg
   xmlns:dc="http://purl.org/dc/elements/1.1/"
   xmlns:cc="http://creativecommons.org/ns#"
   xmlns:rdf="http://www.w3.org/1999/02/22-rdf-syntax-ns#"
   xmlns:svg="http://www.w3.org/2000/svg"
   xmlns="http://www.w3.org/2000/svg"
   xmlns:sodipodi="http://sodipodi.sourceforge.net/DTD/sodipodi-0.dtd"
   xmlns:inkscape="http://www.inkscape.org/namespaces/inkscape"
   width="133"
   height="31"
   viewBox="0 0 133 31"
   fill="none"
   version="1.1"
   id="svg8"
   sodipodi:docname="socialBrown.svg"
   inkscape:version="1.0.1 (3bc2e813f5, 2020-09-07)">
  <metadata
     id="metadata14">
    <rdf:RDF>
      <cc:Work
         rdf:about="">
        <dc:format>image/svg+xml</dc:format>
        <dc:type
           rdf:resource="http://purl.org/dc/dcmitype/StillImage" />
        <dc:title></dc:title>
      </cc:Work>
    </rdf:RDF>
  </metadata>
  <defs
     id="defs12" />
  <sodipodi:namedview
     pagecolor="#ffffff"
     bordercolor="#666666"
     borderopacity="1"
     objecttolerance="10"
     gridtolerance="10"
     guidetolerance="10"
     inkscape:pageopacity="0"
     inkscape:pageshadow="2"
     inkscape:window-width="1920"
     inkscape:window-height="1017"
     id="namedview10"
     showgrid="false"
     inkscape:zoom="9.7819549"
     inkscape:cx="66.5"
     inkscape:cy="15.5"
     inkscape:window-x="1672"
     inkscape:window-y="-8"
     inkscape:window-maximized="1"
     inkscape:current-layer="svg8" />
  <path
     d="M 31,27.5556 V 3.44444 C 31,1.55 29.4448,0 27.5469,0 H 3.45306 C 1.4725,0 0,1.46906 0,3.44444 V 27.5556 C 0,29.5327 1.4725,31 3.45306,31 H 27.5469 c 0.9139,-0.0014 1.7901,-0.3644 2.4372,-1.0098 0.647,-0.6455 1.0123,-1.5208 1.0159,-2.4346 z m -6.572,-9.288 c 0,0 1.9496,1.9237 2.4301,2.8158 0.0137,0.019 0.0189,0.0362 0.0241,0.0431 0.1946,0.3272 0.2445,0.5856 0.1464,0.775 -0.1619,0.3152 -0.713,0.4736 -0.9008,0.4874 h -3.4427 c -0.2411,0 -0.7405,-0.062 -1.3468,-0.4805 -0.465,-0.3238 -0.9248,-0.8594 -1.3726,-1.3812 -0.6682,-0.775 -1.2469,-1.4467 -1.829,-1.4467 -0.0738,-2e-4 -0.1472,0.012 -0.217,0.0362 -0.4426,0.1412 -1.004,0.7698 -1.004,2.449 0,0.5252 -0.4134,0.8249 -0.7061,0.8249 H 14.632 c -0.5373,0 -3.3359,-0.1877 -5.81422,-2.8038 C 5.77633,16.3835 3.04489,9.95789 3.02078,9.90106 2.84856,9.486 3.20506,9.26039 3.59256,9.26039 h 3.47888 c 0.46673,0 0.61656,0.28244 0.72334,0.53561 0.12055,0.2876 0.57522,1.4484 1.31922,2.7538 1.2107,2.1235 1.9564,2.9881 2.5506,2.9881 0.1111,-6e-4 0.2202,-0.0297 0.3169,-0.0844 0.7767,-0.4288 0.6321,-3.1982 0.5976,-3.7699 0,-0.1085 -0.0017,-1.2383 -0.3978,-1.78082 C 11.8954,9.51011 11.4114,9.36028 11.1187,9.30344 11.2381,9.13894 11.3951,9.00547 11.5768,8.91422 12.1089,8.649 13.0682,8.61111 14.0223,8.61111 h 0.5305 c 1.035,0.01378 1.3037,0.08095 1.6774,0.17567 0.7561,0.18083 0.7716,0.67166 0.7044,2.34222 -0.0189,0.4753 -0.0396,1.0144 -0.0396,1.6464 0,0.1361 -0.0052,0.2859 -0.0052,0.4409 -0.0241,0.8543 -0.0516,1.8204 0.5511,2.2165 0.0781,0.0488 0.1681,0.0751 0.2601,0.0758 0.2101,0 0.8387,0 2.542,-2.9226 0.7492,-1.2899 1.3261,-2.81239 1.3657,-2.92606 0.0602,-0.12289 0.1473,-0.23062 0.2549,-0.31516 0.0882,-0.04582 0.1865,-0.06891 0.2859,-0.06717 h 4.0903 c 0.4478,0 0.7509,0.06717 0.8077,0.23767 0.0982,0.27383 -0.0189,1.10912 -1.8876,3.63392 l -0.8318,1.1022 c -1.6947,2.2182 -1.6947,2.3319 0.0999,4.0162 z"
     fill="#eaeaea"
     id="path2"
     inkscape:label="path2"
     style="opacity:1;fill:#400800;fill-opacity:1" />
  <path
     d="M66.5 11.8091C65.7701 11.8093 65.0566 12.026 64.4498 12.4318C63.843 12.8375 63.3702 13.414 63.091 14.0885C62.8119 14.763 62.739 15.505 62.8815 16.2209C63.0241 16.9368 63.3757 17.5943 63.892 18.1104C64.4082 18.6264 65.0659 18.9778 65.7818 19.1201C66.4978 19.2624 67.2398 19.1892 67.9142 18.9098C68.5885 18.6304 69.1649 18.1574 69.5704 17.5504C69.9759 16.9435 70.1923 16.2299 70.1923 15.5C70.1916 14.5211 69.8023 13.5825 69.11 12.8904C68.4176 12.1984 67.4789 11.8094 66.5 11.8091ZM75.1295 8.97201C74.9416 8.49583 74.6578 8.06334 74.2959 7.70136C73.9339 7.33938 73.5014 7.05564 73.0252 6.86775C71.5721 6.29411 68.1123 6.42281 66.5 6.42281C64.8877 6.42281 61.4314 6.28926 59.9741 6.86775C59.4979 7.05564 59.0654 7.33938 58.7034 7.70136C58.3415 8.06334 58.0577 8.49583 57.8698 8.97201C57.2969 10.4251 57.4249 13.8884 57.4249 15.4993C57.4249 17.1102 57.2969 20.5693 57.8726 22.0273C58.0605 22.5035 58.3442 22.936 58.7062 23.2979C59.0682 23.6599 59.5007 23.9437 59.9769 24.1316C61.43 24.7052 64.8898 24.5765 66.5028 24.5765C68.1157 24.5765 71.5707 24.71 73.028 24.1316C73.5042 23.9437 73.9367 23.6599 74.2986 23.2979C74.6606 22.936 74.9444 22.5035 75.1323 22.0273C75.71 20.5742 75.5772 17.1109 75.5772 15.5C75.5772 13.8891 75.71 10.4307 75.1323 8.9727L75.1295 8.97201ZM66.5 21.1741C65.3778 21.1741 64.2807 20.8413 63.3476 20.2178C62.4145 19.5944 61.6873 18.7082 61.2578 17.6714C60.8283 16.6346 60.716 15.4937 60.9349 14.393C61.1539 13.2924 61.6943 12.2813 62.4878 11.4878C63.2813 10.6943 64.2924 10.1539 65.393 9.93492C66.4937 9.71598 67.6346 9.82835 68.6714 10.2578C69.7082 10.6873 70.5944 11.4145 71.2178 12.3476C71.8413 13.2807 72.1741 14.3778 72.1741 15.5C72.175 16.2454 72.0289 16.9836 71.744 17.6725C71.4592 18.3613 71.0413 18.9872 70.5142 19.5142C69.9872 20.0413 69.3613 20.4592 68.6725 20.744C67.9836 21.0289 67.2454 21.175 66.5 21.1741ZM72.408 10.9123C72.146 10.9124 71.8899 10.8349 71.672 10.6894C71.4541 10.544 71.2842 10.3372 71.1839 10.0952C71.0835 9.85318 71.0572 9.58686 71.1082 9.3299C71.1593 9.07294 71.2854 8.83689 71.4705 8.6516C71.6557 8.4663 71.8917 8.34009 72.1487 8.28894C72.4056 8.23778 72.6719 8.26396 72.914 8.36419C73.156 8.46441 73.3629 8.63416 73.5085 8.85198C73.654 9.06979 73.7317 9.32588 73.7317 9.58786C73.7324 9.76183 73.6988 9.93423 73.6328 10.0952C73.5667 10.2561 73.4695 10.4024 73.3468 10.5257C73.2241 10.649 73.0782 10.7469 72.9176 10.8137C72.757 10.8805 72.5847 10.915 72.4108 10.915L72.408 10.9123ZM78.6786 0H54.3214C53.4405 0 52.5957 0.349935 51.9728 0.972824C51.3499 1.59571 51 2.44053 51 3.32143V27.6786C51 28.5595 51.3499 29.4043 51.9728 30.0272C52.5957 30.6501 53.4405 31 54.3214 31H78.6786C79.5595 31 80.4043 30.6501 81.0272 30.0272C81.6501 29.4043 82 28.5595 82 27.6786V3.32143C82 2.44053 81.6501 1.59571 81.0272 0.972824C80.4043 0.349935 79.5595 0 78.6786 0ZM77.4939 20.067C77.4047 21.8405 76.9999 23.4119 75.7052 24.7031C74.4105 25.9943 72.8405 26.4074 71.069 26.4919C69.2416 26.595 63.7626 26.595 61.9351 26.4919C60.1616 26.4026 58.5957 25.9971 57.299 24.7031C56.0022 23.4091 55.5946 21.837 55.5102 20.067C55.4071 18.2388 55.4071 12.7591 55.5102 10.933C55.5995 9.15953 55.9994 7.58808 57.299 6.29687C58.5985 5.00567 60.1685 4.59741 61.9351 4.51299C63.7626 4.40989 69.2416 4.40989 71.069 4.51299C72.8425 4.60225 74.4133 5.00774 75.7052 6.30172C76.9971 7.59569 77.4095 9.16783 77.4939 10.9413C77.597 12.7626 77.597 18.2374 77.4939 20.067Z"
     fill="#EAEAEA"
     id="path4"
     style="fill:#400800;fill-opacity:1" />
  <path
     fill-rule="evenodd"
     clip-rule="evenodd"
     d="M105.3 0C103.477 0 102 1.47746 102 3.3V27.7C102 29.5225 103.477 31 105.3 31H129.7C131.523 31 133 29.5225 133 27.7V3.3C133 1.47746 131.523 0 129.7 0H105.3ZM111.454 17.2523L107.316 15.6799C106.895 15.5369 106.895 14.8937 107.316 14.7507L124.36 8.03227C124.71 7.88933 125.061 8.24669 124.991 8.60405L121.905 23.6134C121.835 23.9707 121.414 24.1137 121.133 23.8993L116.995 20.8259C116.714 20.6115 116.364 20.6115 116.153 20.8259L113.839 22.7557C113.558 22.9701 113.137 22.8986 113.067 22.5413L111.454 17.2523ZM120.993 11.3915L112.857 16.4661C112.506 16.609 112.366 17.0379 112.576 17.3952L113.418 20.54C113.488 20.8259 113.839 20.7544 113.839 20.54L114.049 18.8247C114.049 18.4673 114.26 18.1814 114.47 17.967L121.133 11.6059C121.274 11.5344 121.133 11.32 120.993 11.3915Z"
     fill="#EAEAEA"
     id="path6"
     style="fill:#400800;fill-opacity:1" />
</svg>
