<?xml version="1.0" encoding="UTF-8" standalone="no"?>
<svg
   xmlns:dc="http://purl.org/dc/elements/1.1/"
   xmlns:cc="http://creativecommons.org/ns#"
   xmlns:rdf="http://www.w3.org/1999/02/22-rdf-syntax-ns#"
   xmlns:svg="http://www.w3.org/2000/svg"
   xmlns="http://www.w3.org/2000/svg"
   xmlns:sodipodi="http://sodipodi.sourceforge.net/DTD/sodipodi-0.dtd"
   xmlns:inkscape="http://www.inkscape.org/namespaces/inkscape"
   width="215"
   height="39"
   viewBox="0 0 215 39"
   fill="none"
   version="1.1"
   id="svg48"
   sodipodi:docname="tableHeadBg.svg"
   inkscape:version="1.0.1 (3bc2e813f5, 2020-09-07)">
  <metadata
     id="metadata54">
    <rdf:RDF>
      <cc:Work
         rdf:about="">
        <dc:format>image/svg+xml</dc:format>
        <dc:type
           rdf:resource="http://purl.org/dc/dcmitype/StillImage" />
        <dc:title></dc:title>
      </cc:Work>
    </rdf:RDF>
  </metadata>
  <defs
     id="defs52" />
  <sodipodi:namedview
     pagecolor="#ffffff"
     bordercolor="#666666"
     borderopacity="1"
     objecttolerance="10"
     gridtolerance="10"
     guidetolerance="10"
     inkscape:pageopacity="0"
     inkscape:pageshadow="2"
     inkscape:window-width="1920"
     inkscape:window-height="1017"
     id="namedview50"
     showgrid="false"
     inkscape:zoom="2.9675675"
     inkscape:cx="25.36007"
     inkscape:cy="11.233683"
     inkscape:window-x="1672"
     inkscape:window-y="-8"
     inkscape:window-maximized="1"
     inkscape:current-layer="svg48" />
  <path
     d="m 8.3100993,38.186 c -4.5238859,0 -8.19492533,-1.3537 -8.23200649,-3.0176 l -0.07416226,-9.053 c 0,-0.7333 0.70454129,-1.4383 1.96529595,-1.9742 C 0.81971575,23.6195 0.15225501,22.9567 0.15225501,22.2376 v -8.6864 c 0,-0.3807 0.40789298,-1.3396 0.77870464,-1.6921 -0.48205558,-0.3807 -0.9270291,-0.8884 -0.9270291,-1.3114 V 3.04586 C 0.00393055,1.36782 -0.29271789,0 4.268262,0 L 208.5109,0.0423036 c 4.52352,0 6.34067,1.3255164 6.34067,3.0035564 v 8.02354 c 0,0.5077 -0.37037,1.0153 -1.00013,1.4525 0.62976,0.4371 1.00013,0.9306 1.00013,1.4383 l 0.11237,9.2081 c 0,0.2961 -0.11237,0.5781 -0.29685,0.846 0.18448,0.2679 0.29685,0.5359 0.29685,0.8179 v 10.3362 c 0,1.6639 -3.6718,3.0317 -8.23275,3.0317 H 8.3100993 Z"
     fill="#89431b"
     id="path2"
     style="stroke-width:1.17777" />
  <path
     d="M 214.66709,23.9861 V 23.972 c 0.22193,-0.268 0.29685,-0.5359 0.29685,-0.8179 l -0.11237,-9.194 c 0,-0.5076 -0.37037,-1.0012 -1.00013,-1.4383 0,-0.0141 0.0361,-0.0282 0.0361,-0.0423 0,-0.0141 -0.0361,-0.0282 -0.0361,-0.0423 0.66721,-0.4372 1.00013,-0.9448 1.00013,-1.4524 V 3.04579 c 0,-1.66394 -1.81577,-3.0035537 -6.34067,-3.0035537 h -14.49848 c 0,0.0564048 0,0.0987087 0,0.1551127 V 8.24913 c 0,0.52174 -0.37037,1.01528 -1.00153,1.45242 0.63116,0.43715 1.00153,0.93065 1.00153,1.43835 l 0.11097,9.2362 c 0,0.2962 -0.11097,0.5782 -0.29685,0.8461 0.18588,0.2679 0.29685,0.5359 0.29685,0.8179 v 10.3644 c 0,1.678 -3.67041,3.0317 -8.23135,3.0317 H 0.15239651 c 0.33373035,1.3255 3.00357879,2.3972 6.41503969,2.6651 h 0.037079 c 0.037079,0 0.1112495,0.0141 0.148328,0.0141 h 0.037079 c 0.037079,0 0.1112494,0 0.148328,0.0141 h 0.037079 c 0.037079,0 0.1112495,0 0.148328,0.0141 0.037079,0 0.037079,0 0.074158,0 0.037079,0 0.074171,0 0.1112495,0 0.037079,0 0.037079,0 0.074158,0 0.037079,0 0.074158,0 0.1112494,0 0.037079,0 0.074158,0 0.1112356,0 0.037079,0 0.074171,0 0.1112495,0 0.037079,0 0.074158,0 0.1112355,0 0.037093,0 0.074171,0 0.1112495,0 0.037079,0 0.074158,0 0.1112354,0 0.037093,0 0.037093,0 0.074171,0 0.074158,0 0.148328,0 0.2224851,0 H 206.76866 c 0.0734,0 0.14841,0 0.22194,0 C 211.44056,38.1013 215,36.7617 215,35.1119 V 24.7898 c 0,-0.282 -0.11098,-0.5499 -0.29547,-0.8178 -0.0374,0.0282 -0.0374,0.0282 -0.0374,0.0141 z"
     fill="#662f14"
     id="path4"
     style="stroke-width:1.17777" />
  <path
     d="m 1.1907271,25.5232 0.074162,9.6593 c 0,0.4794 1.0382654,0.8742 2.3361112,0.8742 H 208.6968 c 1.29836,0 2.33595,-0.3948 2.33595,-0.8883 V 24.1412 c 0,-0.4935 -1.03759,-0.8883 -2.33595,-0.8883 h -94.81647 c -0.11124,0 -0.22249,0 -0.2967,0.0141 l -12.01426,0.6063 c -0.18545,0.0141 -0.40797,0.0141 -0.59327,0 L 88.553881,23.2529 c -0.111249,0 -0.185323,-0.0141 -0.296572,-0.0141 H 10.053123 c -0.4078915,0 -0.7787044,0.0423 -1.1124389,0.1128 l -6.5262793,1.3678 c -0.7787047,0.1833 -1.2236777,0.4794 -1.2236777,0.8038 z"
     fill="#dfa164"
     id="path6"
     style="stroke-width:1.17777" />
  <path
     d="M 48.469395,24.4375 C 56.923799,23.5914 72.053033,23.3094 90.0373,23.3517 l -1.520317,-0.0705 c -0.111249,0 -0.185461,-0.0141 -0.296573,-0.0141 H 63.524277 c -6.229553,0.1692 -11.458001,0.4512 -15.314418,0.832 -19.875508,1.9882 -36.376674,1.7062 -46.8706346,1.0998 -0.037082,0.0282 -0.037082,0.0565 -0.074162,0.0847 -0.037082,0.0282 -0.037082,0.0564 -0.037082,0.0846 0,0.0141 0,0.0282 0,0.0282 0,0.0141 0,0.0282 0,0.0423 0,0.0141 0,0.0282 0,0.0282 0,0 0,0 0,0.0141 0,0.0141 0,0.0282 0,0.0423 v 0.0141 C 11.759027,26.1437 28.445601,26.4398 48.469395,24.4375 Z"
     fill="#ce7f42"
     id="path8"
     style="stroke-width:1.17777" />
  <path
     d="m 113.88061,23.2671 c -0.1111,0 -0.22236,0 -0.29657,0.0141 l -4.48688,0.2256 c 36.15415,0.4653 77.98228,1.8191 101.93559,2.6651 v -0.3525 c -22.32202,-0.7897 -60.07056,-2.0165 -94.33386,-2.5523 z"
     fill="#ce7f42"
     id="path10"
     style="stroke-width:1.17777" />
  <path
     d="m 101.57063,23.9015 c -0.18546,0.0141 -0.40797,0.0141 -0.59343,0 L 96.898283,23.7041 C 80.100587,23.69 66.121023,24.0002 58.074441,24.804 29.966888,27.5819 8.6452211,25.8757 1.4514726,25.1001 c -0.037079,0.0282 -0.074156,0.0564 -0.1112369,0.0846 -0.037082,0.0282 -0.037082,0.0564 -0.074162,0.0846 0,0.0141 -0.037082,0.0282 -0.037082,0.0423 0,0.0141 0,0.0282 -0.037082,0.0423 0,0.0141 0,0.0282 -0.037081,0.0423 0,0.0141 0,0.0282 0,0.0423 7.3049838,0.7756 28.8120573,2.4959 57.0678973,-0.3102 24.992705,-2.4959 107.906564,-0.1269 152.773964,1.396 V 26.1718 C 182.74182,25.2129 139.46688,23.9156 104.98203,23.7182 Z"
     fill="#ce7f42"
     id="path12"
     style="stroke-width:1.17777" />
  <path
     d="M 112.32242,23.2669 C 105.1657,22.2799 88.775825,23.14 87.737545,23.14 65.970933,23.1823 31.411329,23.1259 9.5705195,23.3374 c 12.3109475,0.1128 81.1706215,0.5782 81.0964085,0.5782 11.198602,0.4512 10.864852,0.3243 11.717682,0.2961 -0.0741,0 11.60642,-0.3807 11.53221,-0.3807 27.10645,-0.0141 68.155,-0.2679 95.48464,-0.5218 -19.54217,-0.2115 -97.15324,-0.0423 -97.07904,-0.0423 z"
     fill="#662f14"
     id="path14"
     style="stroke-width:1.17777" />
  <path
     d="M 208.5872,0.0144043 H 3.4909444 c -1.2978457,0 -2.3361138,0.3948337 -2.3361138,0.8883747 V 9.64552 c 0,0.46538 0.9270325,0.84608 2.1136289,0.87428 l 23.4723345,0.7333 c 0.07421,0 0.111247,0 0.185461,0 H 202.83884 c 0.33433,0 0.70469,-0.0283 1.00153,-0.0847 2.00304,-0.3666 3.96725,-0.6063 5.7109,-0.9165 0.81565,-0.141 1.33444,-0.45127 1.33444,-0.8038 V 0.902779 c 0.0374,-0.493541 -1.00152,-0.8883747 -2.29851,-0.8883747 z"
     fill="#dfa164"
     id="path16"
     style="stroke-width:1.17777" />
  <path
     d="M 203.24528,11.267 C 176.65777,11.6054 154.59514,11.4644 128.3787,11.3375 104.16473,11.2529 62.262941,11.9015 3.6006265,11.267 V 11.2106 C 63.746221,10.5478 103.08941,11.2247 128.3787,11.14 c 25.14141,-0.1269 48.20555,-0.2679 74.86658,0.0706 z"
     fill="#662f14"
     id="path18"
     style="stroke-width:1.17777" />
  <path
     d="m 1.3018088,12.113 0.037081,9.2786 c 0,0.3526 0.5562222,0.6769 1.409084,0.8038 l 6.3037942,1.0153 c 0.2966422,0.0423 0.593298,0.0705 0.8899388,0.0705 H 88.887492 c 0.07407,0 0.185324,0 0.259535,0 1.075319,-0.0423 8.751111,-0.3807 11.383923,-0.3807 2.96643,0 11.38393,0.3384 12.49629,0.3807 0.0742,0 0.14842,0 0.25967,0 h 95.40989 c 1.29698,0 2.33595,-0.3948 2.29849,-0.8884 l -0.11098,-9.8285 c 0,-0.409 -0.74213,-0.7615 -1.81716,-0.8602 l -5.33913,-0.4512 c -0.14843,-0.0141 -0.3343,-0.0141 -0.5188,-0.0141 H 3.6008345 c -1.2607533,0 -2.2990257,0.3948 -2.2990257,0.8742 z"
     fill="#dfa164"
     id="path20"
     style="stroke-width:1.17777" />
  <path
     d="M 49.434436,3.86403 C 74.501354,2.86284 93.301543,1.00149 115.21644,2.41161 c 12.83003,0.81787 22.8049,1.98826 33.66919,1.73444 8.52959,-0.33843 12.57035,-0.84607 25.84538,-4.1316457 h -5.63597 C 167.83411,0.32463 166.87003,0.550249 166.01694,0.719464 165.31366,0.832273 158.30438,2.59492 148.66368,2.84874 139.05907,3.07436 128.9735,1.86166 115.84676,1.00149 90.075447,-0.704756 68.086338,2.00267 40.757531,2.53852 28.112824,2.51031 14.541082,1.97447 1.1548306,1.1848 V 2.51031 C 18.545925,3.72302 36.86394,4.47038 49.434436,3.86403 Z"
     fill="#ce7f42"
     id="path22"
     style="stroke-width:1.17777" />
  <path
     d="m 108.57892,4.23036 c 9.49269,0.18332 16.94613,0.71916 21.76661,1.31141 0.445,0.0423 7.04548,0.77557 7.11956,0.78967 22.47058,2.11518 49.42985,-0.78967 73.42062,-4.03294 V 1.63574 C 186.89494,4.93542 160.0841,7.88257 137.79884,5.80969 110.95206,2.76384 103.75829,3.37019 64.303994,5.31615 c -2.447349,0.09871 -4.894698,0.23972 -7.342049,0.32433 -0.07421,0 -24.325208,1.05759 -55.8071144,-0.81787 V 5.23154 C 53.142566,8.53122 78.06106,3.89193 108.57892,4.23036 Z"
     fill="#ce7f42"
     id="path24"
     style="stroke-width:1.17777" />
  <path
     d="M 75.762135,11.845 C 67.307593,9.4337 25.183439,9.10937 1.1548306,9.12347 v 0.52175 c 0,0.0705 0.037081,0.12691 0.037081,0.19741 25.5859184,0 70.0833474,0.36667 73.9397634,2.74977 -2.929384,1.4242 -47.797599,0.7332 -73.8656008,0.1974 v 0.7191 C 32.488451,14.1717 86.589817,14.9191 75.762135,11.845 Z"
     fill="#ce7f42"
     id="path26"
     style="stroke-width:1.17777" />
  <path
     d="m 83.919967,9.43367 c 11.272678,-0.66276 86.659313,1.33963 127.003193,0.09871 0,-0.0282 0,-0.05641 0,-0.08461 V 8.84142 C 171.09807,10.04 94.673435,8.09406 83.623255,8.74271 70.125727,9.53238 5.3820744,6.61343 1.1548306,6.41602 V 7.12108 C 7.5327818,7.4172 70.199938,10.2374 83.919967,9.43367 Z"
     fill="#ce7f42"
     id="path28"
     style="stroke-width:1.17777" />
  <path
     d="m 144.54801,11.8731 c -3.30003,2.3267 37.04385,3.2151 66.37515,3.5394 v -0.705 c -30.29536,-0.3667 -61.62832,-1.1704 -64.63287,-2.5382 3.89372,-1.114 43.16257,0.0423 64.63287,0.7755 v -0.3807 c 0,-0.1128 -0.0734,-0.2256 -0.18589,-0.3384 -22.47045,-0.7756 -63.89075,-1.9742 -66.18926,-0.3526 z"
     fill="#ce7f42"
     id="path30"
     style="stroke-width:1.17777" />
  <path
     d="m 54.14395,19.5582 c 15.537057,0.7333 -15.648167,0.4089 156.85274,1.4947 V 20.2915 C 162.75436,19.3044 112.32424,18.839 64.934593,18.6698 62.709743,18.557 49.916749,17.9084 43.835342,17.8661 33.600945,17.7814 18.805599,17.5699 1.3404159,18.9941 v 0.8038 h 0.037082 C 28.409674,18.1481 52.623634,19.5582 54.14395,19.5582 Z"
     fill="#ce7f42"
     id="path32"
     style="stroke-width:1.17777" />
  <path
     d="m 145.06681,17.8382 c 47.8345,1.8613 32.11253,-0.3526 60.44231,-0.0423 1.81716,0.0282 3.63434,0.0564 5.4515,0.0987 V 17.119 c -5.34052,-0.1974 -9.86403,-0.2961 -13.05309,-0.2961 -22.43439,0.0705 -7.04534,1.4665 -52.47036,-0.3667 C 126.71176,15.6525 102.38654,14.2424 90.335122,14.2565 62.74678,14.7782 31.079521,15.314 1.3404159,16.569 v 0.5641 C 120.40799,15.3281 80.990721,15.3422 145.06681,17.8382 Z"
     fill="#ce7f42"
     id="path34"
     style="stroke-width:1.17777" />
  <path
     d="m 141.0621,30.8674 c 0.29686,-0.0282 5.19211,-0.4089 5.26563,-0.4089 16.90936,-1.0576 45.83284,1.2973 64.66896,3.2715 v -0.3948 c -15.611,-1.6922 -35.44863,-3.3984 -50.39241,-3.6946 -11.9406,-0.2538 -16.64997,0.409 -18.13283,0.4654 -19.17112,1.4383 -33.63285,-1.0999 -52.803686,-1.8614 -13.275168,-0.564 -62.444658,0.1692 -88.4756816,0.9589 v 0.5782 C 24.293582,29.3727 56.220514,28.8651 75.206026,28.7664 102.64608,28.5831 121.33502,32.475 141.0621,30.8674 Z"
     fill="#ce7f42"
     id="path36"
     style="stroke-width:1.17777" />
  <path
     d="m 149.81364,27.737 c 4.30155,-0.1269 4.82034,-0.3243 4.96877,-0.5076 0.0374,-0.0564 0.11097,-0.1834 -0.2594,-0.3103 -3.70785,-1.255 -23.50956,-1.5652 -24.58487,-1.5934 -3.55986,-0.1551 -33.966335,-1.4806 -36.524932,-0.0705 -4.412664,2.4254 46.128582,2.8061 56.400432,2.4818 z m -20.02378,-2.0588 c 4.37547,0.0705 20.50511,0.4513 23.99103,1.4665 -4.07822,0.8602 -57.327046,0.1552 -59.626112,-1.5229 -2.00235,-1.4242 31.111152,-0.141 35.635082,0.0564 z"
     fill="#ce7f42"
     id="path38"
     style="stroke-width:1.17777" />
  <path
     d="m 37.086438,33.307 c 5.562196,0.4089 13.608779,2.1434 21.470038,2.7638 h 9.826435 c 0.741709,-0.0846 1.483281,-0.1833 2.187813,-0.3102 10.123147,-1.8049 30.184116,-2.0447 48.465096,-2.0447 8.56579,0 31.556,1.1704 52.50752,2.3549 h 6.19225 c -22.39695,-1.2832 -49.20695,-2.6933 -58.66273,-2.6933 -18.39223,0 -38.564313,0.2397 -48.872922,2.0729 C 59.965543,37.2694 45.87473,33.589 37.2719,32.9686 31.709705,32.5596 13.539948,33.448 1.3031627,34.1249 v 0.3525 C 13.465776,33.8005 31.672668,32.9122 37.086438,33.307 Z"
     fill="#ce7f42"
     id="path40"
     style="stroke-width:1.17777" />
  <path
     d="m 42.834513,31.1073 c 10.234396,0.5358 3.040633,4.6252 35.486638,1.0012 11.828925,-1.3255 9.678288,-1.1986 30.147089,-0.3244 16.24144,0.691 38.49064,1.6499 47.35315,1.382 8.56565,-0.268 31.66726,1.5652 47.01885,2.9048 h 5.89539 c 0.40783,0 0.74213,-0.0423 1.07504,-0.0987 -14.35008,-1.2973 -43.82979,-3.8073 -54.10164,-3.4971 -13.42345,0.4089 -58.476436,-2.0588 -65.410668,-2.0588 -6.971263,0 -19.282084,2.2703 -30.36944,2.4677 -10.901753,0.1975 -8.343294,-2.0305 -16.834874,-2.4677 -4.783449,-0.2538 -25.623027,0.409 -41.8274603,0.9871 v 0.7051 C 17.396947,31.5303 38.236524,30.8676 42.834513,31.1073 Z"
     fill="#ce7f42"
     id="path42"
     style="stroke-width:1.17777" />
  <path
     d="M 203.24528,11.1962 C 176.58425,10.8578 153.52011,11.0129 128.3787,11.1257 103.12645,11.2103 63.746221,10.5476 3.6006265,11.1962 v 0.0282 L 203.80153,11.2385 Z"
     fill="#662f14"
     id="path44"
     style="stroke-width:1.17777" />
  <path
     opacity="0.13"
     d="m 199.76076,6.16252 c 0,-2.15748 -2.44694,-4.23035 -6.97043,-6.1481157 H 3.4909444 c -1.2978457,0 -2.3361138,0.3948337 -2.3361138,0.8883747 V 9.64552 c 0,0.46538 0.9270325,0.84608 2.1136289,0.87428 L 25.92501,11.2389 H 3.60218 c -1.2978318,0 -2.3361069,0.3949 -2.3361069,0.8884 l 0.037082,9.2786 c 0,0.2961 0.4078958,0.5782 1.0382725,0.7333 C 22.254055,24.0005 45.87473,25.0863 71.238221,25.0863 142.24811,25.0722 199.76076,16.6115 199.76076,6.16252 Z M 100.56937,22.8865 c 2.44736,0 10.41987,0.2821 13.05254,0.3949 0,0 0,0 -0.0371,0 -12.49642,0.6204 -12.08846,0.6345 -12.64471,0.6204 L 88.517953,23.2814 c 1.446244,0 8.788285,-0.3949 12.051417,-0.3949 z"
     fill="#dfa164"
     id="path46"
     style="stroke-width:1.17777" />
</svg>
