<svg width="148" height="90" viewBox="0 0 148 90" fill="none" xmlns="http://www.w3.org/2000/svg">
<path d="M24.1677 80.896L7.02595 81.0937V77.7827H1.31201V89.2971H7.12532V85.8872H25.4596L24.1677 80.896Z" fill="#656665"/>
<path d="M7.62218 89.7912H0.815186V77.2886H7.52281V80.5995L24.5651 80.4019L26.1054 86.3814H7.62218V89.7912ZM1.80891 88.8028H6.62846V85.3436H24.8136L23.7702 81.3408L6.52909 81.5879V78.2769H1.80891V88.8028Z" fill="#1D1D1B"/>
<path opacity="0.5" d="M1.31201 84.0588V89.2971H7.12532V85.8873H25.4596L24.9627 84.0588H1.31201Z" fill="#3D3E3D"/>
<path opacity="0.7" d="M2.20654 78.7217H6.03236V82.1315H14.0318L5.13801 83.1693V79.6606L2.20654 78.7217Z" fill="#9F9F9F"/>
<path d="M124.435 80.896L141.576 81.0937V77.7827H147.29V89.2971H141.477V85.8872H123.143L124.435 80.896Z" fill="#656665"/>
<path d="M140.98 86.3321H122.497L124.037 80.3526L141.079 80.5502V77.2393H147.787V89.7419H140.98V86.3321ZM146.793 78.277H142.073V81.588L124.832 81.3409L123.789 85.3437H141.924V88.803H146.744V78.277H146.793Z" fill="#1D1D1B"/>
<path opacity="0.5" d="M147.29 84.0588V89.2971H141.477V85.8873H123.143L123.59 84.0588H147.29Z" fill="#3D3E3D"/>
<path opacity="0.7" d="M146.396 78.7217H142.52V82.1315H134.571L143.415 83.1693V79.6606L146.396 78.7217Z" fill="#9F9F9F"/>
<path d="M127.416 71.0127H21.7827V87.3205H127.416V71.0127Z" fill="#3D3E3D"/>
<path d="M127.913 87.8146H21.2363V70.469H127.913V87.8146ZM22.2797 86.7768H126.919V71.5068H22.2797V86.7768Z" fill="#1D1D1B"/>
<path d="M127.416 85.5415H21.7827V87.3206H127.416V85.5415Z" fill="#3D3E3D"/>
<path opacity="0.5" d="M127.416 71.0127H21.7827V82.8235H127.416V71.0127Z" fill="#3D3E3D"/>
<path d="M102.473 9.48779H46.7254H10.8022L18.3546 82.1317H46.7254H102.473H130.844L138.397 9.48779H102.473Z" fill="#6F4835"/>
<path d="M43.943 33.0597C57.9048 33.7516 71.8667 33.6528 85.8285 33.8504C99.9891 34.0481 114.15 34.5423 128.31 35.0859C130.795 35.1847 133.229 35.2835 135.714 35.3329L138.397 9.48755H10.8022L13.0381 30.9348C23.3232 31.8243 33.6083 32.5656 43.943 33.0597Z" fill="#B85C17"/>
<path d="M135.714 36.0248C133.229 35.9259 130.745 35.8271 128.31 35.7777C114.448 35.2341 100.089 34.6905 85.8782 34.5423C82.2511 34.4928 78.624 34.4434 75.0466 34.4434C64.8609 34.3446 54.3274 34.2952 43.943 33.801C34.6516 33.3562 24.5156 32.6644 12.9884 31.6266C12.6903 31.5772 12.3921 31.3301 12.3921 31.0336L10.1562 9.58637C10.1562 9.3887 10.2059 9.19103 10.3053 9.0922C10.4544 8.94395 10.6034 8.89453 10.8022 8.89453H138.397C138.595 8.89453 138.744 8.99336 138.894 9.0922C139.043 9.24045 139.092 9.43812 139.043 9.58637L136.36 35.4318C136.36 35.7777 136.061 36.0248 135.714 36.0248ZM13.6343 30.2923C24.9131 31.2807 34.8504 31.9725 43.943 32.4173C54.2777 32.9115 64.8112 33.0103 74.9472 33.0597C78.5743 33.1091 82.2014 33.1091 85.7788 33.1586C99.9891 33.3562 114.348 33.8998 128.261 34.394C130.497 34.4928 132.782 34.5423 135.018 34.6411L137.552 10.13H11.5475L13.6343 30.2923Z" fill="#5F3617"/>
<path d="M48.4147 55.2975C63.1716 55.2481 77.8787 54.4574 92.6355 54.2103C106.299 53.9633 119.963 54.7539 133.627 55.594L135.515 37.2601C132.683 37.1613 129.851 37.0624 127.018 36.9636C112.858 36.42 98.6973 35.8764 84.5367 35.7281C70.5748 35.5799 56.613 35.6293 42.6511 34.888C32.8132 34.3939 23.025 33.6526 13.2368 32.8125L15.6218 55.9894C26.5031 55.0504 37.4341 55.3469 48.4147 55.2975Z" fill="#B85C17"/>
<path d="M15.6217 56.6813C15.2739 56.6813 14.9758 56.4342 14.9758 56.0883L12.5908 32.9114C12.5908 32.7138 12.6405 32.5161 12.7896 32.3678C12.9386 32.2196 13.1374 32.1702 13.3361 32.1702C24.0684 33.1091 33.7075 33.801 42.7504 34.2457C53.9298 34.8387 65.3577 34.9376 76.388 34.987C79.1208 34.987 81.8535 35.0364 84.6359 35.0364C99.194 35.1846 114.05 35.7282 127.118 36.2718C129.95 36.3707 132.782 36.4695 135.614 36.5683C135.813 36.5683 135.962 36.6672 136.111 36.8154C136.21 36.9637 136.31 37.1613 136.26 37.3096L134.372 55.6435C134.322 55.9894 134.024 56.2859 133.676 56.2365C119.764 55.3964 106.2 54.6552 92.7348 54.8528C86.5737 54.9517 80.3132 55.1493 74.3012 55.347C65.8545 55.5941 57.1097 55.8906 48.514 55.94H46.7253C45.0856 55.94 43.4957 55.94 41.856 55.94C40.2164 55.94 38.6264 55.94 37.0365 55.94C30.2295 55.94 22.9753 56.0388 15.8204 56.6813C15.6714 56.6813 15.6714 56.6813 15.6217 56.6813ZM13.982 33.5539L16.2179 55.2976C23.2237 54.7046 30.2791 54.6057 36.8874 54.6057C38.5271 54.6057 40.117 54.6057 41.7567 54.6057C43.3963 54.6057 44.9863 54.6057 46.6259 54.6057H48.4146C57.0104 54.6057 65.7055 54.3092 74.1521 54.0127C80.2139 53.8151 86.4743 53.6174 92.6354 53.5186C105.951 53.2715 119.317 54.0127 133.03 54.8528L134.819 37.8532C132.235 37.7543 129.602 37.6555 127.018 37.5567C113.901 37.0625 99.045 36.4695 84.5366 36.3212C81.8038 36.2718 79.0711 36.2718 76.2886 36.2718C65.2583 36.173 53.8304 36.1236 42.6013 35.5306C33.7572 35.1352 24.4162 34.4434 13.982 33.5539Z" fill="#5F3617"/>
<path opacity="0.3" d="M129.404 48.824C123.392 48.9723 117.38 49.6641 111.367 49.7135C108.088 49.763 104.859 49.763 101.579 50.2571C98.8962 50.6525 96.2628 51.1961 93.5798 51.4432C87.5677 51.9867 81.3569 51.2455 75.3449 50.949C62.6252 50.356 50.0545 48.9723 37.3348 49.0711C34.2543 49.1205 31.0247 49.4665 27.9441 49.0711C26.3541 48.8734 24.9629 48.8734 23.4226 49.3676C22.6774 49.6147 21.8327 49.9112 21.0377 49.9606C18.9509 50.0595 17.4603 49.0217 15.92 47.7862C15.5225 47.4897 15.125 47.1932 14.7275 46.8967L15.6716 56.039C26.5529 55.0506 37.4839 55.3472 48.4646 55.3472C63.2214 55.2977 77.9286 54.5071 92.6854 54.26C106.349 54.0129 120.013 54.8036 133.677 55.6437L134.372 48.9723C132.683 48.824 131.043 48.7746 129.404 48.824Z" fill="#703405"/>
<path d="M90.0021 56.1873C75.6925 56.5332 61.4325 57.2251 47.1228 57.1756C36.639 57.1262 26.2049 56.9285 15.8701 57.8675L18.4041 82.1315H130.944L133.478 57.4721C118.969 56.632 104.511 55.8414 90.0021 56.1873Z" fill="#B85C17"/>
<path d="M130.844 82.8232H18.3545C18.0067 82.8232 17.7086 82.5762 17.7086 82.2302L15.1746 57.9662C15.1746 57.7685 15.2242 57.6203 15.3236 57.472C15.423 57.3238 15.6217 57.2249 15.7708 57.2249C22.8759 56.5825 29.9811 56.4837 35.9931 56.4837C38.229 56.4837 40.4649 56.4837 42.7008 56.5331C44.1913 56.5331 45.6322 56.5331 47.1228 56.5331H48.514C57.5569 56.5331 66.7986 56.2366 75.6924 55.9401C80.4126 55.7918 85.2322 55.6436 90.0518 55.4953C92.4367 55.4459 94.8713 55.3965 97.3556 55.3965C109.827 55.3965 122.547 56.0883 133.478 56.7802C133.676 56.7802 133.825 56.879 133.925 57.0273C134.024 57.1755 134.074 57.3238 134.074 57.5214L131.54 82.1808C131.49 82.5762 131.192 82.8232 130.844 82.8232ZM18.9507 81.489H130.248L132.683 58.1145C121.901 57.472 109.479 56.7802 97.306 56.7802C94.8216 56.7802 92.387 56.8296 90.0021 56.879C85.2322 56.9778 80.3629 57.1261 75.6924 57.3238C66.7986 57.6203 57.5569 57.9168 48.4644 57.9168H47.0731C45.5826 57.9168 44.1416 57.9168 42.6511 57.9168C40.4152 57.9168 38.1793 57.9168 35.9434 57.9168C30.1798 57.9168 23.3728 58.0156 16.5161 58.5592L18.9507 81.489Z" fill="#5F3617"/>
<path opacity="0.4" d="M128.062 71.4077C115.044 72.0501 102.175 69.4804 89.1576 69.2827C76.1398 69.085 62.9232 68.9862 49.9054 69.7275C43.6449 70.0734 37.136 71.5065 30.8755 70.8641C27.8447 70.5676 24.8138 69.9251 21.7829 70.0734C20.193 70.1722 18.603 70.3205 17.0627 70.4193L18.3049 82.1807H130.844L131.987 71.21C130.695 71.2594 129.403 71.3582 128.062 71.4077Z" fill="#E59051"/>
<path opacity="0.3" d="M126.571 30.6877C119.764 30.8854 112.908 32.0714 106.051 31.9726C102.871 31.9232 99.7407 31.4784 96.5608 31.3302C93.3312 31.1325 90.1513 31.4784 86.9217 31.4784C80.214 31.429 73.556 31.0831 66.8484 31.3302C60.3892 31.5772 53.9299 31.2313 47.4707 30.836C40.614 30.3912 33.807 29.6994 26.9503 29.4029C23.5219 29.2546 20.2426 29.304 16.8639 29.7982C15.5224 29.9959 14.2306 30.1441 12.9387 30.1441L13.0381 30.9348C23.3232 31.8243 33.6082 32.615 43.943 33.1092C57.9049 33.801 71.8667 33.7022 85.8286 33.8999C99.9892 34.0975 114.15 34.5917 128.31 35.1353C130.795 35.2341 133.229 35.333 135.714 35.3824L136.211 30.5395C132.981 30.5889 129.801 30.5889 126.571 30.6877Z" fill="#703405"/>
<g opacity="0.7">
<path opacity="0.7" d="M28.4907 23.9175C27.1989 24.0657 25.9567 24.1646 24.7146 24.4117C23.2737 24.6587 21.8825 25.1035 20.541 25.6471C23.5718 25.3012 26.6523 24.8564 29.6335 25.1035C31.5712 25.2518 29.7329 26.7837 28.8385 27.2285C27.8945 27.7226 26.8511 28.0191 25.8077 28.3156C23.7705 28.9087 21.7831 29.6993 19.746 30.0947C19.4479 30.1441 19.1497 30.7371 19.6466 30.6877C22.4787 30.3912 25.6089 29.3534 28.3417 28.3651C29.5341 27.9697 32.0184 26.6849 31.919 25.0541C31.8197 24.1646 30.3788 23.9175 28.4907 23.9175Z" fill="#E59051"/>
<path opacity="0.7" d="M41.5086 23.1763C39.5708 25.4001 35.7946 26.5861 33.1612 27.6733C30.9254 28.6123 28.6398 29.3535 26.4039 30.2925C29.3354 29.403 32.2172 28.2663 35.099 27.278C36.3909 26.8332 37.6827 26.3391 39.0242 25.8943C40.813 25.1036 42.6017 24.0658 43.1482 22.3856C44.0923 19.4206 36.3412 19.6677 35.1487 19.6677C28.7392 19.7171 22.2799 19.2723 16.0194 20.8043C15.8207 20.8537 15.5722 21.2984 15.9201 21.249C21.4352 20.3595 26.8511 20.9525 32.4159 21.0019C33.5091 21.0514 43.2476 21.1996 41.5086 23.1763Z" fill="#E59051"/>
<path opacity="0.7" d="M24.466 15.2202C24.2672 15.2202 23.9691 15.665 24.2672 15.665C29.2359 15.7638 34.1548 16.4062 39.0738 17.2463C43.9431 18.0864 48.9614 18.7783 53.7313 19.9643C56.6628 20.7056 51.396 23.0282 50.6507 23.3247C48.7626 24.0165 47.0236 25.0543 45.2349 25.9438C41.2103 27.9699 36.6888 28.4147 32.6642 30.342C35.9435 29.5019 39.3222 28.81 42.6015 28.0688C44.6387 27.2781 46.5764 26.1909 48.5639 25.252C50.8495 24.1648 55.8181 23.4235 56.4143 20.4091C57.0106 17.3452 27.5962 15.2202 24.466 15.2202Z" fill="#E59051"/>
<path opacity="0.7" d="M72.2148 19.4206C71.5688 18.4817 69.7304 18.2346 68.687 17.8887C66.4014 17.098 64.0165 16.4556 61.6315 15.912C56.812 14.7259 51.893 13.8364 46.974 13.2434C46.7753 13.2434 46.5269 13.5893 46.7256 13.6388C51.4955 14.7259 56.3151 15.5166 61.0353 16.7026C63.3706 17.2957 65.7058 18.0369 67.9914 18.8276C68.8858 19.1241 69.7801 19.47 70.6745 19.816C71.5192 20.1125 68.3889 21.6444 67.9417 21.8915C63.9171 23.9176 59.6441 25.4496 55.5201 27.3274C53.0358 28.464 50.5018 29.403 47.9181 30.1442C45.9306 30.7373 43.8438 30.8855 41.8066 31.3797C44.7878 31.5279 48.0671 30.6384 50.9986 29.9466C53.632 29.0076 56.2157 27.871 58.7497 26.685C61.7806 25.2519 64.9605 24.1647 67.9914 22.781C69.4323 22.1386 71.4198 21.3479 72.2148 19.8654C72.3638 19.7171 72.3141 19.5689 72.2148 19.4206Z" fill="#E59051"/>
<path opacity="0.7" d="M123.938 15.6155C117.926 16.1591 111.914 17.098 105.952 17.9875C99.7906 18.9264 93.6295 19.3712 87.518 20.2607C81.9035 21.0514 76.7361 23.4234 71.5687 25.5484C67.0969 27.3768 61.6811 29.996 56.7125 30.6384C55.9175 30.7867 55.1225 30.9843 54.4766 31.3302C58.849 31.6762 63.1717 29.7983 67.246 28.464C73.2083 26.5367 78.7732 23.4234 84.8846 21.9409C90.8967 20.5078 97.1572 20.409 103.219 19.3218C110.076 18.0369 117.032 17.4439 123.888 16.2085C124.137 16.1591 124.385 15.6155 123.938 15.6155Z" fill="#E59051"/>
<path opacity="0.7" d="M130.845 18.5311C119.069 18.1852 107.194 21.8421 95.8157 24.5107C85.4313 26.9321 75.0468 30.2431 64.4139 31.6762C63.8674 31.8738 63.2712 32.0715 62.7246 32.3186C73.0097 31.4291 82.9966 28.4146 93.0333 26.092C105.206 23.2258 118.026 19.1736 130.596 19.0747C130.845 18.9759 131.143 18.5311 130.845 18.5311Z" fill="#E59051"/>
<path opacity="0.7" d="M133.726 19.5689C131.639 20.409 129.453 20.3596 127.267 20.7549C124.981 21.1503 122.745 21.6444 120.51 22.2374C116.187 23.374 112.063 25.3507 107.84 26.8333C99.6414 29.6501 90.8469 31.1326 82.2015 32.3186C82.0524 32.368 81.9033 32.4175 81.7543 32.4669C80.1146 32.961 78.3259 33.0599 76.6863 33.5046C81.3568 33.307 86.1764 32.2692 90.7475 31.4785C96.0639 30.5396 101.43 29.5512 106.597 27.9699C111.616 26.4379 116.386 24.1647 121.454 22.7316C125.379 21.6444 130 21.6939 133.726 20.0137C134.024 19.8654 134.074 19.4206 133.726 19.5689Z" fill="#E59051"/>
<path opacity="0.7" d="M133.975 22.2869C122.994 24.8566 112.461 29.0077 101.53 31.6763C102.573 31.528 103.616 31.3303 104.61 31.2315C114.448 28.7112 123.988 25.252 133.826 22.8799C134.173 22.8305 134.422 22.1881 133.975 22.2869Z" fill="#E59051"/>
<path opacity="0.7" d="M133.627 25.1531C127.913 26.438 122.199 28.4641 116.932 31.1326C117.926 31.0338 118.87 30.8361 119.864 30.6385C124.335 28.81 128.758 26.8827 133.528 25.6473C133.776 25.5979 133.975 25.1037 133.627 25.1531Z" fill="#E59051"/>
<path opacity="0.7" d="M131.54 38.743C112.063 37.8535 92.5364 39.4842 73.0594 38.5947C63.1718 38.15 53.3339 37.4087 43.496 36.7663C38.4777 36.4698 33.4097 36.0745 28.3417 36.0745C26.4039 36.0745 24.4164 36.0745 22.5284 36.3215C20.2428 36.5686 18.0566 37.2605 15.7213 36.8157C15.4729 36.7663 15.1748 37.2605 15.4729 37.3099C19.0503 38.1006 23.1246 36.8651 26.7517 36.8157C31.77 36.7169 36.7883 37.1616 41.757 37.5076C51.6446 38.15 61.4824 38.8912 71.37 39.3854C80.9098 39.8301 90.4993 39.3854 100.039 39.6819C105.256 39.8301 110.423 39.5336 115.591 39.4842C120.758 39.4348 125.975 39.6325 131.143 39.3854C131.59 39.3854 131.987 38.743 131.54 38.743Z" fill="#E59051"/>
<path opacity="0.7" d="M65.7056 42.2022C63.6685 40.7196 60.3395 41.0161 57.9546 40.7196C53.3338 40.176 48.6136 40.3243 43.9431 40.3243C35.3473 40.3243 26.9007 39.4348 18.4043 41.3126C18.1559 41.3621 17.9572 41.8562 18.305 41.7574C26.2548 40.2749 34.3039 40.8185 42.3531 41.0656C46.1789 41.1644 49.9551 41.115 53.7809 41.2138C55.5199 41.2632 57.2093 41.4609 58.9483 41.6586C59.793 41.7574 60.6873 41.8562 61.532 41.9057C61.6314 41.9057 64.6622 42.5975 64.1157 42.894C61.4823 44.1789 57.7558 43.8824 54.9237 44.2777C51.0482 44.8213 47.2223 45.5132 43.3468 46.1062C34.7511 47.391 26.3541 46.798 17.7087 47.2922C17.4106 47.2922 16.9137 47.984 17.4106 47.984C26.5032 48.1817 35.4467 48.0335 44.4399 46.6992C48.9117 46.0073 53.4331 44.9696 58.0043 44.6731C60.5879 44.4754 63.3704 44.3765 65.5566 42.7952C65.6063 42.7458 65.9044 42.3998 65.7056 42.2022Z" fill="#E59051"/>
<path opacity="0.7" d="M41.26 42.1527C33.0121 42.0045 24.7642 41.5103 16.5659 42.5975C16.2678 42.6469 16.0194 43.1905 16.4665 43.1411C23.522 42.4492 30.5775 42.6469 37.6329 42.8446C33.658 43.6352 29.6831 44.3271 25.6585 44.4753C22.4786 44.6236 17.9571 43.3387 15.2244 45.2166C14.9263 45.4143 14.9263 46.0567 15.3734 45.8096C17.4106 44.7224 20.5905 45.266 22.8264 45.3154C24.5157 45.3154 26.2051 45.266 27.8447 45.1178C32.2668 44.6236 36.6889 43.8329 41.0116 42.894C41.3097 42.894 41.8066 42.1527 41.26 42.1527Z" fill="#E59051"/>
<path opacity="0.7" d="M130.248 50.9491C121.255 50.3066 112.113 50.5043 103.07 50.9985C93.4802 51.5421 83.8411 50.3066 74.2019 50.3066C55.818 50.3066 37.3347 51.2456 19.0502 53.0246C18.7024 53.074 18.4043 53.7658 18.9011 53.7164C37.136 52.3327 55.4205 51.5421 73.7051 51.3938C82.897 51.3444 92.0393 52.4316 101.182 52.2339C110.92 51.9868 120.51 52.0362 129.801 51.7891C130.298 51.7891 130.844 50.9985 130.248 50.9491Z" fill="#E59051"/>
<path opacity="0.7" d="M133.726 45.019C125.727 45.5132 117.379 44.7719 109.33 43.833C111.715 43.6847 114.1 43.7341 116.435 43.5365C120.758 43.1411 125.031 42.301 129.354 43.3388C129.652 43.3882 130.149 42.8446 129.751 42.7458C129.652 42.6964 129.503 42.6964 129.404 42.647C129.503 42.4987 129.553 42.3505 129.404 42.2516C125.031 40.7691 120.41 40.9668 115.839 40.9668C109.579 40.9668 103.368 40.9174 97.1075 41.115C91.5923 41.3127 86.0771 41.7575 80.5619 42.2516C77.5807 42.4987 73.7052 42.054 71.2705 44.0801C71.0718 44.2777 70.9724 44.6237 71.2209 44.7719C74.3014 46.7486 78.8726 46.8475 82.4003 47.391C88.1142 48.2311 93.8282 48.3794 99.5918 48.2806C105.008 48.1817 110.423 47.8852 115.839 47.9841C121.056 48.0829 126.224 48.1817 131.341 47.1934C131.739 47.144 132.037 46.3533 131.49 46.4521C126.422 47.2428 121.354 47.144 116.237 47.0945C110.821 46.9957 105.405 47.2922 99.9893 47.391C95.0206 47.4899 90.1017 47.3911 85.1827 46.798C81.3072 46.3533 75.9411 46.1556 72.3636 44.2283C74.997 42.7458 80.1644 43.24 82.8972 42.9929C88.313 42.5481 93.7785 42.1528 99.1943 41.9551C104.213 41.7574 109.231 41.708 114.249 41.7575C118.274 41.8069 122.398 41.4609 126.373 42.1528C123.839 41.9551 121.305 42.2022 118.771 42.4493C114.349 42.9435 109.777 42.4493 105.455 43.3882C105.107 43.4871 104.511 44.2777 105.157 44.3272C109.927 44.9202 114.746 45.1178 119.516 45.4638C124.187 45.8097 128.857 46.3039 133.528 45.6614C133.826 45.6614 134.173 45.019 133.726 45.019Z" fill="#E59051"/>
<path opacity="0.7" d="M127.317 56.4346C109.579 57.3241 91.8408 58.5595 74.1028 59.8444C64.0165 60.5857 54.4767 60.1903 44.4401 58.856C39.8689 58.2136 35.2978 57.7194 30.7266 57.6206C26.5033 57.5218 22.1309 58.5101 17.9572 58.2136C17.7585 58.2136 17.5101 58.6089 17.7585 58.6584C21.8328 59.3502 26.2549 58.4113 30.3788 58.4113C34.9997 58.4607 39.5708 59.0537 44.0923 59.6961C53.2345 60.9316 62.0787 61.574 71.2707 60.9316C88.3628 59.6467 105.455 58.8066 122.547 57.67C124.137 57.2253 125.727 56.8299 127.317 56.4346Z" fill="#E59051"/>
<path opacity="0.7" d="M46.7255 63.6987C44.0921 61.6726 40.3656 61.4749 37.136 61.2278C31.4718 60.8325 25.7579 60.6843 20.0937 60.9313C19.8452 60.9313 19.5471 61.4255 19.8452 61.4255C27.4472 61.8209 35.9436 61.2279 43.2971 63.3528C46.2286 64.1929 43.5455 65.1813 42.0053 65.626C39.7197 66.2685 37.4341 66.9603 35.1486 67.6027C30.4781 68.937 25.8573 69.53 20.988 68.9864C20.6899 68.937 20.193 69.5795 20.5905 69.6783C25.261 71.062 30.329 69.876 34.9498 68.6405C37.6329 67.9487 40.3159 67.158 42.999 66.3673C44.3902 65.972 45.6324 65.5272 46.6261 64.44C46.7255 64.3412 46.9739 63.8964 46.7255 63.6987Z" fill="#E59051"/>
<path opacity="0.7" d="M33.2108 63.0564C31.124 62.3646 28.9378 62.5623 26.7516 62.6117C24.3667 62.6117 22.0314 62.1669 19.6961 62.8588C19.398 62.9576 19.0502 63.6494 19.5471 63.5506C21.5345 63.0564 23.5717 63.4518 25.6088 63.5012C27.6956 63.5506 29.8818 63.3035 31.919 63.8471C30.7265 64.7861 28.9875 65.1814 27.5963 65.5767C25.5094 66.1698 23.5717 66.8122 21.3855 66.911C20.988 66.911 20.3421 67.7511 20.988 67.85C23.5717 68.097 26.2051 67.0099 28.59 66.2686C30.329 65.7744 32.068 65.132 33.2605 63.6989C33.4096 63.5012 33.5089 63.1058 33.2108 63.0564Z" fill="#E59051"/>
<path opacity="0.7" d="M115.79 66.5649C119.715 65.5272 123.64 64.5388 127.714 64.0941C124.485 63.5999 121.305 64.5882 118.125 65.1318C113.007 65.9719 107.74 65.9719 102.573 65.626C93.1327 64.9836 84.1891 65.1318 74.8481 66.7132C64.7618 68.4428 55.0232 71.2596 44.7382 71.8526C40.0677 72.0997 35.4468 71.6055 30.7763 71.1114C27.5964 70.8149 23.4724 70.3207 20.6403 72.0503C20.2925 72.248 20.3919 72.7916 20.839 72.5445C24.6152 70.4195 31.1738 72.1491 35.2481 72.6433C39.5708 73.1375 43.9432 73.0881 48.2659 72.6927C57.2094 71.9515 65.8549 69.4312 74.6493 67.8498C83.7916 66.219 92.8842 66.0213 102.126 66.7626C106.2 67.1085 110.274 67.0591 114.349 66.7132C114.746 66.7132 115.243 66.6144 115.79 66.5649Z" fill="#E59051"/>
<path opacity="0.7" d="M124.286 60.536C125.329 60.2889 126.373 60.0418 127.416 59.8936C121.752 60.0418 116.088 59.8441 110.423 60.2889C103.02 60.8325 95.7162 61.9691 88.2632 62.1668C81.2575 62.3644 74.6492 63.0069 67.7925 64.4894C64.7119 65.1812 61.5817 65.8731 58.5011 66.7132C57.3584 67.0097 56.1659 67.405 54.9237 67.7016C54.6753 67.8004 54.4766 67.8498 54.2281 67.9486C53.3338 68.2946 52.34 68.5911 51.2966 68.7887C55.0231 69.0852 59.2961 67.3556 62.6748 66.6144C70.5252 64.8847 78.2266 63.7976 86.3255 63.6493C93.1325 63.501 99.6911 62.7598 106.448 62.0679C110.423 61.6726 114.448 61.5738 118.423 61.4749C120.46 61.2772 122.398 60.9807 124.286 60.536Z" fill="#E59051"/>
<path opacity="0.7" d="M127.515 68.4429C125.826 68.7394 124.037 68.7888 122.298 68.9865C119.516 69.3324 116.733 69.6783 113.951 70.1725C108.833 71.0126 103.616 70.9632 98.4986 71.6056C93.0828 72.2975 87.9651 73.8294 82.45 73.8294C79.8663 73.8294 77.3323 73.5329 74.7486 73.7306C71.9662 73.9777 69.3328 74.6695 66.6001 75.1143C66.3019 75.1637 65.9045 75.8555 66.3516 75.8061C68.6869 75.6579 70.9228 74.966 73.258 74.7189C76.587 74.373 79.8663 74.6695 83.1953 74.8178C88.2633 75.0154 93.2319 73.78 98.2005 73.0387C103.765 72.1986 109.38 72.2975 114.895 71.2597C115.392 71.1609 115.938 71.062 116.435 70.9632C120.162 70.0737 123.938 69.6289 127.515 68.4429Z" fill="#E59051"/>
</g>
<path opacity="0.3" d="M23.8696 9.73486L28.3414 73.187L119.118 70.9632L126.919 12.4034L23.8696 9.73486ZM118.522 25.3508C118.522 25.3508 116.684 29.3536 116.187 29.6996C115.69 30.0455 118.025 32.714 118.025 32.714L77.5308 35.3826L118.174 37.211L118.323 39.5337C118.323 39.5337 116.485 42.6964 115.988 42.6964C115.491 42.6964 116.336 52.1845 116.336 52.1845L113.305 53.8647L80.0151 56.6815L117.329 57.324L116.236 61.0797C114.547 61.1785 112.858 61.228 111.218 61.6727C110.92 61.7716 110.92 62.1175 111.119 62.2657C112.361 63.1553 113.802 63.7483 115.292 64.193L114.597 66.318L33.4591 68.9865L32.7138 64.9343C33.2603 64.5389 33.8069 64.1436 34.3534 63.6988C34.5025 63.5506 34.4528 63.2541 34.3037 63.1553C33.9062 62.9576 33.5088 62.7599 33.161 62.4634L33.6578 59.5972L64.4136 54.9519L33.4591 54.606C33.4591 54.606 33.0616 48.9724 32.7138 43.6353C33.5584 43.0917 34.4528 42.5975 35.2975 42.1034C35.4962 42.0045 35.4962 41.7574 35.3471 41.5598C34.5025 40.4726 33.4591 39.5831 32.4157 38.6441C32.3163 35.9756 32.2666 34.0977 32.4157 34.1471C32.9125 34.2954 63.0224 33.653 62.5255 33.5047C62.0287 33.3565 55.8179 33.3565 44.4397 31.6763C33.0616 29.9961 32.2169 29.9961 32.2169 29.9961L33.5584 27.8217L30.7263 26.6357C30.7263 26.6357 30.7263 26.6357 30.2295 25.7956C29.7326 24.9555 32.5647 22.4846 32.4157 22.1387C32.2666 21.7927 31.0741 19.4701 31.0741 19.4701V15.665L33.0616 17.3452L43.0982 17.9876C43.0982 17.9876 68.0407 17.4934 68.5376 17.8393C69.0841 18.1853 83.5925 18.6794 84.3875 18.6794C85.2321 18.6794 110.97 18.3335 111.466 18.037C111.963 17.6911 119.814 17.6911 119.814 17.6911L118.522 25.3508Z" fill="#703405"/>
<path d="M7.37378 0.740723L16.5161 82.4774H32.3163L27.4471 13.441L7.37378 0.740723Z" fill="#BA6C0F"/>
<path d="M32.3163 83.1701H16.5161C16.1683 83.1701 15.8702 82.923 15.8702 82.5771L6.72789 0.790973C6.67821 0.543885 6.82726 0.296796 7.02601 0.148543C7.22475 0.000290319 7.52287 0.000290319 7.72162 0.148543L27.7949 12.8983C27.9936 12.9971 28.093 13.1948 28.093 13.3925L32.9622 82.4288C32.9622 82.6265 32.9125 82.7748 32.7635 82.923C32.7138 83.0713 32.515 83.1701 32.3163 83.1701ZM17.1123 81.8358H31.6207L26.8011 13.8372L8.21848 2.02641L17.1123 81.8358Z" fill="#743C25"/>
<path d="M142.521 1.08643L131.788 82.4772H115.988L123.391 14.3798L142.521 1.08643Z" fill="#BA6C0F"/>
<path d="M131.788 83.1692H115.938C115.74 83.1692 115.591 83.0704 115.442 82.9715C115.293 82.8233 115.243 82.6256 115.293 82.4773L122.696 14.3799C122.696 14.1822 122.795 14.034 122.994 13.8857L142.123 0.592391C142.322 0.444138 142.62 0.444138 142.868 0.592391C143.117 0.740644 143.216 0.987733 143.167 1.23482L132.484 82.5762C132.434 82.9221 132.136 83.1692 131.788 83.1692ZM116.733 81.8349H131.242L141.676 2.51968L124.037 14.7258L116.733 81.8349Z" fill="#743C25"/>
<path d="M31.223 71.1114L16.5159 82.4775H130.844L117.18 68.7888L31.223 71.1114Z" fill="#BA6C0F"/>
<path d="M130.844 83.1694H16.516C16.2178 83.1694 15.9694 82.9718 15.87 82.7247C15.7707 82.4776 15.87 82.1811 16.0688 81.9834L30.7759 70.6174C30.8753 70.5185 31.0244 70.4691 31.1734 70.4691L117.18 68.1465C117.379 68.1465 117.528 68.1959 117.677 68.3442L131.341 82.0328C131.54 82.2305 131.589 82.527 131.49 82.7741C131.391 82.9718 131.142 83.1694 130.844 83.1694ZM18.4537 81.8352H129.254L116.932 69.4808L31.4715 71.8034L18.4537 81.8352Z" fill="#743C25"/>
<path d="M7.47314 0.641846L27.5464 13.441L123.739 14.5282L142.471 0.641846H7.47314Z" fill="#BA6C0F"/>
<path d="M123.74 15.2201L27.5474 14.1329C27.3983 14.1329 27.299 14.0835 27.1996 14.0341L7.07665 1.23495C6.82822 1.0867 6.72885 0.790191 6.77853 0.493686C6.87791 0.197182 7.12634 -0.000488281 7.42446 -0.000488281H142.422C142.72 -0.000488281 142.969 0.197179 143.068 0.444266C143.167 0.740771 143.068 1.03728 142.82 1.18553L124.088 15.0718C123.988 15.1707 123.889 15.2201 123.74 15.2201ZM27.7461 12.7986L123.492 13.8858L140.435 1.33378H9.75971L27.7461 12.7986Z" fill="#743C25"/>
<path opacity="0.3" d="M142.471 0.641846H7.47303L8.11895 1.03719L7.42334 0.740683L16.5159 82.4774H131.838L142.521 1.0866L142.471 0.641846ZM16.6153 3.16214C20.4908 2.66797 24.4658 3.35981 28.391 3.11272C32.4156 2.86564 36.3905 2.81622 40.4648 2.96447C48.5636 3.21156 56.5631 3.50807 64.662 3.3104C73.0093 3.11273 81.4063 2.66797 89.7536 2.56913C93.9273 2.51971 98.1009 2.51971 102.324 2.66797C105.355 2.7668 108.485 2.7668 111.516 3.01389C113.255 2.96447 114.994 2.7668 116.733 2.66797C123.292 2.27262 129.95 3.26098 136.459 2.07496C136.757 2.02554 137.055 2.37146 136.757 2.61855C136.658 2.71738 136.508 2.81622 136.409 2.91505C136.409 2.96447 136.409 3.01389 136.359 3.06331C135.763 4.15049 134.571 4.64467 133.428 5.04001C133.378 5.08943 133.279 5.08943 133.229 5.13884C132.037 5.83069 130.894 6.47312 129.801 7.31322C127.813 8.79575 125.776 10.2783 123.441 11.1678C122.596 11.6125 121.95 11.6125 121.205 11.5137C121.155 11.5137 121.106 11.5631 121.056 11.5631C102.672 11.5631 84.2384 11.9585 65.8545 11.3655C56.7619 11.069 47.6693 10.7725 38.5767 10.8713C34.6515 10.9207 30.4281 11.4149 26.652 9.98177C23.6708 8.84516 20.9877 7.16497 18.5034 5.23768C17.7581 4.79292 17.0625 4.29875 16.4166 3.70574C16.1184 3.50807 16.3172 3.21156 16.6153 3.16214ZM123.391 14.5282L117.479 68.9864L117.23 68.7393L31.5709 71.0619L27.4469 13.441L27.4966 13.4904L123.391 14.5282ZM17.7084 77.7827C17.0625 75.4106 17.1619 72.8409 16.8637 70.4195C16.5159 67.405 16.0688 64.3905 15.721 61.3266C15.1247 55.2483 14.3794 49.2687 13.6341 43.1904C12.8888 37.2108 12.4913 31.1819 11.8951 25.2024C11.597 22.1385 11.1498 19.0746 10.6033 16.0107C10.4542 15.0718 10.2555 14.1328 10.1561 13.1939C9.51017 10.8219 8.96362 8.4004 8.86424 5.88011C8.86424 5.5836 9.16236 5.48477 9.36111 5.5836C12.6901 6.9673 15.3235 9.53701 18.255 11.6125C20.2921 13.0457 22.7764 14.627 23.7701 17.0485C25.0123 20.2606 24.9626 24.0164 25.0123 27.4262C25.062 31.2807 25.3601 35.0365 25.7576 38.8911C26.1551 43.141 26.652 47.3909 26.8507 51.6408C27.0494 55.5942 27.0991 59.5476 27.4966 63.501C27.7947 66.3672 29.4344 69.9747 26.652 72.1491C25.4098 73.088 23.9689 73.681 22.677 74.5211C21.1368 75.5589 19.6959 76.6955 18.255 77.8321C18.1059 78.0792 17.8078 78.0792 17.7084 77.7827ZM124.335 79.6111C120.509 79.8582 116.684 80.1547 112.858 79.6111C112.758 79.6111 112.659 79.5123 112.609 79.4135C106.051 79.2652 99.5418 79.4135 92.9832 79.4629C84.6856 79.5617 76.2886 78.9193 68.0407 79.8582C63.718 80.3524 59.594 80.6489 55.2216 80.2536C51.2964 79.9076 47.4705 79.8582 43.5453 80.2536C39.471 80.6489 35.3967 80.8466 31.2728 80.7972C28.4407 80.7972 25.2111 81.1925 22.528 80.0559C22.3292 79.9571 22.2796 79.6606 22.4783 79.5123C25.3104 77.3379 28.2419 75.3118 30.9747 73.088C30.9747 72.9398 31.0244 72.7915 31.2231 72.7915C31.2728 72.7915 31.3722 72.7915 31.4218 72.7915C31.5212 72.6927 31.6703 72.6927 31.7696 72.7421C34.7011 72.3467 37.9307 72.7915 40.8622 72.8409C44.539 72.9398 48.1661 72.9892 51.8429 72.9892C58.8984 72.9892 66.0035 72.7915 73.0093 72.0008C80.2635 71.1607 87.319 71.1607 94.5732 71.4078C98.2997 71.5561 101.976 71.6549 105.653 71.4078C109.032 71.2102 112.659 71.6055 115.889 70.5677C115.988 70.5183 116.137 70.5677 116.187 70.6666C117.628 72.0997 118.82 73.7799 120.311 75.1635C121.652 76.4484 123.242 77.4862 124.435 78.9687C124.733 79.2652 124.633 79.5617 124.335 79.6111ZM140.384 5.04001C138.744 10.9701 138.546 17.2462 137.502 23.2751C136.459 29.4029 135.316 35.4812 134.372 41.609C133.428 47.8356 132.633 54.1117 131.689 60.3383C131.192 63.6493 130.496 66.9108 130.298 70.2712C130.149 72.8409 130.248 75.4601 129.602 77.9804C129.552 78.2274 129.205 78.2769 129.056 78.1286C126.571 75.806 124.087 73.1869 122.099 70.37C121.304 69.2334 120.112 67.8498 119.814 66.4661C119.565 65.2306 119.764 64.1434 119.963 62.9574C121.006 55.4954 121.503 47.9345 122.646 40.4724C123.043 37.7544 123.54 35.0365 124.037 32.2691C124.435 28.5628 124.882 24.9059 125.329 21.1996C125.528 19.4699 125.279 17.2956 125.826 15.6648C126.273 14.3799 127.466 13.5398 128.559 12.848C132.534 10.3771 136.161 7.56031 139.837 4.64467C140.086 4.49642 140.483 4.69409 140.384 5.04001Z" fill="#7D4A08"/>
<path opacity="0.4" d="M131.938 11.5632C131.192 12.0574 130.447 12.5516 129.652 12.9964C128.807 13.4905 127.813 14.0341 127.118 14.7754L127.068 14.8248C127.962 13.9847 129.006 13.54 130 12.8481C130.695 12.4528 131.341 12.008 131.938 11.5632Z" fill="#BA6C0F"/>
<path opacity="0.4" d="M117.329 3.31035C116.137 3.40918 114.994 3.50802 113.802 3.55743C114.845 3.55743 115.889 3.55743 116.932 3.55743C120.162 3.50802 123.342 3.31035 126.571 3.31035C123.491 3.26093 120.41 3.11268 117.329 3.31035Z" fill="#BA6C0F"/>
<path opacity="0.4" d="M107.045 3.60709C106.697 3.55767 106.349 3.55767 105.951 3.50826C105.306 3.45884 104.66 3.45884 104.063 3.40942C103.716 3.40942 103.368 3.40943 103.02 3.45884C101.927 3.55767 100.834 3.75533 99.7407 3.80475C102.175 3.6565 104.61 3.60709 107.045 3.60709Z" fill="#BA6C0F"/>
<path opacity="0.5" d="M111.516 19.3713C99.0948 20.0137 86.5739 20.2113 74.1523 19.8654C67.395 19.6678 60.6873 20.0137 53.93 20.2113C50.5016 20.3102 47.2223 19.9148 43.8437 19.3218C40.4153 18.7288 37.0863 19.223 33.658 19.3218C34.8504 19.6678 36.0926 20.0137 37.3347 20.3102C39.4713 20.5079 41.6078 20.7055 43.7443 20.7055C43.8933 20.7055 43.9927 20.8044 44.0424 20.9032C46.2783 21.1997 48.5142 21.5456 50.7997 21.5456C57.9546 21.6939 65.1094 20.9526 72.2642 21.1503C84.2386 21.4962 96.064 20.9526 107.989 20.2113C109.181 19.9148 110.324 19.6183 111.516 19.3713Z" fill="#BA6C0F"/>
<path opacity="0.5" d="M97.2069 38.7429C98.1012 38.644 98.9956 38.5452 99.89 38.4464C96.8591 38.2487 93.7785 37.9522 90.847 37.6063C84.1394 36.865 77.4814 37.3098 70.7738 37.5074C64.2649 37.7545 57.8056 37.5569 51.2967 37.0627C48.1168 36.8156 44.9866 36.6673 41.8066 36.6179C39.8689 36.6179 37.8317 37.1121 35.894 36.9144C35.2977 36.9638 34.6518 37.0133 34.1052 36.9144C34.0059 36.9638 33.9065 37.0133 33.8071 37.0627C35.248 38.051 36.8877 37.9522 38.577 37.9522C41.8066 37.9028 44.9866 38.1499 48.2162 38.3969C55.1226 38.8911 61.9296 39.3359 68.8857 39.0888C74.7487 38.8911 80.6613 38.397 86.5243 38.6935C89.1577 38.6935 91.7911 38.7429 94.4245 38.7429C95.3685 38.7429 96.2628 38.7429 97.2069 38.7429Z" fill="#BA6C0F"/>
<path opacity="0.5" d="M71.2208 58.263C64.6622 58.6583 58.0042 58.9548 51.3959 59.1525C46.2285 59.3008 41.1108 59.0043 36.0925 60.2397C39.2725 60.3385 42.5021 60.5362 45.682 60.6844C54.0293 60.3879 62.4263 60.2397 70.7736 59.5973C77.8787 59.0537 84.8348 59.1525 91.94 59.1031C95.6168 59.1031 99.3432 59.2513 103.02 59.2019C105.107 58.8066 107.194 58.4607 109.281 58.1147C109.628 58.0653 109.976 58.0159 110.324 57.9665C97.3558 57.9665 84.2386 57.4723 71.2208 58.263Z" fill="#BA6C0F"/>
<path opacity="0.3" d="M135.068 13.2433C135.068 14.4294 134.124 15.3683 132.931 15.3683C131.739 15.3683 130.794 14.4294 130.794 13.2433C130.794 12.0573 131.739 11.1184 132.931 11.1184C134.124 11.1184 135.068 12.0573 135.068 13.2433Z" fill="#494949"/>
<path d="M134.521 13.0952C134.521 14.0835 133.726 14.8742 132.732 14.8742C131.739 14.8742 130.944 14.0835 130.944 13.0952C130.944 12.1068 131.739 11.3162 132.732 11.3162C133.726 11.3656 134.521 12.1563 134.521 13.0952Z" fill="#533D2C"/>
<path d="M133.08 12.6998C133.08 13.0951 132.732 13.441 132.335 13.441C131.937 13.441 131.59 13.0951 131.59 12.6998C131.59 12.3044 131.937 11.9585 132.335 11.9585C132.732 11.9585 133.08 12.255 133.08 12.6998Z" fill="white"/>
<path opacity="0.3" d="M129.056 6.76978C129.056 7.95579 128.112 8.89471 126.919 8.89471C125.727 8.89471 124.782 7.95579 124.782 6.76978C124.782 5.58377 125.727 4.64484 126.919 4.64484C128.112 4.59543 129.056 5.58377 129.056 6.76978Z" fill="#494949"/>
<path d="M128.459 6.62155C128.459 7.60989 127.664 8.40057 126.671 8.40057C125.677 8.40057 124.882 7.60989 124.882 6.62155C124.882 5.6332 125.677 4.84253 126.671 4.84253C127.664 4.84253 128.459 5.6332 128.459 6.62155Z" fill="#533D2C"/>
<path d="M127.068 6.17682C127.068 6.57216 126.72 6.91809 126.323 6.91809C125.925 6.91809 125.578 6.57216 125.578 6.17682C125.578 5.78147 125.925 5.43555 126.323 5.43555C126.72 5.43555 127.068 5.78147 127.068 6.17682Z" fill="white"/>
<path opacity="0.3" d="M31.2232 77.9804C31.2232 79.1665 30.2792 80.1054 29.0867 80.1054C27.8942 80.1054 26.9502 79.1665 26.9502 77.9804C26.9502 76.7944 27.8942 75.8555 29.0867 75.8555C30.2792 75.8555 31.2232 76.7944 31.2232 77.9804Z" fill="#494949"/>
<path d="M30.6269 77.8816C30.6269 78.87 29.8319 79.6606 28.8382 79.6606C27.8445 79.6606 27.0496 78.87 27.0496 77.8816C27.0496 76.8932 27.8445 76.1025 28.8382 76.1025C29.8319 76.1025 30.6269 76.8932 30.6269 77.8816Z" fill="#533D2C"/>
<path d="M29.2357 77.4368C29.2357 77.8321 28.8879 78.178 28.4904 78.178C28.0929 78.178 27.7451 77.8321 27.7451 77.4368C27.7451 77.0415 28.0929 76.6956 28.4904 76.6956C28.8879 76.6956 29.2357 77.0415 29.2357 77.4368Z" fill="white"/>
<path opacity="0.3" d="M24.7144 72.4949C24.7144 73.6809 23.7704 74.6199 22.5779 74.6199C21.3854 74.6199 20.4414 73.6809 20.4414 72.4949C20.4414 71.3089 21.3854 70.3699 22.5779 70.3699C23.7704 70.3205 24.7144 71.3089 24.7144 72.4949Z" fill="#494949"/>
<path d="M24.1182 72.3467C24.1182 73.335 23.3232 74.1257 22.3295 74.1257C21.3358 74.1257 20.5408 73.335 20.5408 72.3467C20.5408 71.3583 21.3358 70.5676 22.3295 70.5676C23.3232 70.5676 24.1182 71.3583 24.1182 72.3467Z" fill="#533D2C"/>
<path d="M22.6774 71.9019C22.6774 72.2972 22.3296 72.6431 21.9321 72.6431C21.5346 72.6431 21.1868 72.2972 21.1868 71.9019C21.1868 71.5066 21.5346 71.1606 21.9321 71.1606C22.3792 71.1606 22.6774 71.5066 22.6774 71.9019Z" fill="white"/>
<path opacity="0.3" d="M19.0004 11.9092C19.0004 13.0952 18.0563 14.0341 16.8638 14.0341C15.6713 14.0341 14.7273 13.0952 14.7273 11.9092C14.7273 10.7231 15.6713 9.78418 16.8638 9.78418C18.0563 9.78418 19.0004 10.7231 19.0004 11.9092Z" fill="#494949"/>
<path d="M18.4539 11.8103C18.4539 12.7986 17.6589 13.5893 16.6652 13.5893C15.6714 13.5893 14.8765 12.7986 14.8765 11.8103C14.8765 10.8219 15.6714 10.0312 16.6652 10.0312C17.6589 10.0312 18.4539 10.8219 18.4539 11.8103Z" fill="#533D2C"/>
<path d="M17.013 11.3655C17.013 11.7609 16.6652 12.1068 16.2677 12.1068C15.8703 12.1068 15.5225 11.7609 15.5225 11.3655C15.5225 10.9702 15.8703 10.6243 16.2677 10.6243C16.6652 10.6243 17.013 10.9208 17.013 11.3655Z" fill="white"/>
<path opacity="0.3" d="M25.9068 6.4238C25.9068 7.60983 24.9628 8.54877 23.7703 8.54877C22.5778 8.54877 21.6338 7.60983 21.6338 6.4238C21.6338 5.23777 22.5778 4.29883 23.7703 4.29883C24.9131 4.29883 25.9068 5.23777 25.9068 6.4238Z" fill="#494949"/>
<path d="M25.3106 6.2756C25.3106 7.26395 24.5156 8.05463 23.5219 8.05463C22.5281 8.05463 21.7332 7.26395 21.7332 6.2756C21.7332 5.28726 22.5281 4.49658 23.5219 4.49658C24.5156 4.546 25.3106 5.33668 25.3106 6.2756Z" fill="#533D2C"/>
<path d="M23.8695 5.83063C23.8695 6.22597 23.5217 6.5719 23.1242 6.5719C22.7267 6.5719 22.3789 6.22597 22.3789 5.83063C22.3789 5.43528 22.7267 5.08936 23.1242 5.08936C23.5217 5.13877 23.8695 5.43528 23.8695 5.83063Z" fill="white"/>
<path opacity="0.3" d="M127.416 71.3091C127.416 72.4951 126.472 73.434 125.28 73.434C124.087 73.434 123.143 72.4951 123.143 71.3091C123.143 70.123 124.087 69.1841 125.28 69.1841C126.422 69.1841 127.416 70.123 127.416 71.3091Z" fill="#494949"/>
<path d="M126.82 71.1609C126.82 72.1492 126.025 72.9399 125.031 72.9399C124.037 72.9399 123.242 72.1492 123.242 71.1609C123.242 70.1725 124.037 69.3818 125.031 69.3818C126.025 69.4313 126.82 70.2219 126.82 71.1609Z" fill="#533D2C"/>
<path d="M125.379 70.7654C125.379 71.1608 125.031 71.5067 124.633 71.5067C124.236 71.5067 123.888 71.1608 123.888 70.7654C123.888 70.3701 124.236 70.0242 124.633 70.0242C125.031 70.0242 125.379 70.3207 125.379 70.7654Z" fill="white"/>
<path opacity="0.3" d="M121.553 76.7944C121.553 77.9804 120.609 78.9194 119.416 78.9194C118.224 78.9194 117.28 77.9804 117.28 76.7944C117.28 75.6084 118.224 74.6694 119.416 74.6694C120.609 74.6694 121.553 75.6084 121.553 76.7944Z" fill="#494949"/>
<path d="M120.957 76.6955C120.957 77.6839 120.162 78.4745 119.168 78.4745C118.174 78.4745 117.379 77.6839 117.379 76.6955C117.379 75.7072 118.174 74.9165 119.168 74.9165C120.162 74.9165 120.957 75.7072 120.957 76.6955Z" fill="#533D2C"/>
<path d="M119.516 76.2508C119.516 76.6461 119.168 76.9921 118.77 76.9921C118.373 76.9921 118.025 76.6461 118.025 76.2508C118.025 75.8554 118.373 75.5095 118.77 75.5095C119.218 75.5095 119.516 75.806 119.516 76.2508Z" fill="white"/>
<g opacity="0.3">
<g opacity="0.3">
<path opacity="0.3" d="M10.0071 4.84229C9.85804 5.63296 9.80835 6.42364 9.80835 7.26374C10.1065 9.88285 10.8021 12.4526 11.5474 14.9728C11.0505 11.563 10.5537 8.20266 10.0071 4.84229Z" fill="#E59051"/>
<path opacity="0.3" d="M18.6525 77.2885C19.0003 75.213 19.3978 73.1374 19.6959 71.0125C19.8946 67.2073 20.0934 63.4516 19.994 59.6464C19.845 53.321 18.5531 47.1438 17.3606 40.9172C16.1682 34.8388 15.2738 28.7605 14.3298 22.6327C13.8329 19.5688 12.8889 16.6037 12.0442 13.6387C12.3423 15.6648 12.6404 17.7403 12.9385 19.7665C13.0876 20.4089 13.2367 21.1007 13.3857 21.7926C14.5285 27.8709 15.0254 34.0481 16.1682 40.1265C17.3109 46.3531 18.5531 52.4315 19.05 58.7569C19.4475 64.9835 18.5531 71.1113 18.6525 77.2885Z" fill="#E59051"/>
<path opacity="0.3" d="M15.721 59.3994C15.6713 54.5565 15.8701 49.8124 15.2241 45.0189C14.5782 40.1265 13.187 35.333 12.3423 30.4407C11.597 26.2402 11.1995 21.9903 10.5039 17.7898C10.7027 20.2113 10.9014 22.6821 11.1001 25.1036C11.2492 26.5367 11.448 28.0192 11.597 29.4523C12.1933 34.3941 13.6342 39.1876 14.4292 44.1294C15.1248 48.6758 15.2738 53.2222 15.0751 57.818C15.1745 60.4866 15.4229 63.2046 15.8204 65.8237C16.0191 66.6638 16.2676 67.5039 16.4663 68.344C16.0688 65.3789 15.721 62.4139 15.721 59.3994Z" fill="#E59051"/>
<path opacity="0.3" d="M23.5715 27.5249C23.5715 28.7109 23.5715 29.8969 23.6212 31.0335C23.82 33.6527 24.3168 36.173 24.9628 38.7427C24.6646 35.6788 24.5653 32.6643 24.5653 29.551C24.5653 26.9813 24.615 24.3127 24.5653 21.6442C24.4162 20.7052 24.2672 19.8157 24.1181 18.8768C23.8697 17.5919 23.6212 16.3071 23.3728 15.0222C23.7703 19.1239 23.5219 23.4232 23.5715 27.5249Z" fill="#E59051"/>
<path opacity="0.3" d="M24.3169 40.7688C24.2175 40.4229 24.1181 40.077 24.0187 39.731C24.1181 40.9171 24.2672 42.1525 24.4162 43.3385C25.1118 48.5768 26.0559 53.8151 26.354 59.1027C26.5031 61.8701 26.2049 64.6375 25.9068 67.4049C25.8075 68.1956 25.7081 69.1345 25.6584 69.9252C25.559 73.2362 24.4162 69.0357 24.2672 68.3933C23.3231 64.0445 22.3294 59.6958 21.1866 55.3964C19.7457 49.9111 20.0935 44.1786 18.9507 38.5944C17.8576 33.0597 16.8639 27.5743 15.9199 22.0395C15.1249 17.4931 14.1312 12.9467 13.8827 8.35087C13.7834 7.70844 13.6343 7.06601 13.5349 6.42358C13.0877 11.8101 14.3796 17.0978 15.2243 22.3361C16.2677 28.6615 17.6589 34.987 18.6526 41.3124C19.547 47.0449 19.696 52.629 21.0872 58.3121C21.8822 61.4254 22.6772 64.6375 23.3231 67.7508C23.7206 69.6781 24.0684 71.4572 25.3106 72.9891C25.5093 73.2362 25.8571 72.8903 25.9565 72.6926C26.6521 71.4572 26.4037 69.6781 26.6024 68.3933C26.9006 65.9224 27.2484 63.5503 27.298 61.0795C27.4968 55.8906 26.5031 50.6029 25.7578 45.5129C25.2609 43.9315 24.764 42.3502 24.3169 40.7688Z" fill="#E59051"/>
<path opacity="0.3" d="M22.3293 42.8444C22.0808 39.0887 21.8821 35.2836 21.3852 31.5278C20.789 27.0802 20.1928 22.4844 19.845 17.938C19.5468 15.7142 19.3481 13.4904 19.0997 11.2666C19.05 11.316 19.05 11.3654 19.05 11.4149C18.9506 18.1851 19.7953 25.1529 20.5903 31.8737C21.3852 38.3969 21.3852 44.9694 22.2796 51.4925C22.2796 51.5914 22.379 51.6902 22.4286 51.6902C22.2796 48.7251 22.3293 45.7601 22.3293 42.8444Z" fill="#E59051"/>
</g>
<g opacity="0.3">
<path opacity="0.3" d="M44.6882 76.7449C43.446 76.7449 42.1542 76.7943 40.912 76.6461C39.9183 76.6461 38.9246 76.5967 37.9805 76.5967C36.9371 76.6955 35.8937 76.8438 34.8503 77.0414C33.5087 77.2885 32.1672 77.4368 30.8257 77.585C31.72 77.5356 32.5647 77.4862 33.459 77.4368C35.844 77.2885 38.2786 77.3379 40.6636 77.3874C38.4774 77.7827 36.3409 78.2275 34.105 78.524C30.4282 79.0181 26.8011 78.524 23.2236 79.2158C23.4224 79.2158 23.6708 79.2652 23.8696 79.3146C25.1614 79.4135 26.4533 79.5123 27.7451 79.6111C29.4344 79.5617 31.1238 79.5617 32.8131 79.4135C37.434 79.0676 41.8064 77.585 46.4272 77.3379C46.4769 77.3379 46.4769 77.3379 46.5266 77.3379C46.7253 77.3379 46.9241 77.0414 46.9241 76.8438C46.2285 76.7943 45.4832 76.7449 44.6882 76.7449Z" fill="#E59051"/>
<path opacity="0.3" d="M112.56 71.5562C111.516 71.4079 110.473 71.3585 109.429 71.3091C108.933 71.3091 108.386 71.3585 107.889 71.4079C104.262 71.655 100.685 72.4457 97.0575 72.3469C89.7536 72.1986 82.5988 73.9282 75.2949 73.6317C67.6432 73.3352 60.0909 73.8294 52.4393 73.9776C47.2222 74.0765 42.0051 73.8788 36.8378 74.0271C34.6019 74.1259 32.217 74.373 30.0308 74.966C37.3843 74.4718 44.6882 74.8177 52.0914 74.8177C59.6934 74.8177 67.2457 74.2742 74.8477 74.7189C82.2013 75.1637 89.2567 73.3846 96.5606 73.5329C99.5418 73.5823 102.324 73.0387 105.305 72.6928C108.734 72.248 112.162 72.1492 115.59 72.0504C114.497 71.8527 113.504 71.7044 112.56 71.5562Z" fill="#E59051"/>
<path opacity="0.3" d="M112.261 73.187C104.163 73.3353 96.0637 74.4719 88.0145 75.4108C82.0521 76.1027 76.537 75.905 70.5746 75.4108C64.9601 74.9166 59.2958 75.4108 53.731 76.3498C55.3706 76.3498 57.0103 76.3992 58.6002 76.4486C67.9412 76.2015 77.1332 77.7335 86.5239 76.7451C93.6291 76.0038 100.685 74.8672 107.79 74.2248C108.535 74.0765 109.28 73.8789 110.026 73.7306C111.069 73.5329 112.063 73.3847 113.106 73.2859C112.808 73.2859 112.56 73.2364 112.261 73.187Z" fill="#E59051"/>
<path opacity="0.3" d="M118.82 78.9689C119.565 78.7712 120.311 78.4747 121.056 78.277C119.615 78.3265 118.125 78.1782 116.932 78.3265C113.702 78.7712 110.473 79.1666 107.243 79.4631C99.8897 80.1549 92.4864 78.9195 85.1329 79.0677C78.3755 79.216 71.8169 79.1666 65.0596 78.3759C62.4759 78.0794 59.9419 78.0299 57.4576 78.1288C56.762 78.1782 56.0664 78.2276 55.3708 78.277C52.8865 78.4253 50.4519 78.7218 48.0172 79.216C47.3713 79.3642 46.7751 79.4631 46.1292 79.6113C52.8368 79.3148 59.147 78.5735 65.9043 79.4631C73.4566 80.4514 80.8102 80.1549 88.3625 80.2538C95.4179 80.3032 102.424 81.3904 109.479 80.2538C112.51 79.7596 115.69 79.1171 118.82 78.9689Z" fill="#E59051"/>
<path opacity="0.3" d="M126.422 81.0444C126.72 80.8467 127.068 80.5996 127.317 80.3525C125.429 80.8467 123.391 80.4514 121.454 80.7479C121.354 80.8467 121.304 80.9455 121.205 81.0444C122.944 81.0444 124.683 81.2914 126.422 81.0444C126.373 81.0444 126.422 81.0444 126.422 81.0444Z" fill="#E59051"/>
<path opacity="0.3" d="M119.069 75.8062C115.193 76.0038 111.218 76.0038 107.392 76.7945C107.144 76.9428 106.895 77.091 106.647 77.2887C110.821 77.1899 114.945 76.5968 119.069 75.8062Z" fill="#E59051"/>
</g>
<g opacity="0.3">
<path opacity="0.3" d="M126.323 14.7754C125.727 18.9265 125.727 23.0775 124.882 27.278C123.988 31.7256 123.093 36.1238 122 40.5714C121.056 44.2777 120.758 47.984 120.559 51.7892C120.311 56.3356 119.715 60.7338 118.92 65.1813C119.118 64.5883 119.317 63.9953 119.466 63.4023C120.013 61.2279 120.212 59.0041 120.808 56.8298C121.205 51.7398 121.305 46.6003 122.398 41.6091C123.342 37.1616 124.634 32.8622 125.379 28.3652C125.727 26.1414 126.174 23.9671 126.522 21.6939C126.522 21.595 126.522 21.5456 126.571 21.4468C126.72 19.223 126.72 16.9992 126.323 14.7754Z" fill="#E59051"/>
<path opacity="0.3" d="M129.999 59.2018C129.9 57.5216 129.801 46.9956 127.366 47.0944C124.782 47.1933 124.932 53.9635 124.733 55.3966C124.037 60.5854 123.093 65.7249 122.646 70.9137C123.64 66.8615 124.335 62.7104 125.23 58.6087C125.528 56.9285 125.776 55.1989 125.975 53.4693C126.074 52.5798 126.869 46.9462 127.565 49.1206C129.055 53.9141 129.055 59.5477 129.205 64.5389C129.354 69.4312 129.155 74.3235 129.453 79.2159C129.453 79.2653 129.453 79.3147 129.503 79.3641C129.85 78.2769 129.85 76.9921 129.999 75.9049C130.099 75.1142 130.248 74.2741 130.397 73.4834C130.397 68.7394 130.248 63.9458 129.999 59.2018Z" fill="#E59051"/>
<path opacity="0.3" d="M129.205 79.7099C128.112 77.3873 128.36 74.8175 128.459 72.3467C128.559 69.6287 128.112 66.9107 128.012 64.1927C128.012 63.5503 127.118 63.9457 126.969 64.2422C126.373 65.2799 125.925 66.3671 125.528 67.5037C125.578 67.5531 125.627 67.652 125.578 67.8002C124.633 70.1229 124.087 73.3844 124.683 76.0036C124.981 75.5588 125.23 75.0646 125.428 74.5704C125.776 71.8525 125.975 69.1345 126.919 66.6142C127.018 67.9979 127.168 69.431 127.267 70.8147C127.317 70.8641 127.366 70.963 127.317 71.1112C127.317 71.1606 127.317 71.21 127.267 71.2595C127.317 72.0501 127.366 72.8408 127.366 73.6809C127.366 74.0763 127.366 74.4716 127.366 74.867C127.615 76.6954 128.31 78.425 129.056 80.1052C129.205 79.957 129.254 79.8581 129.205 79.7099Z" fill="#E59051"/>
<path opacity="0.3" d="M129.801 19.3712C127.018 27.5745 124.733 36.3708 123.242 44.92C122.546 48.824 122.149 52.8269 121.801 56.7803C121.851 56.8297 121.901 56.9285 121.901 57.0274C121.652 59.943 121.553 62.8586 121.553 65.7743C121.553 66.4167 121.553 67.1085 121.553 67.751C122.248 60.4866 123.043 53.1728 124.136 45.9084C124.981 40.1265 126.521 34.4435 128.012 28.8099C128.111 28.3652 128.211 27.9698 128.26 27.5251C128.857 24.8071 129.205 21.9409 129.9 19.2229C129.85 19.2723 129.801 19.2723 129.801 19.3712Z" fill="#E59051"/>
<path opacity="0.3" d="M129.751 37.5569C130.645 35.4319 131.341 33.4552 131.689 31.182C132.086 28.6123 132.335 26.092 132.583 23.5223C132.683 22.7316 132.683 21.9409 132.732 21.1008C131.937 26.6356 130.794 32.0715 129.751 37.5569Z" fill="#E59051"/>
<path opacity="0.3" d="M138.049 17.7898C138.794 13.5399 139.241 9.28995 139.688 5.04004C139.639 5.08946 139.639 5.13887 139.639 5.13887C137.85 14.5776 135.366 24.0164 134.273 33.554C133.328 42.2021 133.179 50.8502 133.378 59.5477C133.478 59.1523 133.577 58.7076 133.627 58.3122C133.676 58.2134 133.676 58.0651 133.676 57.9663C133.676 56.2861 133.676 54.6059 133.875 52.9257C133.974 51.8879 134.123 50.8502 134.273 49.8124C134.422 44.327 134.67 38.8417 135.217 33.4057C135.664 28.7111 136.608 24.2141 137.701 19.6677C137.85 18.9758 137.949 18.3828 138.049 17.7898Z" fill="#E59051"/>
</g>
<g opacity="0.3">
<path opacity="0.3" d="M110.075 2.81615C105.107 3.45858 100.089 4.24925 95.0702 4.44692C89.9028 4.69401 84.7355 4.3975 79.5681 4.29867C69.5315 4.101 59.6439 5.43527 49.6073 5.73177C39.8191 6.02827 29.9812 4.94109 20.2427 3.90333C21.3358 4.101 22.4289 4.54575 23.3232 4.89168C31.4718 5.97885 39.67 6.76953 47.8682 6.76953C58.3024 6.72011 68.6371 5.18818 79.1209 5.33643C88.7104 5.48468 97.8526 5.38585 107.392 4.15042C112.759 3.45858 118.174 2.51965 123.59 2.47023C125.478 2.47023 127.317 2.56907 129.205 2.71732C129.453 2.71732 129.652 2.71732 129.9 2.71732C131.689 2.42082 133.527 2.12431 135.316 1.92664C126.77 1.38305 118.572 1.67956 110.075 2.81615Z" fill="#E59051"/>
<path opacity="0.3" d="M115.342 9.88282C110.473 9.48748 105.554 9.19097 100.734 8.49912C105.057 6.96716 110.224 7.16483 114.696 6.76949C121.056 6.22589 127.466 5.87996 133.776 5.03986C132.732 4.99044 131.689 4.94102 130.646 4.8916C124.932 5.4352 119.218 5.63287 113.553 6.02822C108.833 6.37414 103.417 6.12705 99.0947 8.30144C98.7966 8.4497 98.3494 9.09213 98.896 9.19097C104.56 10.0805 110.324 10.4264 116.087 10.9206C118.224 11.1183 120.36 11.0688 122.497 11.0688C123.292 10.97 124.037 10.8712 124.783 10.6735C125.379 10.5253 126.025 10.2782 126.621 10.0805C122.944 10.4758 118.92 10.1793 115.342 9.88282Z" fill="#E59051"/>
<path opacity="0.3" d="M123.441 8.30151C124.137 8.2521 124.832 8.15326 125.528 8.05443C127.118 7.7085 128.658 7.26375 130.248 6.91783C130.298 6.91783 130.348 6.86841 130.447 6.86841C126.869 6.86841 123.193 7.31316 119.665 7.60967C119.615 7.60967 119.566 7.65909 119.516 7.65909C120.758 8.00501 122.1 8.2521 123.441 8.30151Z" fill="#E59051"/>
<path opacity="0.3" d="M59.7928 8.59821C54.6254 8.40054 49.458 8.35113 44.2906 8.69705C40.117 8.99355 35.4962 9.63597 31.1238 9.38888C30.6269 9.53713 30.13 9.68538 29.5835 9.83363C33.0615 10.229 36.6389 10.0313 40.0176 9.88305C46.0793 9.63597 51.992 9.29005 58.004 9.48772C67.3948 9.78422 76.7358 10.3772 86.0768 9.58655C87.6668 9.29005 89.2567 8.89471 90.8467 8.49938C80.5616 9.68538 70.1772 8.99355 59.7928 8.59821Z" fill="#E59051"/>
<path opacity="0.3" d="M92.387 8.94403C92.9832 8.84521 93.6291 8.74638 94.2253 8.64755C94.3744 8.64755 94.4738 8.49931 94.4738 8.35107C93.7782 8.49931 93.0826 8.69697 92.387 8.94403Z" fill="#E59051"/>
<path opacity="0.3" d="M43.7939 3.01389C40.5146 2.27261 37.2353 2.07494 33.9063 1.92668C33.7075 1.92668 33.5088 1.92668 33.3597 1.92668C32.1672 1.92668 30.9748 1.87726 29.7823 1.87726C27.0496 1.87726 24.3168 1.4325 21.5841 1.1854C21.2859 1.1854 20.9878 1.13599 20.6897 1.13599C19.9941 1.23482 19.2488 1.28424 18.5532 1.33366C17.311 1.53134 16.0689 1.77843 14.8267 1.72901C14.5783 1.87727 14.3298 2.02552 14.1311 2.2232C16.0689 2.56913 18.0066 2.07494 19.9941 1.9761C23.0746 1.82785 26.2546 2.81622 29.3351 2.91505C34.5522 3.06331 39.8189 3.40924 45.036 3.21157C44.5888 3.16215 44.1913 3.06331 43.7939 3.01389Z" fill="#E59051"/>
</g>
</g>
<path opacity="0.5" d="M19.2487 69.9254C18.6028 59.7454 17.0128 49.5654 16.2178 39.3854C15.9694 36.1732 15.9197 32.9611 15.6216 29.7489C15.4725 28.8594 15.2738 27.9699 15.0751 27.031C14.2801 23.5223 13.6838 19.9148 12.8392 16.4062C12.5907 15.4673 12.3423 14.5283 12.0939 13.54C11.6467 12.008 11.1498 10.5255 10.5536 9.04297C10.5039 9.09239 10.5039 9.14181 10.5039 9.19122C10.7027 13.8365 11.597 18.8771 12.5411 23.4729C13.6838 29.0571 13.982 34.3942 14.4291 40.0772C15.2738 51.0479 17.3109 61.8703 18.8015 72.7916C18.8512 71.9021 19.05 70.9138 19.2487 69.9254Z" fill="#BA6C0F"/>
<path opacity="0.5" d="M103.666 73.5822C105.157 73.2363 106.647 72.841 108.187 72.5939C108.982 72.4456 109.926 72.4456 110.821 72.2974C107.939 72.3468 105.107 72.7915 102.175 72.9892C98.9954 73.1869 95.7658 72.9398 92.5859 72.7421C86.1763 72.2479 79.8165 72.3468 73.407 72.9398C66.3018 73.5822 59.2961 74.4718 52.1909 74.2741C48.1167 74.1258 44.0921 74.2247 40.0178 74.2741C37.8813 74.4718 35.6951 74.6694 33.5586 74.8177C35.546 75.1636 37.7819 75.0154 39.7694 75.1142C42.8499 75.2625 45.9305 75.3119 49.011 75.6084C55.7684 76.3497 62.5257 75.5096 69.2333 74.7683C76.9347 73.9282 84.3876 73.2363 92.1387 73.7799C96.1136 73.9776 99.8898 73.8787 103.666 73.5822Z" fill="#BA6C0F"/>
<path opacity="0.5" d="M126.87 19.5193C126.522 21.1995 126.224 22.8797 125.925 24.5599C125.925 24.7082 125.925 24.9058 125.876 25.0541C125.627 29.9464 125.578 34.6905 124.435 39.484C123.441 43.6351 123.044 48.1815 122.497 52.4314C121.951 56.6319 120.708 61.0795 121.006 65.3294C121.106 64.094 121.553 62.6114 121.603 62.2161C121.901 60.4371 122.447 58.7569 123.044 57.0273C123.242 56.3848 123.391 55.693 123.541 55.0506C124.335 50.1088 125.13 45.2165 125.776 40.2747C126.323 36.2225 127.068 32.4667 127.217 28.3156C127.366 24.1152 127.019 19.717 128.261 15.6648C128.261 15.6153 128.261 15.6153 128.261 15.5659C127.714 16.8014 127.267 18.185 126.87 19.5193Z" fill="#BA6C0F"/>
<path opacity="0.5" d="M93.977 4.89193C95.6166 4.59542 97.2066 4.20008 98.8463 3.85415C85.6297 3.90357 72.3634 4.15066 59.1469 3.60706C52.4889 3.35997 45.8309 3.21172 39.173 3.55764C35.8937 3.7059 32.6144 3.85415 29.3351 4.00241C28.2917 4.05182 27.1489 4.15066 26.0061 4.2495C26.2048 4.2495 26.4533 4.29891 26.652 4.29891C30.6766 4.546 34.7012 4.24949 38.6761 4.29891C41.707 4.34833 44.7875 4.49658 47.8184 4.64484C50.9486 4.64484 54.1286 4.69426 57.3085 4.84251C69.4319 5.33669 81.8038 5.53436 93.977 4.89193Z" fill="#BA6C0F"/>
</svg>
