<svg width="33" height="32" viewBox="0 0 33 32" fill="none" xmlns="http://www.w3.org/2000/svg">
<path d="M27.5135 15.2476H5.65161V17.4714H27.5135V15.2476Z" fill="#44210E"/>
<path d="M17.7254 5.46289H15.4895V27.2066H17.7254V5.46289Z" fill="#44210E"/>
<path d="M9.65178 7.84895L8.0708 9.42139L23.5293 24.7963L25.1103 23.2239L9.65178 7.84895Z" fill="#44210E"/>
<path d="M23.5343 7.87255L8.07568 23.2476L9.65668 24.82L25.1153 9.445L23.5343 7.87255Z" fill="#44210E"/>
<path d="M16.5826 0.47168C7.8378 0.47168 0.732666 7.5384 0.732666 16.2359C0.732666 24.9334 7.8378 32.0001 16.5826 32.0001C25.3274 32.0001 32.4325 24.9334 32.4325 16.2359C32.4325 7.5384 25.3274 0.47168 16.5826 0.47168ZM16.5826 24.6369C11.9618 24.6369 8.23529 20.9306 8.23529 16.3347C8.23529 11.7389 11.9618 8.03258 16.5826 8.03258C21.2034 8.03258 24.9299 11.7389 24.9299 16.3347C24.9299 20.9306 21.2034 24.6369 16.5826 24.6369Z" fill="#743C25"/>
<path d="M20.16 16.3349C20.16 18.3116 18.57 19.8929 16.5825 19.8929C14.5951 19.8929 13.0051 18.3116 13.0051 16.3349C13.0051 14.3582 14.5951 12.7769 16.5825 12.7769C18.57 12.7769 20.16 14.3582 20.16 16.3349Z" fill="#BA6C0F"/>
<path d="M18.7689 16.2358C18.7689 17.3724 17.8746 18.262 16.7318 18.262C15.5889 18.262 14.6946 17.3724 14.6946 16.2358C14.6946 15.0992 15.5889 14.2097 16.7318 14.2097C17.8746 14.2097 18.7689 15.0992 18.7689 16.2358Z" fill="#44210E"/>
<path d="M16.5827 1.6084C8.38451 1.6084 1.72656 8.23035 1.72656 16.3842C1.72656 24.5381 8.38451 31.1601 16.5827 31.1601C24.781 31.1601 31.4389 24.5381 31.4389 16.3842C31.3892 8.18093 24.781 1.6084 16.5827 1.6084ZM16.5827 25.3782C11.5644 25.3782 7.49016 21.326 7.49016 16.3348C7.49016 11.3437 11.5644 7.29142 16.5827 7.29142C21.601 7.29142 25.6753 11.3437 25.6753 16.3348C25.6753 21.326 21.601 25.3782 16.5827 25.3782Z" fill="#BA6C0F"/>
<path opacity="0.5" d="M21.2035 2.69541C21.2035 2.69541 13.3034 0.471627 7.14231 5.4628C1.03091 10.454 -0.0124948 21.7706 7.68886 27.7501C7.68886 27.7501 1.77621 20.4363 4.21083 12.6778C6.69513 4.9192 14.2971 2.15182 21.2035 2.69541Z" fill="#BA6C0F"/>
<path d="M25.9734 4.77093C25.1784 4.17792 24.433 3.58491 23.7871 2.89307C23.7374 2.9919 23.6877 3.09074 23.7374 3.18957C23.8368 3.33783 25.2777 4.77094 25.2777 4.82036C24.8305 5.11686 24.2343 5.46279 23.9858 5.95696C23.6877 6.50055 24.284 6.84648 24.6318 7.1924C24.7312 7.29123 24.3833 7.68657 24.0355 8.08191C24.4827 7.7854 24.9796 7.4889 25.4765 7.24181C25.4765 6.99472 25.3771 6.84647 25.2281 6.6488C25.079 6.3523 24.9299 6.10521 24.8305 5.80871C24.8802 5.75929 24.9299 5.70987 24.9796 5.66045C25.2281 5.46278 25.8243 5.11686 25.9734 4.77093Z" fill="#743C25"/>
<path d="M25.1783 28.7879C25.228 28.7385 25.2776 28.6397 25.3273 28.5903C25.1286 28.2443 24.9298 27.8984 24.6814 27.5525C24.1846 26.9101 23.7374 26.3171 23.5883 25.477C23.4889 24.9334 23.4889 24.3898 23.4393 23.8462C23.3896 23.8956 23.3896 23.945 23.3896 23.9945C23.3399 24.291 23.3896 24.538 23.3896 24.8345C23.4393 25.2793 23.2405 25.6746 23.2405 26.1194C23.2902 26.7124 23.5386 27.1077 23.7871 27.6019C23.8864 27.7996 23.9858 27.9973 24.0355 28.1949C24.2342 28.6397 24.433 28.2938 23.7871 28.7385C23.3896 29.035 23.1411 29.4304 22.7437 29.7269C22.694 29.7763 22.694 29.7763 22.6443 29.8257C23.5386 29.5786 24.3833 29.1833 25.1783 28.7879Z" fill="#743C25"/>
<g opacity="0.3">
<path opacity="0.3" d="M10.5207 3.78271C9.92445 4.47456 9.32821 5.21583 8.78166 5.95709C7.88731 7.19253 7.29107 8.67506 6.49608 10.0093C5.75079 11.2448 4.75705 12.2825 3.8627 13.3697C2.86897 14.5558 2.47147 15.7418 1.87523 17.1255C1.82555 17.2737 1.97461 17.2243 2.02429 17.1749C2.91865 15.8406 3.41552 14.4075 4.50862 13.1721C5.35329 12.1837 6.24765 11.2448 6.94326 10.1576C7.78793 8.87273 8.33448 7.3902 9.12947 6.10534C9.42759 5.61116 9.82508 5.11699 10.2226 4.62281C10.2723 4.37572 10.4213 4.07922 10.5207 3.78271Z" fill="#E59051"/>
<path opacity="0.3" d="M13.5516 2.79443C10.5704 5.61124 9.12949 9.51524 6.59548 12.678C5.30363 14.2593 4.35959 15.9395 3.71367 17.8668C3.51492 18.5093 3.26649 19.2011 3.11743 19.8929C3.26649 19.4482 3.46523 19.0528 3.71367 18.6575C3.9621 17.8668 4.30991 17.0761 4.60802 16.3843C5.40301 14.5558 6.74454 13.1227 7.9867 11.5908C8.98043 10.3553 9.57666 8.82339 10.3716 7.4397C11.266 5.90775 12.2597 4.42522 13.5019 3.09094C13.4522 2.99211 13.5019 2.89327 13.5516 2.79443Z" fill="#E59051"/>
<path opacity="0.3" d="M13.3529 29.9741C11.117 28.6892 9.52704 26.3172 8.43394 24.044C7.8874 22.9074 7.44023 21.7213 7.04274 20.5353C6.74462 19.7446 6.74462 18.7563 6.19807 18.1139C6.0987 17.9656 5.89996 18.1633 5.85027 18.2621C5.45278 19.201 5.25404 20.2882 5.10498 21.326C5.10498 21.6225 5.10498 21.919 5.15467 22.2155C5.30372 20.9801 5.65153 19.7446 6.04902 18.7563C6.54588 19.5964 6.74462 20.9801 7.04274 21.7708C7.48991 22.9568 8.03646 24.0934 8.63269 25.2794C9.57672 27.1573 11.4151 29.2822 13.3032 30.1718C13.3032 30.1718 13.4522 30.0235 13.3529 29.9741Z" fill="#E59051"/>
<path opacity="0.3" d="M12.8062 29.9246C11.5144 29.3316 10.471 28.4915 9.47726 27.5032C8.38416 26.416 7.73825 25.1312 6.74452 23.9451C6.64515 23.8463 6.49609 24.044 6.49609 24.1428C6.54578 25.0817 6.99295 25.8724 7.39044 26.7125C7.78793 27.5526 8.08605 28.4421 8.73197 29.134C8.78165 29.1834 8.88102 29.0845 8.83134 29.0351C8.2351 28.3433 7.93699 27.4538 7.58919 26.5643C7.34076 25.9218 6.99295 25.3288 6.84389 24.637C8.48353 26.8113 9.92443 29.2822 12.7069 30.0729C12.7565 30.0729 12.8559 29.974 12.8062 29.9246Z" fill="#E59051"/>
<path opacity="0.3" d="M18.6194 29.8259C16.5822 28.8375 14.247 27.5527 12.508 26.0701C10.918 24.7359 9.92427 22.7098 8.83117 21.0296C8.78149 20.9802 8.68212 21.079 8.7318 21.1284C9.77522 22.9569 10.7193 24.8841 12.2595 26.4161C13.0545 27.2068 14.0482 27.7009 14.9923 28.2445C16.1351 28.8869 17.2282 29.727 18.4703 30.1224C18.5697 30.073 18.7684 29.8753 18.6194 29.8259Z" fill="#E59051"/>
<path opacity="0.3" d="M20.6069 26.7126C19.9113 26.4161 19.2157 26.0207 18.5201 25.6748H18.4705C18.5201 25.8231 18.6195 25.9713 18.6692 26.0701C19.2157 26.416 19.7623 26.762 20.3585 27.0585C21.2032 27.5032 22.4453 28.2445 23.4887 28.4421C23.6875 28.3433 23.8862 28.2445 24.085 28.1456C22.8925 27.7503 21.7497 27.1573 20.6069 26.7126Z" fill="#E59051"/>
<path opacity="0.3" d="M18.0729 28.0469C16.8804 27.5033 15.9364 26.6632 14.893 25.922C14.7936 25.922 14.6445 25.922 14.5452 25.8726C15.7873 26.8609 16.9301 27.8987 18.4207 28.5905C19.6629 29.1835 21.1535 29.1835 22.495 28.887C22.7931 28.7388 23.0912 28.5905 23.3893 28.4423C21.5013 28.7882 19.8119 28.8376 18.0729 28.0469Z" fill="#E59051"/>
<path opacity="0.3" d="M16.5326 2.4978C16.0357 3.09082 15.6382 3.73324 15.2904 4.42509C14.7439 5.36403 14.098 6.20413 13.452 7.04423C13.452 7.19249 13.4023 7.29132 13.4023 7.43958C13.9986 6.74773 14.6445 6.05587 15.1414 5.26519C15.5885 4.62276 15.9364 3.93091 16.3338 3.28848C16.3338 2.99198 16.4332 2.74489 16.5326 2.4978Z" fill="#E59051"/>
<path opacity="0.3" d="M23.439 2.69566C21.0541 4.72176 18.073 5.56185 15.539 7.29145C15.4893 7.34086 15.4893 7.48912 15.5887 7.4397C16.1352 7.1432 16.7811 7.09378 17.3277 6.79728C18.1226 6.30311 18.9176 5.90777 19.7126 5.46302C21.1038 4.72176 22.4453 3.93108 23.5384 2.79449C23.5881 2.69565 23.5384 2.64624 23.439 2.69566Z" fill="#E59051"/>
<path opacity="0.3" d="M21.4516 2.20138C19.961 3.18972 18.6195 4.37574 17.1289 5.36408C16.4332 5.85826 17.0792 5.117 17.2779 4.86991C17.576 4.47457 17.8742 4.12866 18.222 3.73332C18.4704 3.43681 18.6691 3.14031 18.8679 2.8438C18.6691 2.99206 18.4704 3.18972 18.2717 3.33798C18.222 3.43681 18.1226 3.53564 18.0729 3.63448C17.5264 4.37574 16.9301 4.96875 16.5823 5.80884C16.5326 5.90768 16.632 5.95709 16.7314 5.90768C17.427 5.4135 18.2717 5.117 18.9176 4.57341C19.8119 3.83215 20.6566 3.04147 21.551 2.34963C21.551 2.2508 21.551 2.15196 21.4516 2.20138Z" fill="#E59051"/>
<path opacity="0.3" d="M25.4266 3.93095C23.9857 5.01815 22.5945 6.15477 21.1536 7.29138C21.3523 7.29138 21.5511 7.29138 21.7498 7.29138C23.0913 6.35244 24.2838 5.11698 25.4762 4.02978C25.5259 3.98037 25.4762 3.88153 25.4266 3.93095Z" fill="#E59051"/>
<path opacity="0.3" d="M24.7807 27.0583C24.0354 26.7124 23.4391 26.1194 22.6441 25.8723C21.9485 25.6746 21.0542 25.4275 20.4579 24.9828C20.3585 24.9828 20.2592 24.9333 20.2095 24.9333C20.5076 25.5758 21.6504 25.8723 22.2466 26.1194C22.7932 26.3171 23.2901 26.5147 23.7869 26.8112C24.1844 27.0583 24.4826 27.256 24.9794 27.3054C24.9297 27.256 24.8304 27.1572 24.7807 27.0583Z" fill="#E59051"/>
<path opacity="0.3" d="M26.9669 25.5758C26.1719 25.1805 25.3769 24.884 24.5819 24.538C24.1844 24.3898 23.8365 24.1921 23.4887 23.9945C23.3894 23.945 23.2403 23.8956 23.0912 23.8462C22.9422 23.8956 22.7931 23.945 22.644 23.945C23.8365 24.5875 25.0787 25.0322 26.3209 25.5264C26.5197 25.5758 26.7681 25.5758 26.9669 25.5758Z" fill="#E59051"/>
<path opacity="0.3" d="M27.3642 23.0556C27.3642 22.9074 27.3145 22.7591 27.3145 22.6108C26.9667 19.9917 27.712 17.2738 27.0164 14.6052C26.8177 13.7157 24.383 9.76228 25.3767 8.97159C26.0723 8.428 26.6189 7.88441 27.1158 7.24198C27.1655 7.09373 27.2152 6.89606 27.2648 6.7478C26.768 7.43965 26.2711 8.03266 25.5755 8.52684C25.327 8.72451 24.8302 8.97159 24.6811 9.31752C24.4823 9.81169 24.5817 10.0094 24.7805 10.5035C25.2773 11.4425 25.6748 12.2826 26.0723 13.2709C26.4698 14.4075 26.8673 15.3465 26.917 16.5819C27.0164 17.7185 26.8673 18.9045 26.8177 20.0411C26.7183 21.7708 26.917 23.5498 27.7617 25.0817C27.7617 24.8841 27.712 24.7358 27.712 24.5381C27.6127 24.044 27.4636 23.5498 27.3642 23.0556Z" fill="#E59051"/>
<path opacity="0.3" d="M28.5569 23.4015C28.5569 23.0061 28.6066 22.5614 28.6562 22.166C28.6066 21.7213 28.5569 21.2765 28.5569 20.8318C28.5569 19.2998 28.9544 17.8667 28.8053 16.2854C28.7059 15.1488 28.2588 14.0122 27.9606 12.925C27.5135 11.2942 27.7619 9.9105 28.06 8.42798C27.911 8.7739 27.7619 9.16924 27.5632 9.51516C27.4638 10.1082 27.3644 10.7506 27.4141 11.393C27.4638 12.925 28.1097 14.4075 28.4078 15.89C28.7059 17.422 28.3581 18.8551 28.2588 20.387C28.2091 21.4248 28.3581 22.4131 28.5569 23.4015Z" fill="#E59051"/>
<path opacity="0.3" d="M30.6935 18.2126C30.6438 17.1254 30.445 16.0382 30.1469 15.0005C29.7991 13.8639 29.3023 12.9744 29.1035 11.7884C28.9048 10.7012 29.0041 9.61399 29.1532 8.52681C29.1532 8.42797 29.1532 8.32914 29.1532 8.18089C29.1532 8.08205 29.1532 7.9338 29.1035 7.83496C28.7557 9.61399 28.557 11.2942 29.0041 13.0732C29.3023 14.3581 29.9482 15.4947 30.2463 16.8289C30.3954 17.6196 30.445 18.4597 30.5444 19.2998C30.5444 18.9045 30.6438 18.5585 30.6935 18.2126Z" fill="#E59051"/>
<path opacity="0.3" d="M26.2216 18.3115C26.2216 16.9772 26.0228 15.6429 25.6253 14.4075C25.6253 14.6546 25.5756 14.8522 25.5259 15.0993C25.8241 16.9278 25.9234 18.7562 25.675 20.6835C25.5756 21.6224 25.4266 22.5614 25.4266 23.5497C25.4266 23.3026 23.9856 22.2154 23.7869 21.8201C23.7372 21.7707 23.7372 21.7707 23.6875 21.7707C23.8366 22.3143 24.1347 22.8579 24.5322 23.1544C24.6316 23.2532 24.6812 23.352 24.6812 23.4509C24.9794 23.698 25.2775 23.945 25.4762 24.1921C25.5756 24.291 25.7247 24.1427 25.7247 24.0439C25.675 22.0672 26.2216 20.1893 26.2216 18.3115Z" fill="#E59051"/>
<path opacity="0.3" d="M24.9296 20.1399C24.7309 20.0905 24.6315 20.387 24.5819 20.7329C24.5322 20.6341 24.4825 20.5353 24.4328 20.4858C24.3831 20.3376 24.1844 20.5353 24.1844 20.5847C24.1347 20.9306 24.3335 21.1282 24.5819 21.3259C24.6812 21.4247 24.8799 21.2765 24.8799 21.1282C24.8799 21.0294 24.8303 20.2882 24.8799 20.2388C24.9296 20.2388 24.9793 20.1399 24.9296 20.1399Z" fill="#E59051"/>
</g>
<path opacity="0.3" d="M22.7437 8.57616C20.309 6.05586 17.6756 4.91926 14.1479 5.75936C12.3095 6.20412 10.7195 6.9948 9.27859 8.13141C9.27859 8.13141 9.27859 8.18083 9.2289 8.18083C8.1358 9.26802 6.89363 10.6023 6.64519 12.1837C6.39676 13.6168 6.44645 15.0499 6.49614 16.5324C6.54582 19.1515 6.79425 22.4625 9.17921 24.0933C13.3529 26.9595 19.3153 26.8113 23.1908 23.4015C25.3771 21.4742 27.0167 18.9045 26.7186 15.9394C26.5695 14.5063 26.2217 12.4307 25.3274 11.2447C24.5821 10.2564 23.5883 9.46568 22.7437 8.57616ZM16.5825 24.6369C11.9617 24.6369 8.23517 20.9306 8.23517 16.3347C8.23517 11.7389 11.9617 8.03257 16.5825 8.03257C21.2034 8.03257 24.9299 11.7389 24.9299 16.3347C24.9299 20.9306 21.2034 24.6369 16.5825 24.6369Z" fill="#703405"/>
<path opacity="0.3" d="M16.5825 0.47168C15.5391 0.47168 14.4957 0.570518 13.502 0.768188C15.9863 0.965858 18.4209 1.60828 20.8059 2.54722C21.4518 2.7943 24.0355 4.07916 23.3896 5.16635C22.9921 5.90761 23.787 6.30295 24.1845 6.89596C24.3336 7.09363 24.3336 7.34072 24.2342 7.5878C24.7311 7.53839 25.4267 7.43955 25.377 7.34072C25.3273 7.14305 25.228 6.94538 25.2776 6.69829C25.2776 6.45121 25.2776 6.10528 25.5261 5.95703C26.1223 5.61111 26.6689 6.1547 26.9173 6.64887C27.6129 7.98315 28.2588 9.268 28.9544 10.5529C29.7991 12.0354 30.4947 13.6662 30.445 15.4452C30.445 17.6196 29.6004 19.3492 28.9047 21.3753C28.3582 23.0555 27.8116 24.0933 26.4701 25.2793C25.5758 26.07 25.377 26.9101 24.1349 26.4159C23.5883 26.2182 23.2902 25.8229 23.1411 25.4275C22.9921 25.7735 22.8927 26.1194 22.9424 26.4159C22.9424 26.9595 22.9424 27.5031 22.9424 28.0467C22.9424 28.2443 22.7933 28.3432 22.5946 28.3926C16.6322 28.9856 10.3717 28.9856 5.55213 24.7851C4.40934 23.7968 4.16091 22.5613 3.66405 21.1776C3.06781 19.4974 2.42189 17.8667 2.02439 16.1865C1.6269 14.6545 1.37847 13.172 1.52753 11.5906C1.57722 11.2941 1.6269 10.9976 1.67659 10.7011C1.03067 12.3813 0.682861 14.2592 0.682861 16.137C0.682861 24.8345 7.78802 31.9012 16.5328 31.9012C25.2776 31.9012 32.3828 24.8345 32.3828 16.137C32.4325 7.53839 25.3273 0.47168 16.5825 0.47168Z" fill="#703405"/>
</svg>
